<svg version="1.2" xmlns="http://www.w3.org/2000/svg" viewBox="0 0 297 297" width="297" height="297">
	<style>
		.s0 { fill: #113514 } 
		.s1 { fill: #f6a411 } 
	</style>
	<g id="Layer 1">
		<path id="Path 1" fill-rule="evenodd" class="s0" d="m-7.32-27.7m296.42 288.9c4.06 0.84 4.79 0.85 2.83 3.05-1.34 1.51-6.13 4.82-18.8 11.97l-19.15-7.44c-10.53-4.11-29.67-10.21-42.54-13.57-12.86-3.39-23.63-5.7-23.92-5.15-0.3 0.53 1.14 1.85 3.19 2.93 2.04 1.07 15.69 6.47 30.31 11.98 14.63 5.51 28.99 10.78 31.9 11.7 3.64 1.12 0.11 1.72-11.17 1.83-9.06 0.1-16.71-0.58-17.01-1.51-0.3-0.92-13.7-8.11-29.78-15.96-16.08-7.82-29.2-13.52-29.16-12.65 0.04 0.87 4.53 4.93 9.97 9.04 5.45 4.1 14.53 10.31 20.19 13.82 5.66 3.51 9.63 7.11 8.81 7.98-0.81 0.87-4.92 1.57-9.11 1.55-6.66-0.04-9.55-2.04-23.03-15.95-8.49-8.74-15.91-15.68-16.49-15.38-0.59 0.3 0.47 4.36 2.36 9.04 1.9 4.68 5.26 11.15 7.45 14.36 2.21 3.21 4.02 6.34 4.02 6.91 0 0.6-4.3 1.06-9.57 1.06-8.11 0-9.4-0.57-8.51-3.72 0.59-2.04 0.3-8.51-2.36-24.99l-5.89 11.7c-3.24 6.44-5.34 12.89-4.66 14.36 0.85 1.85-1.04 2.65-6.23 2.65-4.11 0-7.45-0.46-7.45-1.06 0-0.57 3.66-6.57 8.15-13.29 4.46-6.72 9.02-13.64 10.1-15.36 1.57-2.51 1.26-2.72-1.62-1.06-1.95 1.12-9.84 8.04-17.54 15.35-12.68 12.06-14.83 13.3-32.06 13.23l7.45-4.59c4.1-2.53 13.93-9.47 21.88-15.4 7.94-5.93 13.96-11.25 13.34-11.85-0.6-0.57-11.87 4.53-25.06 11.38-13.2 6.85-26.63 14.27-29.84 16.49-4.17 2.87-9.38 4-30.31 3.78l8.51-4.04c4.68-2.21 19.53-8.59 32.97-14.16 13.44-5.58 23.01-10.47 21.27-10.87-1.74-0.41-9.42 1.12-17.02 3.42-7.59 2.3-25.07 8.57-38.81 13.98-13.74 5.4-26.44 9.8-28.19 9.8-1.74 0-8.21-3.27-25.52-14.55l12.76-1.42c7.02-0.79 24.74-3.77 39.35-6.64 14.63-2.89 28.5-5.61 30.84-6.1 2.34-0.47 7.13-1.3 10.64-1.85 3.51-0.56 9.72-1.66 13.82-2.47 4.11-0.81 8.72-1.62 10.3-1.77 1.55-0.17 5.7-2.68 9.21-5.61 4.57-3.81 6.85-8.04 7.99-14.89 1.32-7.74 0.79-11.17-2.82-17.95-2.58-4.83-7.64-10.04-11.92-12.25-4.1-2.13-11.27-4.45-15.95-5.15-4.68-0.7-10.89-1.26-13.82-1.23-2.92 0.02-7.47 0.61-10.11 1.29-3.38 0.9-4.78 0.32-4.78-1.93q0-3.19-5.28-2.66c-3.78 0.38-5.29-0.51-5.31-3.19-0.03-2.04-1.49-3.72-3.24-3.72-1.74 0-3.19-0.47-3.19-1.07 0-0.57 0.96-2.98 2.13-5.32 1.17-2.33 1.4-4.29 0.53-4.33-0.87-0.07-2.79 1.38-4.25 3.19-1.47 1.78-4.11 2.8-5.85 2.21-1.96-0.66-2.79-2.7-2.13-5.32 0.79-3.13 0.11-4.1-2.57-3.72-2.22 0.32-3.96-1.15-4.43-3.72-0.47-2.41 0.66-4.94 2.58-5.85 1.85-0.87 3.36-2.56 3.36-3.72 0-1.17-0.96-1.64-2.13-1.07-1.17 0.6-2.74-0.13-3.49-1.59-0.76-1.49 0.85-4.26 3.72-6.34 2.79-2.02 3.9-3.7 2.43-3.72-1.47-0.03-3.13-1.47-3.72-3.24-0.71-2.1 1.27-4.17 12.76-8.91l-4.68-4.04c-3.23-2.81-4.11-5.04-2.83-7.25 1.15-2 3.06-2.6 5.19-1.6 1.91 0.89 4.08 0.55 4.98-0.81 0.91-1.38 0-3.21-2.13-4.25-2.04-1.02-3.23-2.81-2.66-3.98 0.6-1.17 3.47-1.64 6.38-1.06 4.53 0.91 5.32 0.27 5.32-4.26 0-3.23 1.04-5.02 2.66-4.57 1.47 0.43 3.61 2.47 4.78 4.53 1.54 2.7 1.39 4-0.53 4.57-1.47 0.43-2.66 1.75-2.66 2.92 0 1.17 1.75 2.13 3.9 2.13 2.14 0 4.55-0.47 5.31-1.07 0.79-0.57 0.02-4.17-1.7-7.97-1.72-3.81-2.53-7.64-1.78-8.51 0.76-0.87 3.12-1.6 5.27-1.6 3.19 0 3.51-0.76 1.77-4.25-1.17-2.34-2.13-4.49-2.11-4.79 0-0.29 3.83-0.29 8.51 0 7.25 0.45 8.48-0.08 8.48-3.72 0-3.19 1.07-3.98 4.26-3.19 2.34 0.6 4.27 2.26 4.29 3.72q0.05 2.6 1.9-0.53c1.02-1.74 1.25-4.95 0.49-7.12-1.22-3.54-0.77-3.71 4.49-1.6 3.21 1.28 6.33 2.34 6.91 2.34 0.59 0 1.06-2.38 1.06-5.32 0-3.32 1.21-5.31 3.19-5.31 1.75 0 3.68 1.44 4.26 3.19 0.59 1.76 2.51 3.19 4.25 3.19 1.74 0 3.68-2.39 4.3-5.32 0.59-2.92 1.74-5.32 2.53-5.32 0.81 0 3.08 3.11 8.63 13.83l3.45-5.85c2.08-3.55 4.68-5.43 6.61-4.79 1.75 0.6 2.73 2.51 2.13 4.26-0.83 2.51 0.19 2.91 4.79 1.91 4.85-1.06 6.1-0.45 7.33 3.72 1.43 4.83 1.64 4.87 5.85 1.28 4.19-3.58 4.49-3.53 7.58 1.06 1.76 2.64 3.19 5.98 3.19 7.45-0.03 1.83 3.12 2.48 20.18 1.59l-0.53 7.98c-0.53 7.93-0.49 7.97 6.15 6.38 5.95-1.43 6.57-1.13 5.72 2.66-0.53 2.34-2.09 4.02-3.49 3.72-1.38-0.3-2.53 0.91-2.53 2.66 0 1.76 0.96 3.19 2.13 3.19 1.16 0 2.61-0.96 3.19-2.13 0.59-1.17 3.46-2.13 6.38-2.13 3.31 0 5.31 1.22 5.31 3.2 0 1.76-0.72 3.21-1.59 3.25-0.87 0.04-3.28 2.42-5.32 5.32-3.59 5.08-3.57 5.25 0.53 5.25 2.34 0 3.79-0.96 3.19-2.13-0.57-1.17 1.09-2.97 3.73-4 3.59-1.4 5.23-0.99 6.59 1.6q1.79 3.47-1.47 6.66c-2.95 2.87-2.74 3.57 1.92 6.91 2.85 2.04 6.14 3.72 7.31 3.72 1.17 0 2.15 0.73 2.17 1.6 0.02 0.87-1.19 2.72-2.66 4.12-2.17 2.02-1.95 3.17 1.02 5.85 2.05 1.83 3.26 4.77 2.66 6.51-0.57 1.77-2.59 3.43-4.44 3.72-2.89 0.45-2.75 1.32 1.02 5.85 2.42 2.94 3.96 6.04 3.38 6.92-0.55 0.87-3.4 1.59-6.34 1.59-2.91 0-5.34 0.72-5.36 1.6-0.02 0.87 1.19 2.83 2.66 4.34 2.19 2.21 1.3 2.61-4.74 2.12-6.49-0.53-7.45 0-7.45 4.17 0 2.98-1 4.38-2.66 3.72-1.46-0.59-3.61 1.32-4.78 4.26-1.57 3.93-3.09 4.91-5.85 3.78-2.04-0.85-8.51-1.53-14.36-1.51-5.85 0-13.01 0.47-15.95 1.02-2.91 0.56-8.91 3.15-13.29 5.77-4.87 2.91-9.32 7.87-11.4 12.74-2.32 5.38-3 10.91-2.13 17.01 0.72 4.98 2.98 10.77 5.02 12.89 2.04 2.13 7.55 4.66 12.23 5.64 4.68 0.98 9.95 2.04 11.7 2.38 1.74 0.32 6.53 1.22 10.63 1.98 4.11 0.77 10.08 1.79 13.3 2.28 3.21 0.49 8.48 1.32 11.69 1.85 3.22 0.53 15.91 2.91 28.19 5.31 12.29 2.39 28.04 4.95 29.85 5.18"/>
		<path id="Path 2" class="s1" d="m114.65 18.96c-6.43 2.07-16 5.98-21.27 8.68-5.26 2.68-13.34 7.87-17.96 11.51-4.61 3.66-12.57 12.38-17.67 19.4-5.4 7.4-11.06 18.56-13.47 26.58-2.29 7.62-4.14 14.06-4.12 14.36 0.02 0.3 1.96 0.53 4.29 0.53 2.34 0 4.75-0.96 5.32-2.13 0.6-1.17 3.24-3.1 5.85-4.29 2.64-1.19 8.4-4.79 12.83-7.98 4.4-3.19 9.23-8.21 10.67-11.12 1.81-3.62 4.68-5.49 9-5.87 3.68-0.32 9-3.24 12.7-6.96 3.87-3.87 8.49-6.36 11.7-6.27 3.23 0.08 6.72-1.77 8.85-4.72 2.93-4.09 4.17-4.49 7.44-2.41 3.19 2.04 4.7 1.75 8.17-1.66 4.23-4.14 4.29-4.14 10.1 0.15 5.66 4.19 6.08 4.21 12.34 0.62l6.46-3.72c10.53 12.42 12.62 13.4 17.89 12.44 5.23-0.94 7.45 0.04 12.23 5.42 4.09 4.62 7.79 6.6 12.23 6.6 3.51 0 7.83 1.42 9.57 3.19 1.77 1.76 3.19 4.38 3.19 5.85 0 1.46 3.58 5.53 7.92 9.04 4.34 3.51 10.57 8.06 13.82 10.1 3.26 2.04 7.36 3.72 9.11 3.72 2.44 0 2.91-1.64 1.97-6.91-0.68-3.81-3.46-11.7-6.19-17.55-2.72-5.85-10.08-16.31-16.31-23.25-6.25-6.91-17.12-16.29-24.14-20.82-7.02-4.53-18.97-10.12-26.59-12.44-9.85-3-19.61-4.15-34.03-4.04-13.17 0.1-24.27 1.49-31.9 3.95zm148.82 57.77"/>
	</g>
</svg>