<svg version="1.2" xmlns="http://www.w3.org/2000/svg" viewBox="0 0 297 297" width="297" height="297">
	<style>
		.s0 { fill: #113514 } 
		.s1 { fill: #f6a411 } 
		.s2 { fill: #3d4d23 } 
		.s3 { fill: #617126 } 
	</style>
	<path id="Path 1" fill-rule="evenodd" class="s0" d="m143.85 57.5c6.96 0.2 13.78 0.57 15.15 0.82 1.38 0.25 4.07 0.75 6 1.12 1.93 0.36 6.09 1.31 9.25 2.11 3.16 0.8 6.54 1.84 7.5 2.33 0.96 0.48 5.35 2.62 9.75 4.75 4.4 2.13 8.11 4.21 8.25 4.62 0.14 0.41 0.7 0.75 1.25 0.75 0.55 0 2.52 1.01 4.37 2.25 1.85 1.24 5.55 4.05 8.23 6.25 2.67 2.2 6.45 5.58 8.4 7.5 1.95 1.92 4.65 5 6.02 6.84 1.36 1.83 2.94 3.86 3.51 4.5 0.57 0.64 2.14 2.74 3.49 4.66 1.35 1.92 4.62 7.78 7.27 13 2.65 5.22 5.29 11.3 5.87 13.5 0.58 2.2 1.26 4.9 1.52 6 0.26 1.1 0.64 3.13 0.83 4.5 0.19 1.38 0.65 4.53 1.01 7 0.36 2.47 0.65 8.78 0.65 14 0 5.22-0.3 11.53-0.67 14-0.37 2.47-0.8 5.4-0.96 6.5-0.16 1.1-0.38 2-0.49 2-0.11 0-0.39 0.79-0.63 1.75-0.23 0.96-0.57 2.31-0.74 3-0.18 0.69-1.09 3.05-2.03 5.25-0.93 2.2-1.69 4.34-1.67 4.75 0.01 0.41-0.95 2.66-2.13 5-1.18 2.34-3.1 5.58-4.25 7.21-1.16 1.63-2.9 3.88-3.87 5-0.97 1.12-1.76 2.38-1.75 2.79 0.01 0.41 1.59 0.75 3.52 0.75 1.93 0 4.74 0.15 6.25 0.34 1.51 0.18 6.35 0.65 10.75 1.04 4.4 0.38 9.57 0.9 11.5 1.15 1.93 0.25 5.3 0.67 7.5 0.93 2.2 0.27 5.8 0.72 8 1.01 2.2 0.29 5.13 0.76 6.5 1.05 1.38 0.29 2.73 0.76 3 1.05 0.27 0.28-2.87 0.3-7 0.03-4.12-0.27-19.65-0.78-34.5-1.14-14.85-0.36-27.08-0.72-27.18-0.8-0.1-0.09 1.93-2.46 4.5-5.26 2.57-2.81 5.36-5.96 6.18-7 0.82-1.05 2.38-3.25 3.45-4.9 1.07-1.65 3.16-5.47 4.64-8.5 1.48-3.03 3.28-7.3 4-9.5 0.71-2.2 1.41-4.45 1.55-5 0.13-0.55 0.5-2.13 0.82-3.5 0.32-1.38 0.87-4.07 1.23-6 0.35-1.93 0.61-9.58 0.57-17-0.06-9.94-0.53-14.82-1.79-18.5-0.94-2.75-1.9-6.13-2.13-7.5-0.23-1.38-2.68-7-5.44-12.5-2.76-5.5-5.56-10.88-6.21-11.96-0.66-1.07-1.64-2.49-2.19-3.14-0.55-0.65-1.9-2.42-3-3.94-1.1-1.52-3.57-4.55-5.5-6.74-1.93-2.19-6.87-6.8-11-10.23-4.12-3.43-9.3-7.27-11.5-8.52-2.2-1.24-6.47-3.49-9.5-4.99-3.03-1.5-7.07-3.43-9-4.29-1.93-0.85-4.62-1.77-6-2.04-1.37-0.26-4.53-0.98-7-1.59-2.47-0.61-5.4-1.38-6.5-1.7-1.1-0.32-8.75-0.73-17-0.91-8.25-0.17-16.8 0.07-19 0.56-2.2 0.48-5.12 1.11-6.5 1.4-1.37 0.29-4.41 0.99-6.75 1.56-2.34 0.57-6.39 1.96-9 3.11-2.61 1.14-6.55 2.96-8.75 4.04-2.2 1.08-4.9 2.51-6 3.17-1.1 0.67-4.25 2.76-7 4.66-2.75 1.89-7.18 5.49-9.85 8-2.67 2.5-7.57 8.15-10.88 12.55-3.31 4.4-7.63 11.15-9.59 15-1.97 3.85-4.42 9.25-5.44 12-1.02 2.75-2.06 5.79-2.3 6.75-0.24 0.96-0.69 2.76-0.99 4-0.3 1.24-0.81 3.6-1.14 5.25-0.33 1.65-0.61 8.63-0.63 15.5-0.02 6.88 0.27 14.3 0.63 16.5 0.37 2.2 0.94 5.35 1.26 7 0.32 1.65 1 3.79 1.51 4.75 0.51 0.96 0.7 1.75 0.42 1.75-0.27 0-0.17 0.56 0.23 1.25 0.41 0.69 0.78 1.47 0.83 1.75 0.05 0.28 1.41 3.2 3.02 6.51 1.61 3.3 4.37 8.03 6.13 10.5 1.77 2.47 3.58 4.94 4.03 5.49 0.45 0.55 2.16 2.76 3.79 4.92 1.63 2.15 4.32 4.74 8.97 7.57l-9.5 0.08c-5.22 0.04-16.7 0.25-25.5 0.48-8.8 0.22-18.47 0.64-21.5 0.92-3.02 0.29-6.17 0.08-7-0.46-1.33-0.87-1.33-1 0-1.12 0.83-0.08 2.63-0.26 4-0.39 1.38-0.14 4.53-0.54 7-0.9 2.47-0.36 6.53-0.86 9-1.11 2.47-0.26 6.53-0.66 9-0.91 2.47-0.25 8.1-0.74 12.5-1.08 4.4-0.35 8.11-0.82 8.25-1.06 0.14-0.24-0.35-1-1.08-1.69-0.73-0.69-3.32-4.18-5.76-7.75-2.43-3.57-5.17-8.3-6.08-10.5-0.91-2.2-2-4.9-2.41-6-0.41-1.1-0.9-2.34-1.08-2.75-0.19-0.41-0.34-0.97-0.34-1.25 0-0.28-0.22-0.95-0.5-1.5-0.28-0.55-0.53-1.11-0.58-1.25-0.04-0.14-0.24-0.93-0.44-1.75-0.2-0.82-0.63-2.62-0.95-4-0.32-1.37-0.9-4.3-1.28-6.5-0.38-2.2-0.68-9.17-0.67-15.5 0.01-6.33 0.32-13.53 0.68-16 0.37-2.47 0.91-5.51 1.2-6.75 0.3-1.24 0.73-3.04 0.95-4 0.23-0.96 0.85-2.87 1.38-4.25 0.53-1.37 1-2.72 1.03-3 0.03-0.28 0.34-1.4 0.69-2.5 0.35-1.1 2.63-6.16 5.06-11.25 2.44-5.09 4.88-9.25 5.43-9.25 0.55 0 1-0.45 1-1 0-0.55 0.56-1.63 1.25-2.39 0.69-0.76 2.15-2.67 3.25-4.24 1.1-1.57 4.03-4.88 6.5-7.36 2.48-2.48 5.85-5.64 7.5-7.03 1.65-1.39 6.15-4.6 10-7.15 3.85-2.54 9.7-5.87 13-7.38 3.3-1.51 6.9-3.14 8-3.62 1.1-0.48 2.9-1.05 4-1.26 1.1-0.22 3.24-0.88 4.75-1.48 1.51-0.6 2.75-0.86 2.75-0.59 0 0.28 1.01 0.09 2.25-0.41 1.24-0.49 4.73-1.2 7.75-1.56 3.03-0.36 5.66-0.83 5.85-1.03 0.18-0.2 6.03-0.2 13 0zm-1.14 67.5c0.38 0 1.45 1.46 4.06 6.5l1.62-2.75c0.98-1.67 2.2-2.55 3.11-2.25 0.82 0.28 1.28 1.18 1 2-0.39 1.18 0.09 1.37 2.25 0.9 2.28-0.5 2.87-0.21 3.45 1.75 0.67 2.27 0.77 2.29 2.75 0.6 1.97-1.68 2.11-1.66 3.56 0.5 0.83 1.24 1.5 2.81 1.5 3.5-0.01 0.86 1.47 1.17 9.49 0.75l-0.25 3.75c-0.25 3.73-0.23 3.75 2.89 3 2.8-0.67 3.09-0.53 2.69 1.25-0.25 1.1-0.98 1.89-1.64 1.75-0.65-0.14-1.19 0.43-1.19 1.25 0 0.83 0.45 1.5 1 1.5 0.55 0 1.23-0.45 1.5-1 0.28-0.55 1.63-1 3-1 1.56 0 2.5 0.57 2.5 1.5 0 0.83-0.34 1.51-0.75 1.53-0.41 0.02-1.54 1.14-2.5 2.5-1.69 2.39-1.68 2.47 0.25 2.47 1.1 0 1.78-0.45 1.5-1-0.27-0.55 0.51-1.4 1.75-1.88 1.69-0.66 2.46-0.47 3.1 0.75q0.84 1.63-0.69 3.13c-1.39 1.35-1.29 1.68 0.9 3.25 1.34 0.96 2.89 1.75 3.44 1.75 0.55 0 1.01 0.34 1.02 0.75 0.01 0.41-0.56 1.28-1.25 1.94-1.02 0.95-0.92 1.49 0.48 2.75 0.96 0.86 1.53 2.24 1.25 3.06-0.27 0.83-1.22 1.61-2.09 1.75-1.36 0.21-1.29 0.62 0.48 2.75 1.14 1.38 1.86 2.84 1.59 3.25-0.26 0.41-1.6 0.75-2.98 0.75-1.37 0-2.51 0.34-2.52 0.75-0.01 0.41 0.56 1.33 1.25 2.04 1.03 1.04 0.61 1.23-2.23 1-3.05-0.25-3.5 0-3.5 1.96 0 1.4-0.47 2.06-1.25 1.75-0.69-0.28-1.7 0.62-2.25 2-0.74 1.85-1.45 2.31-2.75 1.78-0.96-0.4-4-0.72-6.75-0.71-2.75 0-6.12 0.22-7.5 0.48-1.37 0.26-4.19 1.48-6.25 2.71-2.29 1.37-4.38 3.7-5.36 5.99-1.09 2.53-1.41 5.13-1 8 0.34 2.34 1.4 5.06 2.36 6.06 0.96 1 3.55 2.19 5.75 2.65 2.2 0.46 4.68 0.96 5.5 1.12 0.82 0.15 3.07 0.57 5 0.93 1.93 0.36 4.74 0.84 6.25 1.07 1.51 0.23 3.99 0.62 5.5 0.87 1.51 0.25 7.48 1.37 13.25 2.5 5.78 1.12 11.18 2.23 12 2.48 0.82 0.24-1.2 0.24-10.5-0.43l5 2.42c4.16 2.01 5.38 2.22 7.27 1.25 1.62-0.84 1.91-1.38 1-1.9-0.8-0.46-0.34-0.76 1.23-0.8 1.98-0.05 2.26 0.21 1.34 1.24-0.63 0.71-2.88 2.27-8.84 5.63l-9-3.5c-4.95-1.93-13.95-4.8-20-6.38-6.05-1.59-11.11-2.68-11.25-2.42-0.14 0.25 0.54 0.87 1.5 1.38 0.96 0.5 7.38 3.04 14.25 5.63 6.88 2.59 13.63 5.07 15 5.5 1.71 0.53 0.05 0.81-5.25 0.86-4.26 0.05-7.86-0.27-8-0.71-0.14-0.43-6.44-3.81-14-7.5-7.56-3.68-13.73-6.36-13.71-5.95 0.02 0.41 2.13 2.32 4.69 4.25 2.56 1.93 6.83 4.85 9.49 6.5 2.66 1.65 4.53 3.34 4.14 3.75-0.38 0.41-2.31 0.74-4.28 0.73-3.13-0.02-4.49-0.96-10.83-7.5-3.99-4.11-7.48-7.37-7.75-7.23-0.28 0.14 0.22 2.05 1.11 4.25 0.89 2.2 2.47 5.24 3.5 6.75 1.04 1.51 1.89 2.98 1.89 3.25 0 0.28-2.02 0.5-4.5 0.5-3.81 0-4.42-0.27-4-1.75 0.28-0.96 0.14-4-1.11-11.75l-2.77 5.5c-1.52 3.03-2.51 6.06-2.19 6.75 0.4 0.87-0.49 1.25-2.93 1.25-1.93 0-3.5-0.22-3.5-0.5 0-0.27 1.72-3.09 3.83-6.25 2.1-3.16 4.24-6.41 4.75-7.22 0.74-1.18 0.59-1.28-0.76-0.5-0.92 0.53-4.63 3.78-8.25 7.22-5.96 5.67-6.97 6.25-15.07 6.22l3.5-2.16c1.93-1.19 6.55-4.45 10.29-7.24 3.73-2.79 6.56-5.29 6.27-5.57-0.28-0.27-5.58 2.13-11.78 5.35-6.21 3.22-12.52 6.71-14.03 7.75-1.96 1.35-4.41 1.88-14.25 1.78l4-1.9c2.2-1.04 9.18-4.04 15.5-6.66 6.32-2.62 10.82-4.92 10-5.11-0.82-0.19-4.43 0.53-8 1.61-3.57 1.08-11.79 4.03-18.25 6.57-6.46 2.54-12.43 4.61-13.25 4.61-0.82 0-3.86-1.54-12-6.84l6-0.67c3.3-0.37 11.63-1.77 18.5-3.12 6.88-1.36 13.4-2.64 14.5-2.87 1.1-0.22 3.35-0.61 5-0.87 1.65-0.26 4.57-0.78 6.5-1.16 1.93-0.38 4.1-0.76 4.84-0.83 0.73-0.08 2.68-1.26 4.33-2.64 2.15-1.79 3.22-3.78 3.76-7 0.62-3.64 0.37-5.25-1.33-8.44-1.21-2.27-3.59-4.72-5.6-5.76-1.93-1-5.3-2.09-7.5-2.42-2.2-0.33-5.12-0.59-6.5-0.58-1.37 0.01-3.51 0.29-4.75 0.61-1.59 0.42-2.25 0.15-2.25-0.91q0-1.5-2.48-1.25c-1.78 0.18-2.49-0.24-2.5-1.5-0.01-0.96-0.7-1.75-1.52-1.75-0.82 0-1.5-0.22-1.5-0.5 0-0.27 0.45-1.4 1-2.5 0.55-1.1 0.66-2.02 0.25-2.04-0.41-0.03-1.31 0.65-2 1.5-0.69 0.84-1.93 1.32-2.75 1.04-0.92-0.31-1.31-1.27-1-2.5 0.37-1.47 0.05-1.93-1.21-1.75-1.04 0.15-1.86-0.54-2.08-1.75-0.22-1.13 0.31-2.32 1.21-2.75 0.87-0.41 1.58-1.2 1.58-1.75 0-0.55-0.45-0.77-1-0.5-0.55 0.28-1.29-0.06-1.64-0.75-0.36-0.7 0.4-2 1.75-2.98 1.31-0.95 1.83-1.74 1.14-1.75-0.69-0.01-1.47-0.69-1.75-1.52-0.33-0.99 0.6-1.96 6-4.19l-2.2-1.9c-1.52-1.32-1.93-2.37-1.33-3.41 0.54-0.94 1.44-1.22 2.44-0.75 0.9 0.42 1.92 0.26 2.34-0.38 0.43-0.65 0-1.51-1-2-0.96-0.48-1.52-1.32-1.25-1.87 0.28-0.55 1.63-0.77 3-0.5 2.13 0.43 2.5 0.13 2.5-2 0-1.52 0.49-2.36 1.25-2.15 0.69 0.2 1.7 1.16 2.25 2.13 0.72 1.27 0.65 1.88-0.25 2.15-0.69 0.2-1.25 0.82-1.25 1.37 0 0.55 0.82 1 1.83 1 1.01 0 2.14-0.22 2.5-0.5 0.37-0.27 0.01-1.96-0.8-3.75-0.81-1.79-1.19-3.59-0.84-4 0.36-0.41 1.47-0.75 2.48-0.75 1.5 0 1.65-0.36 0.83-2-0.55-1.1-1-2.11-0.99-2.25 0-0.14 1.8-0.14 4 0 3.41 0.21 3.99-0.04 3.99-1.75 0-1.5 0.5-1.87 2-1.5 1.1 0.28 2.01 1.06 2.02 1.75q0.02 1.22 0.89-0.25c0.48-0.82 0.59-2.33 0.23-3.35-0.57-1.66-0.36-1.74 2.11-0.75 1.51 0.6 2.98 1.1 3.25 1.1 0.28 0 0.5-1.12 0.5-2.5 0-1.56 0.57-2.5 1.5-2.5 0.82 0 1.73 0.68 2 1.5 0.28 0.83 1.18 1.5 2 1.5 0.82 0 1.73-1.12 2.02-2.5 0.28-1.37 0.82-2.5 1.19-2.5zm-89.55 41.71c4.04 0.25 7.79 0.6 8.34 0.79 0.55 0.19-2.94 0.38-7.75 0.42-4.81 0.04-8.57-0.31-8.34-0.79 0.22-0.48 3.71-0.66 7.75-0.42zm183.34 0.62c3.85 0 5.2 0.18 3 0.4-2.2 0.21-5.35 0.21-7-0.01-1.65-0.22 0.15-0.4 4-0.39zm-185.25 3.51c3.63 0.24 4.77 0.62 3.69 1.22-0.86 0.47-3.23 0.54-5.27 0.15-2.04-0.39-3.7-0.93-3.69-1.21 0.01-0.27 2.38-0.34 5.27-0.16zm189.15-0.84c1.43 0 2.92 0.45 3.31 1 0.42 0.59-0.39 1-2 1-1.49 0-2.98-0.45-3.31-1-0.34-0.56 0.53-1 2-1zm-191.48 5.65c1.42 0.35 2.8 0.81 3.08 1.02 0.28 0.21-0.51 0.37-1.75 0.36-1.24-0.02-2.4 0.53-2.58 1.22-0.17 0.69-0.55 0.24-0.82-1-0.45-1.98-0.2-2.17 2.07-1.6z"/>
	<path id="Path 2" class="s1" d="m140.94 68.69c-0.65 1.55-1.19 7.31-1.21 12.81-0.01 5.5 0.49 12.59 1.12 15.75 0.74 3.71 1.59 5.63 2.4 5.42 0.69-0.18 1.55-2.54 1.91-5.25 0.37-2.71 0.7-8.41 0.75-12.67 0.05-4.26-0.36-10-0.91-12.75-0.55-2.75-1.42-5.25-1.94-5.56-0.51-0.31-1.46 0.7-2.12 2.25zm-21.77 10.56c0.49 2.34 2.29 8.52 4 13.75 1.7 5.22 3.6 10.08 4.21 10.79 0.62 0.72 1.46 1.28 1.87 1.25 0.41-0.02 0.75-0.94 0.75-2.04 0-1.1-1.62-6.61-3.6-12.25-1.98-5.64-4.23-11.49-5-13-0.77-1.51-1.79-2.75-2.27-2.75-0.48 0-0.46 1.88 0.04 4.25zm44.97-2.5c-0.5 0.96-2.31 6.14-4.03 11.5-1.71 5.36-3.11 11.1-3.11 12.75 0 1.65 0.45 3 1 3 0.55 0 1.68-1.58 2.5-3.5 0.82-1.92 2.63-7.89 4.02-13.25 1.38-5.36 2.51-10.31 2.5-11-0.01-0.69-0.46-1.25-0.99-1.25-0.54 0-1.38 0.79-1.89 1.75zm-67.92 5.25c0.27 1.92 2.31 6.65 4.53 10.5 2.21 3.85 6.1 9.36 8.64 12.25 2.53 2.89 5.06 5.25 5.61 5.25 0.55 0 1-0.67 1-1.5 0-0.83-1.18-3.86-2.62-6.75-1.44-2.89-4.54-7.95-6.9-11.25-2.35-3.3-5.73-7.35-7.51-9l-3.24-3zm87.7 3.25c-2.26 2.89-5.82 8.4-7.91 12.25-2.09 3.85-4.07 8.01-4.4 9.25-0.44 1.6-0.19 2.25 0.88 2.25 0.83 0 3.53-2.59 6.01-5.75 2.47-3.16 6.02-8.67 7.88-12.25 1.86-3.58 3.55-7.51 3.76-8.75 0.22-1.32-0.14-2.25-0.87-2.25-0.68 0-3.09 2.36-5.35 5.25zm-106.34 12.73c-0.32 0.56 1.1 2.49 3.16 4.28 2.07 1.79 6.45 5.32 9.75 7.83 3.3 2.51 7.45 5.43 9.22 6.49 1.77 1.06 3.57 1.56 4 1.12 0.43-0.44 0.29-1.57-0.31-2.5-0.6-0.94-3.97-4.05-7.5-6.92-3.52-2.88-8.95-6.6-12.07-8.27-3.42-1.85-5.89-2.65-6.25-2.03zm123.91 2.98c-2.75 1.62-7.89 5.33-11.42 8.25-3.53 2.91-6.57 5.85-6.75 6.54-0.18 0.69 0.57 1.25 1.67 1.25 1.1 0 6.58-3.71 12.17-8.25 5.59-4.54 10.26-8.81 10.37-9.5 0.11-0.69-0.08-1.25-0.42-1.24-0.34 0-2.87 1.33-5.62 2.95zm-72.5 8.93c-3.02 0.97-7.52 2.81-10 4.08-2.47 1.26-6.27 3.7-8.44 5.41-2.17 1.72-5.91 5.82-8.31 9.12-2.54 3.48-5.2 8.73-6.33 12.5-1.08 3.58-1.95 6.61-1.94 6.75 0.01 0.14 0.92 0.25 2.02 0.25 1.1 0 2.23-0.45 2.5-1 0.28-0.55 1.52-1.46 2.75-2.02 1.24-0.56 3.95-2.25 6.03-3.75 2.07-1.5 4.34-3.86 5.02-5.23 0.85-1.7 2.2-2.58 4.23-2.76 1.73-0.15 4.23-1.52 5.97-3.27 1.82-1.82 3.99-2.99 5.5-2.95 1.52 0.04 3.16-0.83 4.16-2.22 1.38-1.92 1.96-2.11 3.5-1.13 1.5 0.96 2.21 0.82 3.84-0.78 1.99-1.95 2.02-1.95 4.75 0.07 2.66 1.97 2.86 1.98 5.8 0.29l3.04-1.75c4.95 5.84 5.93 6.3 8.41 5.85 2.46-0.44 3.5 0.02 5.75 2.55 1.92 2.17 3.66 3.1 5.75 3.1 1.65 0 3.68 0.67 4.5 1.5 0.83 0.83 1.5 2.06 1.5 2.75 0 0.69 1.68 2.6 3.72 4.25 2.04 1.65 4.97 3.79 6.5 4.75 1.53 0.96 3.46 1.75 4.28 1.75 1.15 0 1.37-0.77 0.93-3.25-0.32-1.79-1.63-5.5-2.91-8.25-1.28-2.75-4.74-7.67-7.67-10.93-2.94-3.25-8.05-7.66-11.35-9.79-3.3-2.13-8.92-4.76-12.5-5.85-4.63-1.41-9.22-1.95-16-1.9-6.19 0.05-11.41 0.7-15 1.86zm-67.9 3.04c-0.05 0.59 1.14 1.91 2.65 2.94 1.52 1.03 5.68 3.35 9.25 5.14 3.58 1.8 8.98 4.11 12 5.15 3.03 1.03 6.74 1.86 8.25 1.86 1.52-0.01 2.75-0.47 2.75-1.02 0-0.55-1.8-2.13-4-3.5-2.2-1.38-7.71-4.01-12.25-5.86-4.53-1.84-9.82-3.68-11.75-4.07-1.92-0.4-4.24-0.94-5.15-1.21-0.91-0.27-1.7-0.01-1.75 0.57zm156.9 0.5c-2.47 0.72-6.3 1.98-8.5 2.8-2.2 0.83-7.04 3.03-10.77 4.89-3.73 1.86-6.99 4.05-7.26 4.88-0.27 0.83-0.23 1.72 0.08 2 0.31 0.28 3.35-0.26 6.76-1.19 3.41-0.92 9.79-3.32 14.19-5.33 4.4-2 9.24-4.5 10.75-5.56 1.52-1.06 2.75-2.37 2.75-2.92 0-0.55-0.78-0.97-1.75-0.93-0.96 0.03-3.77 0.65-6.25 1.36zm-161.5 20.44c-1.73 0.76-1.47 1.02 2 1.97 2.2 0.6 8.28 1.59 13.5 2.2 5.23 0.62 11.3 0.97 13.5 0.79 2.2-0.18 4-0.78 4-1.33 0-0.55-2.7-1.55-6-2.22-3.3-0.68-10.27-1.46-15.5-1.75-5.22-0.29-10.4-0.14-11.5 0.34zm154 0.19c-2.75 0.46-6.48 1.1-8.28 1.43-1.81 0.33-3.27 1.03-3.25 1.56 0.02 0.54 4.27 0.94 9.78 0.93 5.37-0.02 11.78-0.47 14.25-1.01 2.48-0.54 5.52-1.21 6.75-1.48 1.24-0.27 2.25-0.94 2.25-1.49 0-0.6-3.33-0.95-8.25-0.88-4.53 0.06-10.5 0.49-13.25 0.94z"/>
	<path id="Path 3" fill-rule="evenodd" class="s2" d="m75.5 147.5v15.5l-3 0.46c-1.65 0.25-8.4 0.74-27 1.69l-0.25-7.57c-0.14-4.32 0.18-7.8 0.75-8.08 0.55-0.28 2.69-0.56 4.75-0.63 2.06-0.08 5.33 0.45 7.25 1.16 3.2 1.18 3.69 1.1 5.81-0.92 1.84-1.77 3.25-2.15 11.69-1.61zm145.43-0.52c0.86-0.01 3.14 1.1 5.07 2.47 3.25 2.29 3.7 2.37 6.25 1.01 1.51-0.8 4.66-1.35 11.25-0.96l0.5 15.5-7.25-0.13c-3.99-0.07-10.63-0.45-14.75-0.84-4.13-0.39-6.04-0.78-4.25-0.87q3.24-0.16 2.75-1.41c-0.27-0.69-0.64-4.29-0.82-8-0.27-5.61-0.06-6.75 1.25-6.77zm31.79 13.52c0.22 1.65 0.22 4.8 0.01 7-0.22 2.2-0.4 0.85-0.4-3-0.01-3.85 0.17-5.65 0.39-4zm-192.72 5.82c5.77 0 11.85 0.34 13.5 0.74 2.38 0.58 2.54 0.76 0.75 0.84-1.53 0.07-2.09 0.58-1.75 1.6 0.42 1.25 0 1.33-2.5 0.5-1.65-0.55-3.23-1-3.5-1-0.28 0-3.09-0.08-6.25-0.17-5.18-0.15-5.35-0.22-1.75-0.71 3.71-0.5 3.53-0.59-2.5-1.17-5.63-0.55-5.09-0.63 4-0.63zm171.5 0.03c8.61-0.02 9.17 0.07 4 0.65-3.3 0.36-4.69 0.74-3.08 0.83 1.6 0.09 2.73 0.35 2.5 0.57-0.23 0.22-3.68 0.67-7.67 1-3.99 0.33-7.7 0.82-8.25 1.1-0.55 0.28-1 0.05-1-0.5 0-0.55 0.56-1.19 1.25-1.42 0.69-0.23 0.12-0.51-1.25-0.62-2.34-0.18-2.31-0.24 0.5-0.9 1.65-0.38 7.5-0.7 13-0.71zm2.21 3.77c0.12-0.07 0.01 0.33-0.25 0.88-0.25 0.55-0.01 1 0.54 1 0.55 0 1 0.34 1 0.75 0 0.41-4.03 1.86-8.96 3.22-4.93 1.35-9.21 2.81-9.5 3.25-0.3 0.43-1.33 0.76-2.29 0.74q-1.78-0.03 1.25-1.65c1.65-0.88 3.36-1.9 3.8-2.27 0.44-0.37 1.34-0.96 2-1.32 0.66-0.36-0.6-0.38-2.8-0.05-2.2 0.33-3.77 0.32-3.5-0.01 0.27-0.34 1.51-0.85 2.75-1.14 1.24-0.28 3.26-0.77 4.5-1.08 1.24-0.3 4.27-0.92 6.75-1.38 2.48-0.45 4.6-0.88 4.71-0.94zm2.54-0.16c0.69-0.03 1.93 0.73 2.75 1.68 1.35 1.56 1.33 1.67-0.25 1.05-0.96-0.38-2.2-0.69-2.75-0.69-0.55 0-1-0.45-1-1 0-0.55 0.56-1.02 1.25-1.04zm-174.25 1.68c3.02 0.31 6.51 0.96 7.75 1.46 1.24 0.49 3.49 1.13 5 1.41 1.51 0.29 2.97 0.75 3.25 1.03 0.28 0.28-0.44 0.5-1.58 0.49-1.15-0.02-2.41 0.31-2.8 0.72-0.4 0.41 1.67 1.97 4.58 3.45 2.92 1.49 4.62 2.73 3.8 2.77-0.83 0.03-1.95-0.39-2.5-0.94-0.55-0.56-1.9-1.2-3-1.42-1.1-0.23-4.47-1.4-7.5-2.59-3.03-1.19-7.64-2.58-10.25-3.09-2.61-0.51-4.84-1.34-4.95-1.85-0.11-0.5 0.45-1.16 1.25-1.45 0.8-0.3 3.92-0.29 6.95 0.01zm178.75 4.07c1.1 0.29 2.06 0.92 2.13 1.41 0.06 0.48-0.33 0.66-0.88 0.38-0.55-0.28-1-0.05-1 0.5 0 0.55-0.79 1.83-1.75 2.84-0.96 1.01-4 2.91-6.75 4.21-2.75 1.31-7.26 3.75-10.03 5.42-2.76 1.66-7.4 4.83-10.3 7.03-2.91 2.2-6.61 5.24-8.23 6.75-1.62 1.51-3.16 2.75-3.44 2.75-0.28 0-2.64 2.09-5.25 4.65-4.45 4.36-5.01 4.62-8.75 4.05-2.2-0.33-4.9-0.81-6-1.07-1.1-0.26-3.13-0.51-4.5-0.55-2.26-0.06-1.94-0.58 3.5-5.54 3.3-3.02 6.34-5.27 6.75-5.01 0.41 0.26 0.75 0.02 0.75-0.53 0-0.55 2.14-2.45 4.75-4.23 2.61-1.78 5.54-4.03 6.5-5 0.96-0.97 2.65-1.77 3.75-1.77 1.1 0 2-0.45 2-1 0-0.55 2.36-2.28 5.25-3.85 2.89-1.56 6.82-3.42 8.75-4.12 1.93-0.7 5.52-2.18 8-3.3 2.48-1.11 5.74-2.07 7.25-2.13 1.51-0.05 2.75-0.44 2.75-0.85 0-0.41 0.68-0.53 1.5-0.25 0.82 0.28 1.44 0.09 1.38-0.41-0.07-0.49 0.77-0.67 1.87-0.38zm-187.61 1.78c0.35 0.55 1.14 0.67 1.75 0.26 0.61-0.41 1.11-0.41 1.11 0 0 0.41 1.01 0.8 2.25 0.86 1.24 0.06 4.05 0.91 6.25 1.89 2.2 0.98 7.83 3.58 12.5 5.77 4.68 2.2 11.2 5.78 14.5 7.97 3.3 2.18 6.11 4.37 6.25 4.86 0.14 0.5 0.7 0.9 1.25 0.9 0.55 0 3.88 2.36 7.39 5.25 3.52 2.89 6.41 5.7 6.43 6.25 0.02 0.55 0.85 1.34 1.86 1.76 1.36 0.58 1.13 0.7-0.91 0.5-1.5-0.14-2.74 0.08-2.75 0.49-0.01 0.41-2.61 1.16-5.77 1.67-5.74 0.91-5.76 0.91-9.75-2.79-2.2-2.04-6.7-5.97-10-8.73-3.3-2.76-8.92-7.07-12.5-9.59-3.57-2.51-8.97-5.81-12-7.32-3.02-1.51-5.83-3.26-6.23-3.87-0.41-0.63-0.74-0.68-0.74-0.12 0 0.55-0.57 0.14-1.26-0.9-0.89-1.33-1.72-1.63-2.77-1.01-1.08 0.64-1.29 0.54-0.75-0.35 0.47-0.77 0.18-1.24-0.75-1.24-0.98 0-1.25-0.5-0.77-1.44 0.4-0.79 1.64-1.59 2.75-1.77 1.11-0.17 2.31 0.14 2.66 0.7zm158.36 2.58c0.55-0.01-1.36 1.31-4.25 2.95-2.89 1.64-5.47 2.76-5.75 2.48-0.28-0.28 1.64-1.6 4.25-2.95 2.61-1.35 5.2-2.47 5.75-2.48zm27.1 7.53c0.91 0.26 1.19 1.18 0.81 2.65-0.32 1.24-1.94 5.18-3.6 8.75-1.65 3.57-4.43 7.82-6.16 9.43-1.73 1.61-2.47 2.56-1.65 2.1 0.82-0.46-0.07 0.9-2 3.01-1.93 2.11-4.06 4.43-4.75 5.15-0.9 0.95-2.98 1.14-7.5 0.69-3.44-0.33-7.15-0.75-8.25-0.91-1.1-0.17-2.75-0.34-3.67-0.39-1.35-0.06-1.16-0.62 1-2.87 1.47-1.54 5.03-5.36 7.92-8.5 2.89-3.14 5.48-5.71 5.75-5.71 0.27 0 3.87-2.47 8-5.5 4.12-3.03 7.51-5.16 7.52-4.75 0 0.41 0.36 0.3 0.78-0.26 0.42-0.56 1.58-1.52 2.58-2.15 1.01-0.62 2.45-0.95 3.22-0.74zm-185.6 0.51c0.27-0.02 2.2 0.95 4.27 2.17 2.08 1.22 3.75 2.67 3.72 3.22-0.02 0.55 0.3 0.67 0.73 0.27 0.43-0.39 3.03 1.17 5.78 3.49 2.75 2.32 5.34 4.78 5.75 5.48 0.41 0.69 1.31 1.28 2 1.3 0.69 0.02 3.14 2.16 5.45 4.75 2.58 2.9 4.03 5.38 3.75 6.46q-0.45 1.75 1.3 1.79c1.56 0.04 1.59-0.12 0.25-1.54-0.83-0.87-1.05-1.58-0.5-1.58 0.55 0.01 1.9 0.94 3 2.08 1.1 1.14 1.55 2.12 1 2.19-0.55 0.07-2.13 0.23-3.5 0.36-1.38 0.13-5.31 0.51-8.75 0.84-5.79 0.57-6.45 0.42-9-2.02-1.51-1.44-2.08-2.3-1.25-1.89 0.82 0.4 0.15-0.39-1.5-1.76-1.65-1.36-4.45-4.45-6.22-6.85-1.77-2.4-2.93-4.71-2.58-5.12 0.35-0.41 0.11-0.75-0.53-0.75-0.64 0-0.95-0.45-0.67-1 0.27-0.55 0.05-1-0.5-1-0.55 0-1.68-1.35-2.5-3-0.85-1.7-1.19-3.76-0.77-4.75 0.52-1.24 0.37-1.53-0.5-1-0.68 0.41-1.32 0.34-1.43-0.17-0.11-0.5 0.45-1.14 1.25-1.42 0.8-0.28 1.67-0.52 1.95-0.55zm50.13 6.15c2.83 1.78 5.32 3.58 5.51 3.99 0.2 0.41-1.08-0.04-2.84-1-1.77-0.96-3.79-2.31-4.5-3-0.72-0.69-1.75-1.25-2.3-1.25-0.55 0-1.01-0.45-1.02-0.99 0-0.55 2.31 0.47 5.15 2.25zm-2.88 26.15c0.96 0.32 2.99 0.63 4.5 0.69 2.33 0.08 2.45 0.21 0.75 0.8-1.1 0.39-3.8 1.52-6 2.51-2.2 1-4.79 2.21-5.75 2.7-1.11 0.56-1.63 0.52-1.41-0.11 0.21-0.62-0.63-0.59-2.25 0.1-1.43 0.6-3.55 1.16-4.73 1.24-1.19 0.09-1.86-0.27-1.5-0.82 0.38-0.59-0.16-0.72-1.35-0.34-1.45 0.45-1.86 0.24-1.5-0.78 0.27-0.77 0.94-1.41 1.49-1.42 0.55 0 0.32-0.42-0.5-0.93-0.98-0.6 0.22-0.76 3.5-0.47 3.64 0.32 4.46 0.19 3-0.5-1.43-0.68-0.58-0.81 3-0.43 3.67 0.38 4.6 0.24 3.5-0.54-1.11-0.78-0.47-0.91 2.5-0.5 3.19 0.44 3.69 0.32 2.5-0.62-1.29-1.01-1.25-1.09 0.25-0.58zm15.75 0.78q1.43 0.05-0.25 0.43c-0.96 0.21-1.75 0.83-1.75 1.38 0 0.55 1.01 0.75 2.25 0.45 1.93-0.47 2-0.4 0.5 0.5-0.96 0.58-2.2 0.83-2.75 0.55-0.55-0.28-0.98 0.06-0.96 0.75 0.04 1-0.21 1-1.25 0-0.71-0.69-2.19-1.02-3.29-0.73-1.1 0.29-0.2-0.35 2-1.42 2.2-1.07 4.67-1.93 5.5-1.91zm88.5 0.96c0.55-0.07 0.32 0.36-0.5 0.95-1.13 0.8-0.56 0.92 2.25 0.48 2.35-0.36 3.56-0.21 3.25 0.42-0.28 0.55 0.06 1.04 0.75 1.08 1 0.06 1 0.16 0 0.5-0.69 0.23-1.07 0.76-0.86 1.17 0.21 0.41-0.8 0.66-2.25 0.55-1.45-0.11-4.43-1.01-10.6-3.8l3.48-0.62c1.91-0.34 3.93-0.67 4.48-0.73z"/>
	<path id="Path 4" class="s3" d="m213.25 148.47c-1.24 0.84-5.06 1.79-8.5 2.11-3.44 0.32-7.49 1.22-9 2-1.51 0.78-2.75 1.98-2.76 2.67 0 0.69 0.9 2.04 2 3 1.11 0.96 2.06 2.54 2.13 3.5 0.06 0.96 0.06 2.09 0 2.5-0.07 0.41 3.59 0.56 8.13 0.34 4.54-0.23 9.94-0.68 12-1 2.45-0.39 3.57-1.02 3.24-1.84-0.28-0.69-0.63-4.17-0.78-7.75-0.23-5.6-0.54-6.54-2.24-6.78-1.08-0.15-2.98 0.41-4.22 1.25zm-137.3 0.17c-0.28 0.47-0.5 3.88-0.48 7.58 0.02 5.18-0.31 6.8-1.47 7.06-0.83 0.18 3 0.66 8.5 1.06 5.5 0.4 10.3 0.38 10.67-0.05 0.36-0.44 0.97-2.82 1.33-5.29 0.54-3.63 0.32-4.85-1.16-6.3-1.3-1.27-3.89-1.92-8.84-2.23-3.85-0.24-7.23-0.94-7.52-1.56-0.28-0.62-0.75-0.74-1.03-0.27zm105.91 4.9c-1.17 1.34-1.09 1.54 0.64 1.5 1.1-0.02 2.04-0.71 2.08-1.54 0.05-0.83-0.24-1.5-0.63-1.5-0.4 0-1.34 0.7-2.09 1.54zm-107.61 14.04c-1.47 0.27-2.08 0.94-1.75 1.92 0.28 0.83 1.29 1.5 2.25 1.49 0.96 0 5.12 0.89 9.25 1.98 4.12 1.09 7.84 1.99 8.25 2.01 0.41 0.01 0.64-0.99 0.5-2.22-0.14-1.24-1.37-2.78-2.75-3.45-1.38-0.67-4.97-1.42-8-1.68-3.03-0.25-6.51-0.28-7.75-0.05zm130.5 0.52c-2.06 0.5-4.65 1.35-5.75 1.9-1.1 0.55-2 1.9-2 3 0 1.12 0.55 1.84 1.25 1.64 0.69-0.19 4.29-0.98 8.01-1.75 3.72-0.76 6.76-1.73 6.75-2.14 0-0.41 0.89-0.53 1.99-0.25 1.1 0.28 2.68-0.17 3.5-1 1.33-1.33 1.14-1.56-1.75-2.01-1.79-0.28-4.38-0.46-5.75-0.4-1.38 0.06-4.19 0.52-6.25 1.01zm14 6.1c0.53 0.85-0.03 1.06-1.98 0.75-1.5-0.25-2.74-0.11-2.75 0.3-0.01 0.41-0.92 0.53-2.02 0.25-1.1-0.28-2-0.16-2 0.25 0 0.41-1.01 0.79-2.25 0.85-1.24 0.05-4.72 1.29-7.75 2.75-3.03 1.46-7.07 3.8-9 5.19-1.93 1.39-4.06 2.29-4.75 2-0.69-0.3-1.28 0.11-1.31 0.91-0.03 0.8-2.84 2.79-6.25 4.43-3.4 1.63-9.68 5.26-13.94 8.05q-7.75 5.07-7.5 6.75c0.14 0.92 1.71 2.27 3.5 3 3.14 1.28 3.51 1.15 11-3.78 4.26-2.81 9.5-6.74 11.65-8.75 2.14-2.01 3.57-2.97 3.17-2.15-0.39 0.82 0 0.6 0.87-0.5 0.88-1.1 1.59-1.55 1.59-1 0 0.55 0.43 0.32 0.95-0.5 0.52-0.82 1.3-1.52 1.73-1.54 0.44-0.02 2.25-0.81 4.04-1.75 1.79-0.94 3.25-2.16 3.25-2.71 0-0.55 0.45-0.78 1-0.5 0.55 0.28 1 0.05 1-0.5 0-0.55 1.35-1.68 3-2.5 1.65-0.82 3.56-1.16 4.24-0.75q1.23 0.74 0.5-0.5c-0.41-0.69-0.29-1.36 0.26-1.5 0.55-0.14 1.56-0.25 2.25-0.25 0.69 0 1.93-0.59 2.75-1.32 0.82-0.73 2.18-1.03 3-0.68 0.82 0.35 1.16 0.39 0.75 0.07-0.41-0.31-0.19-1.17 0.5-1.9 0.69-0.73 1.93-1.55 2.75-1.82 1.1-0.37 0.9-0.68-0.75-1.18-1.61-0.48-2.04-0.33-1.5 0.53zm-145.75 0.8q-1.5 0.97-0.25 0.98c0.69 0.01 1.03 0.47 0.75 1.02-0.28 0.55 0.4 1.22 1.5 1.5 1.1 0.28 1.78 0.95 1.5 1.5-0.3 0.6 0.2 0.71 1.25 0.27 1.39-0.58 1.55-0.42 0.76 0.75-0.73 1.09-0.66 1.28 0.25 0.73 0.68-0.41 1.91-0.53 2.74-0.25 0.82 0.28 1.3 0.84 1.06 1.25-0.24 0.41 3.02 2.52 7.25 4.69 4.23 2.17 7.91 4.01 8.19 4.09 0.28 0.08 1.29 0.44 2.25 0.81 0.96 0.36 1.58 1 1.37 1.41-0.21 0.41 0.36 0.75 1.25 0.75 0.9 0 1.52 0.56 1.38 1.25-0.14 0.72 0.28 0.97 1 0.59 0.73-0.38 2.24 0.56 3.61 2.25 1.3 1.6 2.05 2.23 1.68 1.41-0.49-1.06-0.3-1.01 0.64 0.16 0.72 0.91 4.25 3.55 7.82 5.86 5.71 3.7 6.99 4.14 10.5 3.62 2.2-0.33 4.45-1.06 5-1.63 0.67-0.7 0.19-1.8-1.5-3.39-1.38-1.3-6.78-4.86-12-7.91-5.22-3.06-11.07-6.57-13-7.81-1.93-1.23-6.88-4.04-11-6.23-4.13-2.19-9.75-4.76-12.5-5.71-2.9-1.01-6.26-1.49-8-1.15-2.17 0.42-2.8 0.25-2.29-0.61 0.4-0.66 0.62-1.19 0.5-1.18-0.11 0-0.88 0.45-1.71 0.98zm51.61 48.75c-7.09 3.69-12.83 7.06-12.75 7.48 0.08 0.42 1.38 0.77 2.89 0.77 1.51 0 5.45-1.63 8.75-3.62 3.3-1.99 7.8-4.99 10-6.68 2.2-1.68 4.43-3.43 4.95-3.88 0.6-0.52 0.6-0.81 0-0.8-0.52 0.01-6.75 3.04-13.84 6.73zm-4.11-3.63c-3.3 1.13-6.11 2.46-6.25 2.97-0.14 0.5-0.81 0.57-1.49 0.16q-1.23-0.74-0.5 0.5c0.57 0.95 2.34 0.63 7.49-1.39 3.71-1.45 7.18-3.03 7.7-3.5 0.6-0.54 0.6-0.85 0-0.83-0.52 0.02-3.65 0.96-6.95 2.09zm15.25 3.88c-3.71 3.3-6.58 6.34-6.38 6.75 0.2 0.41 1.33 1.09 2.5 1.5 1.17 0.41 1.91 0.41 1.65 0-0.27-0.41 0.45-1.65 1.58-2.75 1.14-1.1 3.34-4.14 4.89-6.75 1.55-2.61 2.75-4.75 2.67-4.75-0.09 0-3.2 2.7-6.91 6zm18.16-5.71c0.03 0.12 3.1 2.55 6.82 5.4 3.72 2.86 8.46 5.89 10.52 6.75 2.06 0.86 4.87 1.56 6.25 1.56 1.37 0 2.5-0.34 2.49-0.75 0-0.41-3.04-2.17-6.75-3.9-3.7-1.74-9.58-4.53-13.06-6.21-3.47-1.68-6.29-2.96-6.27-2.85zm-4.21 2.75c0.31 1.35 1.4 4.15 2.43 6.21 1.03 2.06 2.32 3.75 2.87 3.75 0.55 0 0.78 0.45 0.5 1-0.28 0.55 0.62 1 2 1 1.37 0 2.68-0.56 2.89-1.25 0.22-0.69-2.23-3.93-5.43-7.21-4.67-4.79-5.7-5.48-5.26-3.5zm21.8 1.08c4.4 1.66 12.5 4.52 18 6.36 5.5 1.85 10.45 3.1 11 2.79 0.55-0.32-3.72-2.33-9.5-4.47-5.78-2.15-13.76-4.78-17.75-5.85-3.99-1.07-7.81-1.92-8.5-1.89-0.69 0.03 2.35 1.41 6.75 3.06zm-29.04 3.14c-1.35 3.16-2.24 6.19-1.96 6.74 0.28 0.55 1.62 1 3 1 1.37 0 2.62-0.56 2.77-1.25 0.14-0.69-0.1-3.72-0.54-6.74l-0.8-5.49zm-41.59 2.02c-4.74 1.77-8.98 3.56-9.42 3.97-0.43 0.41 0.52 0.73 2.13 0.7 1.6-0.03 6.41-1.49 10.69-3.25 4.28-1.76 7.43-3.55 7-3.98-0.43-0.43-1-0.75-1.28-0.72-0.27 0.04-4.38 1.51-9.12 3.28z"/>
</svg>