<svg version="1.2" xmlns="http://www.w3.org/2000/svg" viewBox="0 0 555 555" width="555" height="555">
	<style>
		.s0 { opacity: 1;fill: #e7cb59 } 
	</style>
	<g id="Background">
		<path id="Path 3" fill-rule="evenodd" class="s0" d="m277.73 69.76c-0.83 2.06-2.22 7.34-3.09 11.74-0.88 4.4-2.01 13.17-2.52 19.5-0.54 6.77-0.56 15.4-0.05 21 0.51 5.52 1.52 10.44 2.4 11.75 1.09 1.6 2.52 2.25 4.96 2.25 1.88 0 4.13-0.68 5-1.5 0.86-0.82 2.02-3.75 2.57-6.5 0.55-2.75 0.99-10.51 0.98-17.25-0.01-6.74-0.65-16.75-1.43-22.25-0.78-5.5-2.34-12.59-3.48-15.75-1.14-3.16-2.47-5.97-2.96-6.24-0.49-0.27-1.56 1.19-2.38 3.25zm-62.71 16.49c0.01 2.89 0.7 7.95 1.55 11.25 0.84 3.3 2.69 9.6 4.12 14 1.43 4.4 4.56 11.94 6.95 16.75 2.4 4.81 5.48 9.87 6.86 11.25 1.48 1.48 3.65 2.5 5.3 2.5 1.54 0 3.35-0.56 4.02-1.25 0.67-0.69 1.21-2.82 1.21-4.75 0-1.93-0.5-5.07-1.12-7-0.62-1.93-2.26-6.43-3.64-10-1.39-3.58-4.26-9.99-6.39-14.25-2.14-4.26-5.53-10.11-7.56-13-2.02-2.89-4.83-6.5-6.25-8.02-1.41-1.53-3.13-2.76-3.82-2.75-0.84 0.01-1.24 1.74-1.23 5.27zm121.03 1.5c-2.71 3.71-7.4 11.7-10.42 17.75-3.01 6.05-6.65 14.6-8.07 19-1.43 4.4-2.59 9.01-2.58 10.25 0.01 1.24 0.58 3.39 1.27 4.78 0.71 1.43 2.12 2.53 3.25 2.54 1.1 0.01 3.47-1.46 5.27-3.28 1.8-1.81 5.22-7.11 7.61-11.79 2.38-4.68 6.01-13.68 8.07-20 2.44-7.51 3.87-14.01 4.14-18.75 0.37-6.72 0.25-7.25-1.6-7.25-1.31 0-3.69 2.31-6.94 6.75zm-179.56 23.5c0.38 1.24 2.3 4.95 4.27 8.25 1.97 3.3 5.51 8.7 7.85 12 2.35 3.3 7.57 9.82 11.61 14.5 4.03 4.68 9.57 9.98 12.31 11.79 2.73 1.81 6.18 3.27 7.65 3.25 1.47-0.02 3.38-0.72 4.25-1.54 0.86-0.82 1.59-2.74 1.61-4.25 0.03-1.73-1.7-5.15-4.66-9.25-2.59-3.57-7.9-9.83-11.79-13.89-3.9-4.07-10.47-10.08-14.59-13.38-4.13-3.29-9.19-6.82-11.25-7.85-2.06-1.04-4.69-1.88-5.84-1.88-1.71 0-1.97 0.42-1.42 2.25zm237.01 0.64c-2.75 1.58-9.03 6.41-13.96 10.74-4.93 4.33-12.05 11.47-15.83 15.87-3.78 4.4-7.84 9.92-9.04 12.26-1.75 3.42-1.97 4.79-1.15 7 0.8 2.15 1.76 2.81 4.5 3.07 2.8 0.26 4.46-0.44 8.48-3.56 2.75-2.14 8.16-7.46 12.01-11.83 3.86-4.37 9.26-10.97 12-14.68 2.75-3.71 6.69-9.56 8.76-13 2.07-3.44 3.76-6.82 3.75-7.51-0.01-0.69-1.03-1.25-2.27-1.24-1.24 0-4.5 1.3-7.25 2.88zm46.5 43.18c-3.02 0.44-9.32 2.01-14 3.48-4.68 1.47-11.43 4-15 5.63-3.57 1.62-9.2 4.57-12.5 6.55-3.3 1.97-7.91 5.09-10.25 6.93-3.14 2.47-4.25 4.06-4.27 6.09-0.01 1.51 0.56 3.32 1.25 4.02 0.7 0.69 2.73 1.26 4.52 1.25 1.79-0.01 6.74-1.2 11-2.65 4.26-1.45 11.12-4.32 15.25-6.38 4.12-2.07 11.55-6.48 16.5-9.82 4.95-3.33 11.02-7.84 13.5-10.02 2.48-2.17 4.27-4.16 4-4.42-0.27-0.27-1.4-0.7-2.5-0.97-1.1-0.27-4.48-0.13-7.5 0.31zm-330.9 0.54c-0.1 0.49 1.52 2.48 3.6 4.43 2.09 1.95 7.85 6.25 12.8 9.56 4.95 3.3 12.6 7.85 17 10.1 4.4 2.25 11.37 5.29 15.5 6.75 4.95 1.76 9.02 2.56 11.98 2.36 3.61-0.25 4.71-0.79 5.71-2.81 0.99-2.01 0.97-2.89-0.08-4.5-0.72-1.1-3.97-3.88-7.21-6.18-3.25-2.29-9.95-6.2-14.9-8.68-4.95-2.48-13.28-5.94-18.5-7.7-6.21-2.08-12.31-3.36-17.6-3.7-4.45-0.29-8.19-0.12-8.3 0.37zm157.9 2.38c-5.23 0.43-12.43 1.55-16 2.49-3.58 0.93-9.2 2.62-12.5 3.75-3.3 1.13-9.15 3.61-13 5.52-3.85 1.91-10.6 5.84-15 8.73-4.4 2.9-11.77 8.81-16.38 13.14-4.61 4.34-10.92 11.25-14.02 15.38-3.1 4.12-7.74 11.55-10.3 16.5-2.57 4.95-5.87 12.15-7.33 16-1.46 3.85-3.51 10.82-4.57 15.5-1.05 4.68-2.19 13.45-2.54 19.5-0.38 6.71-0.16 14.51 0.58 20 0.67 4.95 1.29 9.45 1.39 10 0.11 0.66-10.35 0.87-30.33 0.63-18.01-0.22-36.64 0.12-45.5 0.81-8.25 0.65-19.05 1.72-24 2.37-8.48 1.12-9.02 1.33-9.3 3.69-0.17 1.37 0.06 2.79 0.5 3.15 0.44 0.36 9.35 0.21 19.8-0.34 13.21-0.7 25.09-0.67 39 0.09 11 0.61 25.62 1.98 32.5 3.04 6.87 1.07 17 2.91 22.5 4.09 5.5 1.18 17.2 4.52 26 7.42 8.8 2.9 23.65 8.71 33 12.92 9.35 4.2 19.7 9.29 23 11.31 3.3 2.03 7.46 4.72 9.25 6 2.72 1.94 3.15 2.76 2.63 5.07-0.34 1.51-1.65 4.55-2.91 6.75-1.26 2.2-3.68 5.35-5.39 7l-3.09 3c-4.26-3.46-11.34-8.16-18.49-12.66-7.15-4.51-18.85-10.99-26-14.39-7.15-3.41-19.08-8.49-26.5-11.3-7.43-2.8-19.13-6.69-26-8.63-6.88-1.95-15.88-4.25-20-5.12-4.13-0.86-11.78-2.18-17-2.93-5.23-0.75-16.48-1.67-25-2.05-8.53-0.39-19.89-0.41-25.25-0.06-8.37 0.55-9.75 0.89-9.76 2.39 0 1.52 1.83 1.93 13.75 3.11 7.57 0.74 18.71 2.38 24.76 3.65 6.05 1.26 15.95 3.72 22 5.47 6.05 1.75 13.47 4 16.5 5 3.02 1 10.45 3.62 16.5 5.81 6.05 2.19 15.72 6.08 21.5 8.64 5.77 2.56 17.02 8.26 25 12.67 7.97 4.4 17.99 10.46 22.25 13.45 4.26 3 7.76 5.79 7.77 6.2 0.01 0.41-5.95 2.65-13.25 4.97-7.3 2.32-15.52 4.76-18.27 5.43l-5 1.21c-9.3-7.8-16.28-13.11-21.5-16.82-5.23-3.72-13.33-9.01-18-11.77-4.68-2.76-11.54-6.53-15.25-8.39-3.71-1.86-11.14-5.13-16.5-7.26-5.36-2.14-13.58-5.09-18.25-6.56-4.68-1.47-12.33-3.52-17-4.55-4.68-1.03-11.32-2.25-14.76-2.69-5.88-0.77-6.26-0.7-6.24 1.18 0.02 1.1 0.63 4.02 1.36 6.5 1.21 4.09 1.73 4.62 5.74 5.79 2.42 0.71 8.67 2.65 13.9 4.32 5.22 1.67 14.67 5.51 21 8.52 6.32 3.02 15.1 7.58 19.5 10.14 4.4 2.57 11.22 6.93 15.15 9.7 3.93 2.77 10.54 7.96 14.68 11.53 4.14 3.57 7.41 6.95 7.26 7.5-0.15 0.55-6.3 2.91-13.68 5.25-7.37 2.34-18.59 5.67-24.91 7.41-6.33 1.73-11.61 3.31-11.75 3.49-0.14 0.19 2.11 2.82 5 5.83l5.25 5.49c44.95-12.95 60.92-17.62 64.5-18.74 3.57-1.12 14.6-4.6 24.5-7.74 9.9-3.13 22.5-7.48 28-9.67 5.5-2.19 12.25-5.25 15-6.8 2.75-1.54 7.41-5.44 10.35-8.66 2.94-3.23 6.65-8.56 8.23-11.86 1.59-3.3 3.62-8.93 4.52-12.5 1.17-4.63 1.52-9.23 1.2-16-0.35-7.27-1.03-10.79-2.92-15-1.36-3.02-4.48-7.67-6.93-10.32-2.45-2.65-6.7-5.92-9.45-7.26-2.75-1.35-6.13-2.45-7.5-2.45-1.49-0.01-3.71 1.24-5.5 3.08-1.65 1.7-4.58 4.04-6.5 5.21-1.93 1.17-5.75 2.71-8.5 3.42-2.75 0.71-7.59 1.3-10.75 1.31-3.16 0-7.21-0.58-9-1.31-1.86-0.76-3.82-2.57-4.59-4.25-0.73-1.61-1.18-4.38-1-6.16 0.3-2.84 0.1-3.14-1.66-2.56-1.1 0.36-3.8 0.93-6 1.27-2.2 0.34-5.13 0.28-6.5-0.14-1.38-0.42-2.81-1.34-3.18-2.05-0.38-0.71-0.28-2.86 0.21-4.79 0.49-1.93 2.49-5.41 4.43-7.75 1.95-2.34 3.43-4.42 3.29-4.63-0.14-0.21-3.18 0.05-6.75 0.57-4.43 0.65-7.38 0.61-9.25-0.12-2.15-0.84-2.75-1.72-2.75-4.07 0-1.91 1-4.03 2.75-5.86 2.07-2.15 4.04-3.01 8-3.5 2.89-0.35 5.26-0.98 5.26-1.39 0.01-0.41-1.68-1.4-3.75-2.2-2.07-0.8-5-2.49-6.51-3.75-1.51-1.27-2.76-3.31-2.78-4.55-0.02-1.24 0.93-3.15 2.11-4.25 1.55-1.45 3.78-2.07 8.03-2.25 4.46-0.19 5.89-0.61 5.89-1.75 0-0.82-0.45-1.5-1-1.5-0.55 0-2.82-1.69-5.05-3.75-2.22-2.06-4.02-4.54-4-5.5 0.03-0.96 1.06-2.38 2.3-3.15 1.24-0.76 5.29-1.66 9-2 3.71-0.33 6.75-1.05 6.75-1.6 0-0.55-1.46-2.07-3.25-3.38-1.79-1.31-3.85-3.68-4.58-5.25-0.74-1.58-1.08-3.88-0.75-5.12 0.34-1.34 1.8-2.66 3.58-3.25 1.72-0.57 5.13-0.68 8.01-0.25 4.13 0.62 5.01 0.49 4.97-0.75-0.03-0.82-0.69-2.63-1.48-4-0.79-1.38-1.47-3.85-1.51-5.5-0.04-1.65 0.56-3.62 1.35-4.39 1.04-1.01 3.15-1.24 7.79-0.86 3.51 0.28 9.07 1.49 12.37 2.68l6 2.16c-1.18-3.56-1.79-6.39-2.1-8.59-0.32-2.2-0.08-5.24 0.51-6.75 0.91-2.3 1.7-2.76 4.84-2.79 2.9-0.03 5.16 0.99 10 4.5l6.25 4.54c-1.06-11.96-0.89-15.29-0.14-16.75 0.72-1.43 2.05-2.25 3.64-2.25 1.37 0 3.85 0.68 5.5 1.5 1.65 0.82 3.91 2.74 5.01 4.25 1.11 1.51 2.17 2.53 2.37 2.25 0.19-0.28 1.16-2.97 2.14-6 1.02-3.12 3.2-6.91 5.04-8.75 1.78-1.79 4.07-3.27 5.09-3.28 1.02-0.02 3.09 0.88 4.6 2 1.51 1.11 3.38 3.27 4.15 4.78 0.77 1.51 1.67 4.44 2 6.5 0.33 2.06 0.82 3.75 1.1 3.75 0.27 0 1.96-1.18 3.75-2.62 1.79-1.45 4.82-3.42 6.75-4.4 1.92-0.97 4.62-1.87 6-1.99 1.37-0.11 3.17-0.18 4-0.13 0.82 0.04 2.33 1.78 3.35 3.86 1.5 3.07 1.7 4.91 1.1 9.78l-0.74 6c5.26-4.08 8.25-5.99 10.04-6.88 1.79-0.89 4.15-1.62 5.25-1.62 1.1 0 2.68 1.01 3.51 2.25 0.95 1.42 1.51 4.65 1.53 8.75l0.02 6.5c10.42-2.72 15.8-3.5 18.69-3.5 2.89 0 5.92 0.22 6.75 0.5 0.92 0.31 1.5 1.75 1.5 3.75-0.01 1.79-0.91 4.71-2 6.5-1.1 1.79-2 4.15-2 5.25 0 1.49 0.44 1.83 1.75 1.33 0.96-0.37 3.77-0.86 6.25-1.08 2.47-0.23 5.51-0.16 6.75 0.17 1.7 0.44 2.25 1.31 2.25 3.58 0 2.11-1.17 4.26-3.96 7.25-2.18 2.34-3.98 4.93-4 5.75-0.03 1.18 1.32 1.5 6.3 1.5q6.33 0 8.04 1.5c0.94 0.82 1.7 2.4 1.69 3.5-0.02 1.1-1.27 3.18-2.8 4.62-1.52 1.44-4.01 3.35-5.52 4.25-1.51 0.9-2.75 2.08-2.75 2.63 0 0.58 3.07 0.99 7.25 0.98 4.54-0.01 7.72 0.46 8.52 1.25 0.69 0.7 1.26 2.51 1.25 4.02-0.02 1.96-1.09 3.62-3.77 5.77-2.06 1.67-5.22 3.58-7.01 4.25-1.8 0.68-3.26 1.57-3.25 1.98 0 0.41 1.47 0.75 3.26 0.76 1.79 0 4.94 0.45 7 1 2.13 0.56 4.63 2.18 5.78 3.74 1.12 1.51 2.02 3.99 2 5.5-0.02 2.31-0.55 2.84-3.28 3.33-1.79 0.32-6.06 0.44-9.5 0.25-3.44-0.18-6.26-0.1-6.27 0.17-0.01 0.27 1.57 2.07 3.51 4 1.94 1.93 4 4.62 4.58 6 0.58 1.37 0.92 3.61 0.74 4.97-0.23 1.86-1.17 2.69-3.81 3.41-2.31 0.62-4.86 0.58-7.5-0.13-2.2-0.6-4.9-1.36-6-1.7-1.76-0.55-1.96-0.24-1.63 2.66 0.23 2-0.36 4.58-1.5 6.56-1.03 1.8-3.22 3.79-4.87 4.42-1.87 0.72-5.65 0.92-10 0.54-3.85-0.33-9.03-1.29-11.5-2.14-2.48-0.84-6.64-3.34-9.25-5.56-3.08-2.61-5.72-4.02-7.5-4.01-1.51 0.01-4.66 0.91-7 2-2.34 1.09-6.39 3.94-9 6.35-2.84 2.6-5.85 6.73-7.47 10.25-1.5 3.23-3.26 9.48-3.91 13.88-1 6.78-0.93 9.22 0.46 16 0.9 4.4 2.95 10.7 4.56 14 1.6 3.3 5.32 8.63 8.26 11.84 4.29 4.68 7.34 6.8 15.35 10.66 5.5 2.65 16.3 7.1 24 9.88 7.7 2.79 24.8 8.48 38 12.65 13.2 4.17 32.21 10.03 42.25 13.03l18.25 5.44 9.83-10.5c-12.66-3.56-21.73-6.35-28.33-8.5-6.6-2.15-14.14-4.6-16.75-5.45-2.61-0.85-4.75-2-4.75-2.55 0-0.55 4.39-4.64 9.75-9.09 5.36-4.45 13.12-10.33 17.25-13.08 4.12-2.75 14.47-8.45 23-12.68 8.52-4.23 21.57-9.7 29-12.17 7.42-2.46 13.8-4.93 14.18-5.48 0.37-0.55 1.18-3.48 1.8-6.5 0.62-3.02 0.99-5.61 0.83-5.75-0.17-0.14-6.39 0.91-13.81 2.34-7.43 1.42-18.9 4.36-25.5 6.52-6.6 2.16-18.3 7.05-26 10.86-7.7 3.81-18.56 9.99-24.14 13.73-5.58 3.74-14.06 9.95-18.86 13.8-4.79 3.85-9.68 7.79-10.86 8.75-2.06 1.67-2.7 1.59-16.64-2.2-7.98-2.17-16.98-4.8-20-5.85l-5.5-1.9c20.15-13.25 32.3-20.25 40-24.1 7.7-3.85 20.75-9.69 29-12.98 8.25-3.28 21.75-8.05 30-10.6 8.25-2.54 19.72-5.78 25.5-7.21 5.77-1.42 16.35-3.44 23.5-4.49 7.15-1.05 14.91-1.91 17.25-1.92 3.38 0 4.25-0.36 4.26-1.75 0.01-1.42-1.26-1.89-6.75-2.49-3.72-0.41-12.39-0.74-19.26-0.74-6.88 0-18.58 0.68-26 1.52-7.43 0.83-17.55 2.36-22.5 3.4-4.95 1.03-15.53 3.76-23.5 6.06-7.98 2.29-20.8 6.66-28.5 9.7-7.7 3.04-18.28 7.53-23.5 9.97-5.23 2.43-13.1 6.52-17.5 9.07-4.4 2.56-11.38 6.85-15.5 9.54l-7.5 4.9c-3.88-3.88-6.24-7.41-7.75-10.34-1.51-2.94-2.75-6.02-2.75-6.84 0-0.82 3.04-3.45 6.75-5.82 3.71-2.38 11.7-6.75 17.75-9.71 6.05-2.96 16.85-7.7 24-10.53 7.15-2.83 18.4-6.68 25-8.55 6.6-1.88 17.62-4.52 24.5-5.87 6.87-1.36 16.1-2.93 20.5-3.49 4.4-0.56 16.1-1.46 26-1.99 9.9-0.53 23.62-0.75 30.5-0.48 6.87 0.26 15.99 0.69 20.25 0.96l7.75 0.48-0.5-6.5c-12.4-1.78-24.33-2.86-34.5-3.54-12.06-0.81-27.47-1.02-44.25-0.6l-25.75 0.64c0.75-5.04 1.48-10.1 2.09-14.5 0.66-4.69 0.85-12.13 0.46-18-0.36-5.5-1.35-13.37-2.21-17.5-0.85-4.12-2.79-10.87-4.32-15-1.52-4.12-4.23-10.43-6.03-14-1.79-3.57-5.07-9.2-7.29-12.5-2.21-3.3-7.05-9.6-10.75-14-3.71-4.4-8.92-9.85-11.59-12.1-2.67-2.26-8.69-6.59-13.36-9.63-4.68-3.04-11.2-6.88-14.5-8.53-3.3-1.66-9.83-4.37-14.5-6.03-4.68-1.66-12.33-3.71-17-4.56-4.68-0.84-13-1.74-18.5-1.99-5.5-0.25-14.28-0.1-19.5 0.33zm32.07 38.76c-1.64 1.51-3.05 3.43-3.14 4.25-0.09 0.82-0.11 2.74-0.05 4.25 0.09 2.14 0.62 2.76 2.37 2.78 1.24 0.01 3.25-1 4.48-2.25 1.22-1.26 2.6-3.63 3.06-5.28 0.46-1.65 0.69-3.79 0.52-4.75-0.17-0.97-1.19-1.75-2.29-1.75-1.09 0-3.32 1.24-4.95 2.75zm-28.42-0.3c-0.36 0.85-0.65 2.9-0.65 4.55 0 2.1 1.06 4.06 3.5 6.5 2.93 2.93 3.75 3.3 5.04 2.25 0.85-0.69 1.54-2.6 1.53-4.25-0.01-1.65-1.05-4.57-2.33-6.5-1.27-1.93-3.24-3.64-4.37-3.8-1.15-0.17-2.36 0.38-2.72 1.25zm-156.15 16.47c-3.3 0.44-7.91 1.31-10.25 1.94-2.34 0.63-4.25 1.36-4.25 1.64 0 0.28 1.46 1.14 3.25 1.92 1.79 0.78 6.62 2.22 10.75 3.2 5.29 1.25 11.77 1.79 22 1.82 11.02 0.05 15.22-0.3 17.5-1.45 1.65-0.83 3.15-2.4 3.33-3.5 0.24-1.47-0.68-2.48-3.5-3.86-3.09-1.51-6.64-1.93-18.33-2.19-7.98-0.17-17.2 0.05-20.5 0.48zm140.32 1.43c-1.16 2.18-1.81 2.42-5.22 1.95-3.32-0.46-4.26-0.15-6.25 2.08-1.88 2.09-2.36 3.77-2.38 8.37-0.02 4.35 0.53 6.59 2.25 9.18 1.25 1.88 4.3 4.5 6.78 5.82 3.19 1.71 5.66 2.3 8.5 2.04 2.45-0.22 5.53-1.51 7.94-3.33 2.16-1.63 4.53-4.42 5.25-6.21 0.72-1.79 1.31-5.05 1.31-7.25 0-2.8-0.75-4.9-2.5-7-1.84-2.21-3.36-3-5.75-3-2.41 0.01-3.51-0.57-4.25-2.24-0.55-1.24-1.76-2.4-2.68-2.58-0.99-0.19-2.23 0.7-3 2.17zm153.97-1.02c-2.04 0.64-4.29 1.96-5 2.92-0.96 1.3-1.01 2.2-0.19 3.5 0.6 0.96 2.62 2.29 4.5 2.95 2.15 0.76 7.27 1.05 13.9 0.8 5.77-0.22 14.44-1.1 19.25-1.95 4.81-0.85 10.66-2.29 13-3.19 3.83-1.49 4.05-1.75 2.25-2.66-1.1-0.55-5.38-1.6-9.5-2.32-4.13-0.72-13.58-1.29-21-1.27-7.44 0.02-15.16 0.57-17.21 1.22zm-98.53 0.92c-0.62 0.69-0.94 1.81-0.7 2.5 0.33 0.94-0.72 1.1-4.19 0.64-4.33-0.57-4.79-0.41-7 2.5-1.72 2.26-2.37 4.4-2.37 7.86 0 2.61 0.79 6.29 1.75 8.18 0.96 1.88 2.87 4.27 4.25 5.3 1.37 1.03 4.07 2.21 6 2.63 1.92 0.42 5.3 0.37 7.5-0.11 2.2-0.48 5.07-1.86 6.38-3.06 1.31-1.2 3.21-3.99 4.23-6.19 1.02-2.2 1.86-5.91 1.87-8.25 0.02-3.41-0.58-4.85-2.98-7.25-1.7-1.7-3.76-2.83-4.75-2.61-0.96 0.21-2.65 0.73-3.75 1.16-1.17 0.45-1.69 0.39-1.25-0.14 0.42-0.5-0.03-1.71-1-2.69-0.96-0.98-2-1.77-2.3-1.75-0.3 0.02-1.06 0.59-1.69 1.28zm-96.04 8.52c-0.9 0.51-1.02 1.47-0.4 3.23 0.48 1.38 2.64 3.95 4.78 5.71 2.15 1.77 5.02 3.4 6.4 3.63 1.37 0.23 3.29 0.24 4.25 0.04 1.19-0.26 1.75-1.33 1.75-3.38 0-1.97-0.97-3.95-2.8-5.75-1.54-1.51-4.36-3.09-6.25-3.51-1.9-0.42-4.13-0.75-4.95-0.74-0.83 0.02-2.08 0.36-2.78 0.77zm127.14 0.64c-1.72 0.76-3.86 2.44-4.76 3.74-0.89 1.29-1.61 3.59-1.61 5.1 0.01 1.51 0.57 3.03 1.26 3.38 0.69 0.34 2.71 0.34 4.5 0 1.79-0.35 5.07-2.32 7.29-4.38 2.97-2.76 3.96-4.41 3.75-6.25-0.24-2.08-0.88-2.54-3.79-2.74-1.93-0.12-4.91 0.39-6.64 1.15zm-239.69 24.84l-3.67 7.75c-10.46 0.97-13.84 1.42-14.25 1.62-0.41 0.21 1.72 2.4 4.75 4.88 3.02 2.48 5.49 5.29 5.49 6.25-0.01 0.96-0.8 4.1-1.75 6.96-0.96 2.87-1.52 5.47-1.24 5.79 0.27 0.32 3.2-1.02 6.5-2.96 3.3-1.94 6.45-3.54 7-3.54 0.55 0 4.04 1.79 7.75 4 3.71 2.2 6.86 3.78 7 3.5 0.14-0.27-0.74-3.76-1.96-7.75l-2.21-7.25c4.98-4.36 7.66-6.39 9.18-7.31 1.52-0.93 2.76-2.03 2.75-2.44 0-0.41-3.61-0.98-8.01-1.25-4.4-0.27-8-0.95-8-1.5 0-0.55-1.09-3.36-2.41-6.25-1.33-2.89-2.6-5.93-2.83-6.75-0.23-0.82-2.07 1.99-4.09 6.25zm352.59-0.06l-3.23 7.31c-7.39 1.17-10.99 1.51-12.78 1.51-1.79-0.01-3.26 0.33-3.26 0.74-0.01 0.41 1.23 1.5 2.75 2.42 1.52 0.92 4.03 2.94 5.57 4.5l2.82 2.83c-2.81 11.2-3.4 14.46-3.13 14.47 0.28 0.01 3.09-1.55 6.25-3.47 3.16-1.93 6.31-3.49 7-3.48 0.69 0.02 4.29 1.82 8 4 3.71 2.19 6.75 3.75 6.75 3.48 0-0.27-0.89-3.76-1.98-7.75l-1.97-7.25c5-4.27 7.69-6.29 9.21-7.25 1.52-0.96 2.76-2.09 2.75-2.5 0-0.41-3.38-0.98-7.51-1.25-6.6-0.44-7.61-0.77-8.41-2.75-0.5-1.24-1.97-4.64-3.25-7.56l-2.34-5.32zm-237.91-4.43c-0.33 0.96-0.37 2.42-0.09 3.25 0.28 0.82 0.89 2.4 1.35 3.5 0.81 1.94 0.77 1.95-1.64 0.24-1.36-0.97-3.49-1.76-4.72-1.75-1.24 0-3.29 0.51-4.57 1.14-1.27 0.62-2.91 2.53-3.65 4.25-0.78 1.79-1.16 5.02-0.89 7.62 0.26 2.55 1.51 5.98 2.91 7.93 1.34 1.9 4.25 4.25 6.45 5.23 2.2 0.99 5.46 1.8 7.25 1.81 1.78 0.02 4.71-0.64 6.5-1.45 1.78-0.81 4.6-2.86 6.25-4.57 2.47-2.56 3.06-4.1 3.37-8.78 0.32-4.93 0.02-6.1-2.25-8.92-1.56-1.93-3.84-3.46-5.62-3.75-1.65-0.28-3.39-1.29-3.87-2.25-0.48-0.97-1.61-2.54-2.5-3.5-0.9-0.97-2.09-1.75-2.66-1.75-0.56 0-1.29 0.78-1.62 1.75zm132.94 5.28c-3.34 3.54-4.32 4.02-8.22 4-3.62-0.03-4.87 0.47-6.79 2.72-1.29 1.51-2.61 4.1-2.92 5.75-0.31 1.65-0.22 4.57 0.2 6.5 0.47 2.15 2.44 5.13 5.1 7.75 2.95 2.89 5.54 4.45 8.09 4.87 2.06 0.34 5.32 0.35 7.25 0.02 1.92-0.34 4.57-1.4 5.88-2.38 1.3-0.97 3.33-3.04 4.5-4.59 1.48-1.97 2.12-4.29 2.12-7.67 0-3.78-0.55-5.43-2.5-7.53-1.38-1.48-3.52-3.09-4.75-3.58-1.52-0.6-2.08-1.46-1.72-2.64 0.3-0.97 0.37-2.99 0.16-4.5-0.21-1.52-0.88-2.75-1.5-2.75-0.61 0-2.82 1.81-4.9 4.03zm-55.04 6.03c-1.44 0.6-3.52 3.65-5.75 8.44-1.93 4.12-3.73 7.5-4 7.5-0.28 0-1.6-1.92-2.94-4.25-1.34-2.34-3.61-5.38-5.05-6.75-2.11-2.03-2.93-2.29-4.31-1.36-0.94 0.62-1.64 2.2-1.57 3.5 0.08 1.29 2.05 5.51 4.38 9.36 2.34 3.85 5.32 9.36 6.62 12.25 2.03 4.49 2.59 5.07 3.91 4 0.85-0.69 1.53-1.7 1.5-2.25-0.02-0.55 2.26-4.83 5.06-9.5 2.81-4.68 5.74-10.08 6.52-12 0.79-1.93 1.42-4.4 1.42-5.5-0.01-1.1-0.58-2.57-1.28-3.27-0.69-0.7-1.49-1.23-1.76-1.19-0.28 0.05-1.52 0.5-2.75 1.02zm16.1 16.19c-1.67 1.78-3.98 4.82-5.12 6.75-1.15 1.92-3.25 7.1-4.68 11.5-1.42 4.4-2.58 9.68-2.57 11.75 0.01 2.33 0.49 3.74 1.27 3.72 0.68-0.01 3.27-1.19 5.75-2.63 2.47-1.44 8.23-5.14 12.79-8.23 6.35-4.3 8.29-6.14 8.25-7.86-0.02-1.24-0.61-2.27-1.29-2.28-0.69-0.02-3.28 0.86-5.75 1.94-3.33 1.45-4.68 1.66-5.17 0.78-0.36-0.66-0.03-3.22 0.74-5.69 0.77-2.48 1.41-6.42 1.42-8.75q0.01-4.26-1.3-4.25c-0.72 0-2.67 1.46-4.34 3.25zm-57.34 2c0.01 2.33 0.58 5.92 1.25 7.97 0.68 2.05 0.9 3.96 0.49 4.25-0.42 0.29-2.89-0.54-5.5-1.83-2.62-1.3-5.32-2.2-6-2-0.69 0.19-1.25 1.26-1.25 2.36 0 1.15 1.91 3.58 4.53 5.75 2.5 2.06 8.46 6.12 13.25 9.02 4.8 2.9 9.28 5.26 9.97 5.25 0.68-0.01 1.47-0.92 1.75-2.02 0.27-1.1-0.22-4.59-1.1-7.75-0.89-3.17-2.83-8.45-4.32-11.75-1.5-3.3-4.15-7.69-5.9-9.75-1.75-2.07-4.08-3.75-5.18-3.75-1.69 0-2 0.66-1.99 4.25zm-30.51 18.41c-0.46 0.37-0.77 1.38-0.69 2.25 0.07 0.87 1.16 2.54 2.41 3.71 1.25 1.17 3.85 2.64 5.78 3.27 2.12 0.69 5.03 0.84 7.38 0.37 2.14-0.42 4.39-1.52 5-2.45 0.88-1.33 0.69-2.14-0.88-3.8-1.1-1.16-3.58-2.54-5.5-3.06-1.93-0.52-5.57-0.94-8.09-0.95-2.52 0-4.95 0.3-5.41 0.66zm120 5c-0.46 0.37-0.76 1.49-0.67 2.5 0.09 1.01 1.29 2.96 2.67 4.34 1.55 1.55 3.63 2.5 5.5 2.5 2.66 0 3-0.34 3-3 0-2.12-0.82-3.61-2.75-5.04-1.52-1.12-3.69-2.02-4.84-2-1.14 0.02-2.45 0.34-2.91 0.7zm-133.5 4.34c-1.1 1.1-1.89 2.78-1.74 3.75 0.15 1.02 1.28 1.87 2.75 2.04 1.39 0.16 3.27-0.5 4.27-1.5 0.98-0.99 1.77-2.81 1.75-4.04-0.03-1.73-0.62-2.25-2.53-2.25-1.38 0-3.4 0.9-4.5 2zm56.98 97.64c-1.37 2-8.56 9.79-15.98 17.32-7.43 7.53-18.23 17.5-24 22.16-5.78 4.66-15.68 12.3-22 16.98-6.33 4.67-15.33 11.14-20 14.37l-8.5 5.86c7.75 3.83 11.57 5.51 13.5 6.2l3.5 1.26c19.37-15.44 28.97-23.83 33.83-28.61 4.87-4.78 12.07-12.51 16.02-17.18 3.95-4.68 8.53-10.3 10.17-12.5 1.64-2.2 4.05-5.57 5.37-7.5 1.32-1.93 4.52-7.67 7.13-12.75 2.6-5.09 4.44-9.25 4.09-9.25-0.36 0-1.77 1.63-3.13 3.64zm21.11 1.55c-0.07 2.92 0.59 9.13 1.46 13.81 0.87 4.67 2.61 12.1 3.87 16.5 1.26 4.4 3.98 12.27 6.04 17.5 2.06 5.22 5.32 12.42 7.25 16 1.92 3.57 6.94 11.78 11.14 18.24 4.93 7.57 8.27 11.74 9.4 11.75 0.96 0 5.08-1.01 9.16-2.24 6.49-1.97 7.27-2.46 6.25-3.89-0.64-0.9-2.53-3.15-4.19-5-1.67-1.85-5.76-6.96-9.09-11.36-3.33-4.4-8.8-12.05-12.15-17-3.35-4.95-9.28-14.85-13.16-22-3.89-7.15-8.38-16.6-9.97-21-1.6-4.4-3.28-9.75-3.75-11.88-0.47-2.13-1.14-4.07-1.5-4.31-0.36-0.24-0.7 1.96-0.76 4.88zm12.51 2.56c1.94 4.26 5.58 11.12 8.09 15.25 2.5 4.12 7.36 11.1 10.8 15.5 3.44 4.4 10.06 12.05 14.72 17 4.66 4.95 13.99 13.72 20.74 19.5 6.74 5.77 12.89 10.83 13.66 11.25 0.83 0.45 4.38-0.75 8.91-3 4.14-2.07 7.5-3.98 7.47-4.25-0.02-0.28-4.87-3.93-10.77-8.13-5.9-4.19-13.83-10.04-17.63-13-3.8-2.95-11.45-9.23-17-13.94-5.55-4.71-13.27-11.69-17.15-15.5-3.87-3.81-10.21-10.76-14.08-15.43-3.87-4.68-7.56-9.52-8.2-10.75-0.64-1.24-1.6-2.25-2.12-2.25-0.53 0 0.62 3.48 2.56 7.75zm8.36-7c0.02 0.68 2.64 3.61 5.82 6.5 3.19 2.88 9.15 7.77 13.25 10.85 4.11 3.08 13.09 8.99 19.97 13.13 6.87 4.14 18.35 10.47 25.5 14.05 7.15 3.59 18.96 9.27 26.25 12.62 7.28 3.35 14.03 6.11 15 6.12 0.96 0.02 4.33-1.78 7.5-4 3.16-2.21 5.75-4.36 5.74-4.77 0-0.42-5.51-2.73-12.25-5.16-6.73-2.42-20.79-7.76-31.24-11.87-10.45-4.11-26.43-11.04-35.5-15.41-9.08-4.36-21-10.68-26.5-14.04-5.5-3.36-10.8-6.82-11.79-7.69-1.24-1.1-1.77-1.2-1.75-0.33zm-65.46 7.84c-4.95 3.02-15.75 8.78-24 12.81-8.25 4.03-21.75 10.03-30 13.33-8.25 3.31-24.23 9.03-35.5 12.72-11.28 3.69-21.18 6.92-22 7.19-1.17 0.37-0.95 0.9 1 2.39 1.37 1.06 4.75 3.51 7.5 5.46l5 3.54c29.45-12.52 43.85-19.2 51-22.93 7.15-3.74 17.05-9.29 22-12.34 4.95-3.05 12.6-8.23 17-11.51 4.4-3.27 10.47-8.26 13.5-11.08 3.02-2.81 5.05-5.11 4.5-5.09-0.55 0.02-5.05 2.5-10 5.51zm32.09 2.66c-1.54 4.53-5.38 13.2-8.51 19.25-3.14 6.05-8.25 14.82-11.36 19.5-3.11 4.67-9.43 13.22-14.04 19-4.61 5.77-11.64 14.1-15.63 18.5l-7.25 8c12.17 3.5 16.37 4.51 17.2 4.52 0.82 0 4.65-4.16 8.5-9.24 3.85-5.08 8.95-12.17 11.34-15.76 2.39-3.59 5.82-9.45 7.64-13.02 1.81-3.58 4.5-9.43 5.96-13 1.47-3.58 4-11.57 5.62-17.75 1.61-6.19 3.21-15.08 3.54-19.75 0.33-4.68 0.42-8.5 0.21-8.5-0.22 0-1.67 3.71-3.22 8.25z"/>
	</g>
</svg>