<svg version="1.2" xmlns="http://www.w3.org/2000/svg" viewBox="0 0 554 554" width="554" height="554">
	<style>
		.s0 { fill: #1c3f1f } 
		.s1 { fill: #4a6a29 } 
		.s2 { fill: #e22a1b } 
		.s3 { fill: #8e9834 } 
		.s4 { fill: #f0b637 } 
		.s5 { fill: #d2d256 } 
	</style>
	<g id="Background">
		<path id="Path 0" fill-rule="evenodd" class="s0" d="m278 77.48c14.6 0.22 26.91 0.92 32.5 1.85 4.95 0.83 11.93 2.19 15.5 3.03 3.57 0.85 11.9 3.32 18.5 5.51 6.6 2.19 16.05 5.58 21 7.53 4.95 1.95 12.6 5.4 17 7.68 4.4 2.28 11.38 6.33 15.5 9 4.13 2.68 8.06 4.88 8.75 4.89 0.69 0.02 1.25 0.48 1.25 1.03 0 0.55 0.78 1.34 1.73 1.75 0.94 0.41 3.38 2.32 5.4 4.25 2.03 1.92 4.94 4.18 6.46 5 1.52 0.82 4.83 3.65 7.34 6.29 2.51 2.63 4.91 4.77 5.32 4.75 0.41-0.02 2.89 2.29 5.5 5.14 2.61 2.85 6.21 6.68 8 8.5 1.79 1.83 3.26 3.66 3.27 4.07 0.01 0.41 2.14 3.04 4.75 5.84 2.6 2.8 5.41 6.35 6.23 7.88 0.82 1.54 2.4 3.79 3.5 5 1.1 1.22 2.75 3.52 3.66 5.12 0.91 1.6 3.3 5.84 5.31 9.41 2.01 3.57 5.48 10.32 7.71 15 2.23 4.68 5.99 13.9 8.34 20.5 2.35 6.6 5.42 17.4 6.81 24 1.39 6.6 3.07 16.73 3.74 22.5 0.77 6.72 1 17.17 0.62 29-0.32 10.18-1.31 22.55-2.2 27.5-0.89 4.95-2.7 12.82-4.02 17.5-1.31 4.68-3.48 11.65-4.8 15.5-1.33 3.85-3.77 9.93-5.42 13.5-1.65 3.57-4.19 8.98-5.64 12-1.45 3.02-2.63 6.06-2.62 6.75 0 0.69-0.33 1.24-0.74 1.22-0.41-0.02-1.65 1.64-2.75 3.68-1.1 2.05-2.79 4.54-3.75 5.54-0.96 0.99-1.75 2.49-1.75 3.31 0 0.82-0.34 1.49-0.75 1.48-0.41-0.01-2.21 2.01-4 4.5-1.79 2.49-3.25 4.86-3.25 5.27 0.01 0.41-0.89 1.31-2 2-1.1 0.69-1.98 1.59-1.96 2 0.02 0.41-1.56 2.44-3.5 4.5-1.95 2.06-3.54 4.2-3.54 4.75 0 0.55 1.69 1.43 3.75 1.95 2.06 0.52 10.27 2.1 18.25 3.52 7.98 1.42 23.5 4.16 34.5 6.08 11 1.92 21.58 3.89 23.5 4.37 2.14 0.53-19.77 0.92-56.25 0.98-32.86 0.05-59.75-0.13-59.75-0.4 0-0.27 1.38-1.85 3.08-3.5 1.69-1.65 3.49-3 4-3 0.5 0 1.37-0.9 1.92-2 0.55-1.1 1.45-2 2-2 0.55 0 5.71-4.61 11.48-10.25 5.76-5.64 10.48-10.81 10.5-11.5 0.01-0.69 0.47-1.25 1.02-1.25 0.55 0 3.75-3.71 7.12-8.25 3.36-4.54 6.62-9.38 7.23-10.75 0.61-1.38 1.57-2.78 2.13-3.12 0.56-0.35 1.67-2.15 2.46-4 0.8-1.86 1.78-3.61 2.18-3.88 0.41-0.27 3.39-6.13 6.64-13 3.25-6.88 7.28-16.77 8.96-22 1.68-5.23 3.55-11.52 4.15-14 0.6-2.48 1.54-7.2 2.07-10.5 0.54-3.3 1.5-11.63 2.15-18.5 0.69-7.44 0.89-17.36 0.49-24.5-0.38-6.6-1.11-15.38-1.62-19.5-0.52-4.13-2.78-14.7-5.02-23.5-2.24-8.8-5.27-18.7-6.73-22-1.46-3.3-3-6.11-3.43-6.25-0.43-0.14-0.79-1.04-0.79-2-0.01-0.96-2.26-6.36-5-12-2.75-5.64-5.44-10.25-5.99-10.25-0.55 0-0.99-0.56-0.98-1.25 0.01-0.69-0.82-2.15-1.84-3.25-1.02-1.1-2.14-2.9-2.5-4-0.36-1.1-1.9-3.35-3.43-5-1.53-1.65-3.11-3.79-3.52-4.75-0.4-0.96-1.18-1.75-1.73-1.75-0.55 0-1-0.68-1-1.5 0-0.82-1.36-2.51-3.02-3.75-1.66-1.24-3-2.7-2.96-3.25 0.04-0.55-1.89-2.8-4.27-5-2.38-2.2-4.54-4.46-4.79-5.02-0.25-0.56-2.71-3.13-5.46-5.72-2.75-2.58-5.34-4.71-5.75-4.73-0.41-0.01-2.92-2.17-5.57-4.78-2.65-2.61-6.12-5.43-7.7-6.25-1.58-0.83-4.02-2.53-5.43-3.78-1.4-1.26-3.11-2.27-3.8-2.25-0.69 0.01-1.25-0.42-1.25-0.97 0-0.55-0.68-1-1.5-1-0.82 0-1.5-0.45-1.5-1 0-0.55-2.26-2.01-5.02-3.25-2.76-1.24-5.01-2.59-5-3 0.01-0.41-4.82-3.17-10.73-6.13-5.91-2.96-16.82-7.65-24.25-10.43-9.1-3.41-19.2-6.23-31-8.64-14.07-2.88-20.73-3.71-34-4.21-10.36-0.4-21.53-0.17-30 0.61-7.43 0.68-18.68 2.29-25 3.58-6.32 1.29-14.43 3.04-18 3.89-3.57 0.85-11 3.38-16.5 5.63-5.5 2.25-15.06 6.53-21.25 9.52-6.19 2.99-11.25 5.88-11.25 6.43 0 0.55-0.68 1-1.5 1-0.82 0-1.5 0.45-1.5 1 0 0.55-0.68 1-1.5 1-0.82 0-6.02 3.26-11.53 7.25-5.52 3.99-10.02 7.59-10 8 0.01 0.41-0.65 0.75-1.47 0.75-0.82 0-2.4 1.12-3.5 2.5-1.1 1.37-2.17 2.5-2.39 2.5-0.21 0-4.72 4.16-10.02 9.25-5.29 5.09-9.61 9.47-9.59 9.75 0.01 0.28-2.23 2.97-5 6-2.77 3.03-5.02 5.84-5.01 6.25 0 0.41-1.15 1.99-2.57 3.5-1.42 1.51-5.37 7.03-8.77 12.25-3.4 5.22-8.04 13.55-10.3 18.5-2.26 4.95-5.01 11.03-6.11 13.5-1.09 2.47-3.2 7.87-4.68 12-1.47 4.12-3.55 11.44-4.62 16.25-1.07 4.81-2.62 13.25-3.44 18.75-0.91 6.05-1.5 17.11-1.5 28 0 9.9 0.46 21.49 1.02 25.75 0.56 4.26 1.73 10.9 2.6 14.75 0.86 3.85 2.7 10.82 4.08 15.5 1.39 4.68 3.31 10.3 4.28 12.5 0.96 2.2 3.18 7.37 4.94 11.5 1.75 4.12 5.19 10.99 7.63 15.25 2.45 4.26 4.9 7.75 5.45 7.75 0.55 0 1 0.45 1 1 0 0.55 1.73 3.59 3.85 6.75 2.11 3.16 4.59 6.54 5.5 7.5 0.91 0.96 1.65 2.2 1.65 2.75 0 0.55 2.7 3.7 6 7 3.3 3.3 6 6.23 6 6.5 0 0.27 2.47 2.98 5.5 6 3.03 3.02 5.84 5.51 6.25 5.53 0.41 0.02 2.34 1.71 4.28 3.75 1.94 2.05 5.09 4.93 10.47 9.11l-58.5-0.02c-32.18-0.02-57.38-0.39-56-0.83 1.37-0.44 4.3-1.27 6.5-1.85 2.2-0.58 12.1-2.4 22-4.05 9.9-1.64 25.09-4.26 33.76-5.82 8.67-1.55 15.76-3.27 15.77-3.82 0-0.55-2.26-3.48-5.03-6.5-2.77-3.02-5.02-5.61-5.01-5.75 0-0.14-2.94-4.41-6.54-9.5-3.61-5.09-7.21-10.04-8-11-0.8-0.96-1.45-2.2-1.45-2.75 0-0.55-0.34-0.99-0.75-0.98-0.41 0.02-1.06-1.22-1.43-2.75-0.38-1.52-1.61-3.78-2.75-5.02-1.14-1.24-2.07-2.7-2.07-3.25 0-0.55-0.84-2.91-1.88-5.25-1.03-2.34-3.46-8.3-5.4-13.25-1.93-4.95-4.05-11.02-4.69-13.5-0.65-2.48-1.78-6.3-2.52-8.5-0.73-2.2-2.01-7.82-2.84-12.5-0.83-4.68-2.05-15.02-2.71-23-1.01-12.25-0.95-17.29 0.41-32.5 1.01-11.37 2.67-22.42 4.5-30 1.59-6.6 3.89-14.93 5.1-18.5 1.22-3.57 4.47-11.45 7.22-17.5 2.75-6.05 5.52-12.35 6.15-14 0.64-1.65 1.95-3.9 2.92-5 0.97-1.1 2.29-3.35 2.94-5 0.65-1.65 1.44-3.22 1.75-3.5 0.31-0.28 2.37-2.97 4.58-6 2.2-3.03 5.35-7.48 6.99-9.9 1.64-2.42 3.43-5.1 3.98-5.96 0.55-0.86 2.01-2.37 3.25-3.35 1.24-0.98 2.23-2.13 2.21-2.54-0.02-0.41 4.81-5.47 10.74-11.25 5.92-5.78 12.46-12.19 14.53-14.25 2.07-2.06 4.22-3.75 4.77-3.75 0.55 0 1.56-0.9 2.25-2 0.69-1.11 1.81-2.01 2.5-2 0.69 0 1.25-0.45 1.25-1 0-0.55 0.68-1 1.5-1 0.82 0 1.72-0.67 2-1.5 0.28-0.83 1.14-1.5 1.93-1.5 0.78 0 2.02-0.56 2.75-1.25 0.73-0.69 4.02-2.87 7.32-4.85 3.3-1.99 8.36-4.91 11.25-6.5 2.89-1.6 5.25-3.24 5.25-3.65 0-0.41 0.68-0.75 1.5-0.75 0.82 0 5.44-1.84 10.25-4.1 4.81-2.25 10.32-4.69 12.25-5.41 1.93-0.72 8.68-2.92 15-4.88 6.32-1.97 16.37-4.41 22.32-5.43 5.94-1.02 13.59-2.35 17-2.95 3.74-0.66 15.46-0.96 29.68-0.75zm-35.31 158.52c2.29 0 3.47 0.54 3.84 1.75 0.29 0.96-0.05 2.08-0.75 2.48-0.71 0.41-2.07 0.75-3.03 0.75-1.14 0.01-1.76 0.81-1.77 2.27-0.01 1.24 0.56 2.8 1.25 3.48 0.7 0.68 0.93 1.47 0.52 1.75-0.41 0.29-2.21-0.2-4-1.08-1.79-0.87-4.26-1.32-5.5-1-1.73 0.46-2.28 0.16-2.39-1.32-0.09-1.16 1.58-3.34 4.19-5.5 3.04-2.51 5.33-3.58 7.64-3.58zm58.25 1c0.67 0 1.41 1.57 1.64 3.5 0.23 1.92 0.42 3.84 0.42 4.25 0 0.41-0.45 0.86-1 1-0.55 0.14-0.98-0.54-0.95-1.5 0.03-0.96-0.26-2.99-0.64-4.5-0.47-1.88-0.31-2.75 0.53-2.75zm-27.82 4.93c1.59 1.14 3.22 2.07 3.63 2.07 0.41 0 2.55 3.49 8.75 15.5l5.5 0.51c3.02 0.28 6.06 0.84 6.75 1.25 0.73 0.43 3.65-0.77 7-2.89 3.16-2 6.74-4.59 7.95-5.75 1.2-1.17 1.99-2.68 1.75-3.37-0.25-0.69-1.8-1.25-3.45-1.25-1.65 0-3.34-0.53-3.75-1.17-0.55-0.85 0.46-1.02 3.75-0.63 2.48 0.29 6.75 0.12 9.5-0.39 2.75-0.51 5.05-0.69 5.1-0.38 0.06 0.3-2.3 1.67-5.25 3.06-5.02 2.36-5.28 2.65-4.15 4.76 1.08 2.04 1.01 2.17-0.75 1.44-1.58-0.65-1.72-0.56-0.73 0.5 0.96 1.03 0.93 1.52-0.14 2.31-0.86 0.63-1.5 3.65-1.72 8.2-0.33 6.57-0.17 7.32 4.05 9.8l-2.95 3.75c-2.82 3.57-2.9 3.94-1.71 7.77 0.69 2.22 1.59 4.02 2 4 0.41-0.01 0.75-0.47 0.75-1.02 0-0.55 1.69-1.4 3.75-1.9 2.06-0.49 4.99-1.17 9.25-2.1l-7.5-9.09 3 0.03c2.2 0.02 4.21 1.24 12 9.01l-3-0.13c-1.65-0.06-4.46 0.62-6.25 1.53-1.79 0.91-3.25 2.1-3.25 2.65 0 0.55 0.56 0.99 1.25 0.98 0.69-0.01 3.84-0.68 7-1.5 5.28-1.36 5.99-1.34 8.72 0.27 2.46 1.45 3.88 1.59 8.25 0.83 3.28-0.57 6.61-0.55 8.78 0.04 2.96 0.8 3.5 1.4 3.5 3.8 0 1.56-0.56 3.68-1.25 4.71q-1.25 1.88-2.5 0.96c-0.69-0.5-3.05-0.99-5.25-1.1-2.2-0.1-6.14-0.14-8.75-0.09-4.09 0.09-4.89 0.45-5.75 2.6-0.73 1.83-2 2.67-4.75 3.13-2.06 0.34-4.43 0.99-5.25 1.43-1.33 0.72-1.33 0.87 0 1.36 0.82 0.31 3.3 1.18 5.5 1.93 2.97 1.03 4.23 2.12 4.88 4.27 0.49 1.58 1.39 3.46 2 4.17 0.62 0.72 2.13 1.28 3.37 1.25 1.24-0.02 3.26 1.15 4.5 2.62 1.28 1.51 2.79 2.37 3.5 2 0.69-0.36 1.25-1.56 1.25-2.66 0-1.1 0.45-2 1-2 0.55 0 1.27 1.24 1.61 2.75 0.33 1.51 2.02 4.01 3.75 5.55 2.51 2.23 2.88 3.03 1.87 4-0.69 0.66-1.26 2.89-1.25 4.95 0.02 2.87 0.55 4.03 2.27 4.92 1.24 0.64 2.46 0.98 2.71 0.75 0.25-0.23 0.84 1.15 1.32 3.08 0.47 1.93 1.05 4.74 1.29 6.25 0.28 1.77-0.01 2.74-0.82 2.72-0.69-0.01-2.71-1.14-4.5-2.5-1.79-1.36-3.7-2.47-4.25-2.47-0.55 0-1.01 1.01-1.02 2.25 0 1.24-0.46 2.93-1.01 3.75-0.85 1.27-1.39 1.08-3.49-1.25-1.36-1.51-2.62-2.64-2.78-2.5-0.17 0.14-1.07 1.49-2 3-1.6 2.58-1.87 2.67-4.45 1.39-1.51-0.75-3.31-1.2-4-1-0.69 0.2-1.25-0.09-1.25-0.64 0-0.55-0.68-1-1.5-1-0.82 0-2.74 0.78-4.25 1.73-1.79 1.13-4.66 1.71-8.25 1.66-3.02-0.04-9.1-0.23-13.5-0.42-6.11-0.28-8.77 0.04-11.25 1.33-1.79 0.94-3.25 2.15-3.25 2.7 0 0.55-0.68 1-1.5 1-0.82 0-2.18 1.35-3 3-0.83 1.67-1.5 5.67-1.5 9 0 3.3 0.48 7.24 1.06 8.75 0.59 1.51 2.39 3.99 4 5.5 1.68 1.57 5.84 3.62 9.69 4.77 3.71 1.11 7.09 2.01 7.5 2 0.41-0.01 3.69 1.89 7.28 4.23 3.59 2.34 6.4 4.37 6.25 4.53-0.16 0.15-5.68-0.41-12.28-1.24-6.6-0.83-14.59-2.19-17.75-3.02-3.16-0.84-7.01-1.52-8.55-1.52-1.54 0-3.35 0.56-4.03 1.25-0.98 1-1.62 1-3.2 0-1.67-1.06-2.05-0.98-2.52 0.5-0.48 1.5-0.68 1.54-1.41 0.25-0.55-0.94-1.45-1.22-2.45-0.75-1.1 0.52-1.36 0.38-0.84-0.45 0.57-0.91-0.94-1.04-6.25-0.57-3.85 0.34-7.9 0.92-9 1.28-1.28 0.42-1.01-0.01 0.76-1.18 1.51-1.01 2.76-2.06 2.77-2.33 0.02-0.27-1.14-1.18-5.15-3.5l2.91-2.5c1.59-1.38 3.65-3.96 4.56-5.75 1.07-2.11 1.65-5.72 1.65-17.25l-5.5-5.5c-3.59-3.59-6.63-5.71-8.75-6.1-1.79-0.33-5.05-0.33-7.25 0-2.2 0.33-7.15 0.87-11 1.22-6.08 0.53-7.79 0.28-19-4.43l-0.46-10.69 1.73 3.71c0.95 2.04 2.63 3.98 3.73 4.31 1.1 0.33 5.6 0.54 10 0.46 4.92-0.08 8.27-0.58 8.7-1.31 0.39-0.64-0.16-2.07-1.23-3.17-1.06-1.1-1.94-2.79-1.95-3.75-0.01-0.96 0.43-1.98 0.98-2.25 0.55-0.27 2.24 0.42 3.75 1.53 1.51 1.12 3.54 2.02 4.5 2 1.47-0.02 1.75-1 1.75-6.03 0-3.3-0.45-6.23-1-6.5-0.55-0.27-2.01 0.17-3.25 0.99-1.77 1.18-3.32 1.3-7.25 0.57-2.75-0.51-5.79-1.18-6.75-1.49-0.96-0.31-1.75-1.02-1.75-1.57 0-0.55 1.35-1.68 3-2.5 1.65-0.83 3.92-2.74 5.03-4.25 1.12-1.51 2.02-3.76 2-5-0.02-1.47-0.64-2.25-1.78-2.24-0.96 0.01-2.65 0.24-3.75 0.51-1.32 0.33-3.27 3.2-5.75 8.49-2.06 4.39-4.2 7.99-4.75 7.99-0.55 0-2.91 1.94-5.25 4.31-3.54 3.58-4.8 4.25-7.5 4-1.91-0.18-3.48 0.21-3.8 0.94-0.3 0.69-0.41 3.05 0.05 9.25l2.5-2.76c1.96-2.16 2.74-2.48 3.63-1.5 0.61 0.69 1.85 2.72 2.75 4.51 0.89 1.79 1.62 3.48 1.62 3.75 0 0.27-0.9 0.5-2 0.5-1.1 0-2.22 0.45-2.5 1-0.32 0.63-1.21 0.54-2.46-0.25-1.66-1.06-2.29-0.92-4.25 0.98-1.26 1.22-2.97 2.26-3.79 2.29-0.82 0.04-2.24-0.96-4.77-4.52l-3.12 2.25c-1.71 1.24-3.35 1.91-3.64 1.5-0.29-0.41-0.5-2.33-0.43-7.75l-4.02 0.75c-3.94 0.73-4.01 0.69-3.77-2 0.24-2.62 0.06-2.74-3.75-2.48-2.2 0.15-4.68-0.16-5.5-0.68-1.25-0.8-1.29-1.38-0.25-3.52 0.69-1.41 1.25-3.02 1.25-3.57 0-0.55-1.35-1-3-1-2.75 0-2.95-0.23-2.4-2.75 0.34-1.51 1.91-4.66 6.4-11.25l-2.53-1.25c-1.39-0.69-2.51-1.7-2.49-2.25 0.03-0.55 1.28-1.95 5.52-5.24l-3.5-1.75c-3.38-1.69-3.43-1.8-1.5-3.18 1.1-0.78 2.68-1.24 3.5-1 0.82 0.23 2.4-0.21 3.5-0.97 1.1-0.77 1.55-1.37 1-1.34-0.55 0.02-0.1-0.88 1-2.02 1.81-1.87 1.83-2.06 0.25-2.03-0.96 0.02-1.75-0.2-1.75-0.47 0-0.27 0.56-1.59 1.25-2.92 1.13-2.18 0.96-2.67-4.75-7.71l5 0.66c2.75 0.37 5.34 0.85 5.75 1.07 0.41 0.22 0.75 1.07 0.75 1.9 0 1.23 0.89 1.1 5.03-0.75 2.77-1.24 5.24-2.81 5.5-3.5 0.26-0.69 0.02-1.48-0.53-1.75-0.58-0.29-0.27-1.35 0.75-2.52 1.7-1.96 1.66-2.03-1.65-2.75-2.48-0.53-4.18-1.89-6.25-4.98-1.57-2.34-2.85-4.7-2.85-5.25 0-0.55 0.56-0.92 1.25-0.83 0.69 0.09 3.43-0.24 6.09-0.75 4.12-0.78 4.77-1.22 4.38-2.92-0.26-1.1-0.86-2.88-1.34-3.97-0.85-1.89-0.78-1.9 1.62-0.3 1.38 0.91 4.6 1.8 7.17 1.97 2.57 0.16 5.05-0.03 5.5-0.44 0.46-0.41-0.07-1.71-1.17-2.88-1.1-1.17-2.11-3.19-2.25-4.5-0.14-1.31 0.09-2.58 0.5-2.82 0.41-0.24 3.29 0.32 6.4 1.25 3.11 0.93 6.03 2.04 6.5 2.47 0.47 0.43 1.3 0.78 1.85 0.79 0.55 0.01-0.12-0.94-1.5-2.11q-2.47-2.11-0.75-1.54c0.96 0.32 2.2 0.58 2.75 0.58 0.55 0 1 0.67 1 1.5 0 0.82 0.9 1.73 2 2 1.1 0.27 2.9 0.27 4 0 1.1-0.27 3.46 0.34 8.5 3.25l-3 1.11c-1.65 0.61-5.54 1-8.64 0.87-4.48-0.18-6.09 0.18-7.78 1.77-1.18 1.1-2.12 2.67-2.09 3.5 0.03 0.82 0.84 2.3 1.79 3.28 0.94 0.98 3.07 1.77 4.72 1.74 1.65-0.02 4.7-0.37 6.77-0.78 3.44-0.68 3.77-1.02 3.75-3.99-0.02-2.43 0.42-3.25 1.73-3.26 0.96-0.01 3.2 0.33 4.97 0.75 3.07 0.72 3.15 0.85 1.5 2.55-0.94 0.98-3.18 2.22-4.97 2.75-2.62 0.77-3.44 1.69-4.21 4.71-0.69 2.71-0.62 4.11 0.25 5.04 0.77 0.83 3.59 1.27 7.71 1.22 4.89-0.06 7.12 0.39 9 1.8 1.38 1.03 3.96 2.39 5.75 3.03 2.92 1.04 3.19 0.98 2.7-0.59-0.31-0.96-0.81-2.88-1.12-4.25-0.51-2.25-0.43-2.33 0.8-0.8 1.28 1.59 1.54 1.56 3.99-0.5 2.07-1.75 2.5-2.82 2.08-5.2-0.43-2.48-0.28-2.81 0.89-1.87 0.77 0.62 2.2 3.2 3.16 5.75 0.96 2.54 1.98 4.62 2.25 4.62 0.27 0 1.4-0.45 2.5-1q2-1 2-4c0-2.11-0.89-3.74-3-5.5-1.65-1.38-3.68-2.5-4.5-2.5-1.16 0-1.49-1.29-1.46-5.75 0.04-5.56-0.07-5.8-3.25-7.19-3.23-1.41-3.25-1.45-1.05-2.5 1.78-0.84 2.99-0.64 5.78 0.94 3.35 1.9 3.5 2.21 2.9 6-0.48 2.96-0.22 4.45 0.97 5.75 0.89 0.96 2.29 1.75 3.11 1.75 0.82 0 1.7 1.01 1.94 2.25 0.25 1.24 0.77 4.73 1.15 7.75 0.62 4.8 0.82 5.18 1.6 3 0.49-1.38 1.31-6.32 1.82-11 0.52-4.68 1.51-10.03 2.21-11.91 0.71-1.87 2.18-3.73 3.28-4.12 1.83-0.66 1.65-1.05-2.12-4.59-2.27-2.14-5.3-5.91-6.73-8.38-1.43-2.48-2.56-4.87-2.5-5.32 0.05-0.45 1.39 0.11 2.97 1.25zm-53.37-0.56c0.41 0.2 1.37 1.89 2.14 3.75 1.13 2.77 1.15 3.83-1.16 8.38l-1.27-3c-0.87-2.08-0.96-3.61-0.28-5 0.55-1.1 0.73-2.56 0.41-3.25-0.33-0.69-0.25-1.08 0.16-0.88zm117.09 23.02c0.91 0.29 4.81 1.05 8.66 1.7 3.85 0.65 8.01 1.57 9.25 2.04 1.43 0.55 2.11 1.51 1.86 2.62-0.21 0.96-0.67 2.43-1.03 3.25-0.5 1.16 0.44 1.7 4.14 2.37 2.63 0.48 5.54 1.38 6.48 2 1.15 0.77 1.39 1.53 0.75 2.38-0.68 0.89-0.23 1.54 1.55 2.25 1.37 0.55 2.73 1.45 3 2 0.27 0.55 0.95 1 1.5 1 0.55 0 0.83-0.34 0.62-0.75-0.21-0.41 0.8-0.57 4.88 0.06l-2.28 1.1c-1.26 0.6-2.27 1.65-2.25 2.34 0.02 0.69 0.71 1.48 1.53 1.75 1.25 0.42 1.29 0.87 0.25 2.75-0.69 1.24-1.36 2.48-1.49 2.75-0.14 0.27-1.04-0.26-2-1.18-0.97-0.92-4.24-2.83-7.26-4.24-3.02-1.41-6.51-2.56-7.75-2.57-1.24-0.01-2.25-0.46-2.25-1.01 0-0.55 1.01-1.11 2.25-1.25q2.25-0.25 2.25-2.25c0-1.83-0.67-2-7.8-2-7.15 0-7.97-0.21-9.73-2.5-1.06-1.38-1.94-2.84-1.95-3.25-0.01-0.41 1.89-0.46 4.23-0.1 2.76 0.42 4.51 0.24 5-0.5 0.41-0.63 0.3-2.05-0.25-3.15-0.6-1.2-2-2-3.5-2-1.38 0-3.4 0.45-4.5 1q-2 1-4 0c-1.39-0.69-1.97-1.94-1.91-4.07 0.08-2.38 0.47-2.95 1.75-2.54zm38.66 41.66c0.55-0.02 2.8 0.45 9 2.13l-2.5 1.89c-1.37 1.04-2.05 1.91-1.5 1.94 0.55 0.03 0.32 0.44-0.5 0.91-0.82 0.47-3.52 1.16-6 1.53-3.91 0.59-4.83 0.37-7-1.73-1.37-1.33-3.62-3.21-7.5-5.95l2.5 0.7c1.38 0.38 3.4 0.93 4.5 1.22 1.1 0.29 3.35-0.17 5-1.04 1.65-0.86 3.45-1.59 4-1.6zm10.78 11.05c0.43-0.05 0.2 0.6-0.5 1.44-0.7 0.85-1.73 1.54-2.28 1.52-0.55-0.02-1.68 0.39-2.5 0.9-1.28 0.79-1.2 1.19 0.6 2.73 1.16 1 2.85 3.27 3.75 5.06 0.91 1.79 1.65 3.7 1.65 4.25 0 0.61-1.22 0.71-6.34-0.5l2.17 4.25c1.19 2.34 2.17 4.7 2.17 5.25 0 0.55-0.68 0.77-1.5 0.5-0.82-0.27-2.18-0.73-3-1-0.94-0.31-1.87 0.43-2.5 2-0.55 1.37-1.23 2.5-1.5 2.5-0.27 0-2.19-1.34-4.25-2.98-3.21-2.54-3.71-3.48-3.5-6.5 0.14-1.93 0.48-3.52 0.75-3.52 0.27 0 1.38 0.56 2.45 1.25 1.08 0.69 2.2 0.91 2.5 0.5 0.3-0.41 0.32-1.2 0.05-1.75-0.27-0.55-1.51-0.99-2.75-0.98-1.24 0.01-3.15-0.65-4.25-1.47-1.1-0.82-2.9-1.49-4-1.5-1.56-0.01-2.18-0.96-2.81-4.28-0.45-2.35-1.35-4.85-2-5.56-0.68-0.74-0.76-1.29-0.19-1.29 0.55 0.01 1.9 0.96 3 2.11 1.1 1.16 4.48 2.78 7.5 3.61 3.02 0.84 6.06 1.26 6.75 0.94 0.69-0.32 1.02-1.26 0.75-2.08-0.27-0.82 0.06-1.84 0.75-2.25 0.69-0.41 2.82-1.27 4.75-1.9 1.93-0.62 3.85-1.19 4.28-1.25zm-203.28 86c1.38-0.08 4.53 0.55 7 1.4 2.47 0.85 6.3 1.54 8.5 1.53 2.2 0 5.8 0.29 12 1.3l-6.5 1.38c-3.57 0.75-9.87 2-14 2.77-4.12 0.77-14.93 3.17-24 5.35-9.07 2.17-19.32 4.56-22.77 5.31-3.45 0.75-6.28 1.59-6.28 1.86 0 0.27 1.02 1.45 2.27 2.6 1.26 1.16 2.96 2.37 3.78 2.69 0.82 0.32 1.95 0.18 2.5-0.32 0.55-0.5 4.82-2.06 9.5-3.46 4.68-1.41 15.14-3.9 23.25-5.54 10.23-2.06 17.58-2.96 33.25-2.89l-20 6.8c-11 3.75-23.15 8.03-27 9.51-3.85 1.49-7.45 3.1-8 3.57-0.61 0.52 0.73 1.83 3.5 3.38 2.47 1.39 5.85 2.83 7.5 3.2 1.91 0.43 4.64 0.06 7.5-1.03 2.47-0.93 5.85-2.28 7.5-3 1.65-0.71 5.14-2.25 7.75-3.4 2.61-1.16 4.97-2.11 5.25-2.11 0.28 0 2.86-1.06 5.75-2.36 2.89-1.3 6.26-2.65 7.5-3 1.96-0.56 2.17-0.35 1.64 1.61-0.34 1.24-0.99 2.7-1.44 3.25-0.46 0.56-0.19 1.55 0.61 2.25 0.79 0.69 1.31 1.81 1.14 2.5-0.16 0.69-4.38 3.27-9.38 5.75-5 2.48-10.05 5.4-11.23 6.5-1.17 1.1-1.79 2.25-1.36 2.55 0.42 0.3 3.36 1.54 6.52 2.75 5.69 2.18 5.78 2.18 8.5 0.29 1.51-1.05 7.03-4.04 12.25-6.64 5.22-2.6 12.43-6.61 16-8.92 3.57-2.3 9.43-6 13-8.22 3.57-2.22 9.99-6.57 14.25-9.67 6.58-4.79 8.39-5.64 12-5.61 4 0.03 4.13 0.12 2.25 1.53-1.1 0.82-2.56 1.25-3.25 0.96-0.69-0.28-1.02-0.07-0.75 0.48 0.27 0.55-4.64 6.06-10.93 12.25-6.29 6.19-13.37 12.86-15.75 14.83-2.38 1.97-7.8 5.79-12.05 8.5-4.26 2.71-7.75 5.48-7.75 6.17-0.01 0.69 1.67 1.66 3.73 2.16 2.06 0.51 6.07 1.29 8.9 1.75 3.48 0.57 5.74 0.47 7-0.3 1.02-0.63 9.95-2.13 19.85-3.35 9.9-1.22 19.57-2.31 21.5-2.44 1.93-0.13 4.06-0.53 4.75-0.9 0.69-0.37 3.84-0.39 7-0.04 4.33 0.47 6.98 1.49 10.75 4.15 4.56 3.21 5.4 3.46 9.5 2.81 2.48-0.4 6.19-1.14 8.25-1.65 2.06-0.52 3.76-1.5 3.77-2.19 0.01-0.69-1.82-2.6-4.07-4.25-2.25-1.65-7-5.25-10.55-8-3.54-2.75-5.99-5.11-5.42-5.25 0.56-0.14 1.92 0.2 3.02 0.75q2 1 2 0c0-0.55 1.69-1.53 3.75-2.17 3.52-1.1 4.25-0.91 11.75 2.92 4.4 2.25 11.15 5.77 22 11.54l13-4.63-3-2.33c-1.65-1.28-5.36-3.57-8.24-5.08-2.88-1.51-5.17-3.2-5.09-3.75 0.08-0.55-0.37-2.24-1.01-3.75-0.64-1.51-1.61-3.88-2.16-5.25-0.87-2.17-0.73-2.5 1-2.5 1.1 0 5.15 1.35 9 3 3.85 1.65 7.45 3 8 3 0.55 0 4.82 1.8 9.5 4 4.68 2.2 9.4 4 10.5 4 1.1 0 3.69-0.91 5.75-2.03 2.06-1.12 4.08-2.58 4.48-3.25 0.41-0.67 0.75-1.67 0.76-2.22 0.01-0.55-1.45-1.65-3.24-2.44-1.79-0.8-9.1-3.35-16.25-5.67-7.15-2.32-16.37-5.43-20.5-6.9-4.12-1.48-7.95-3.1-8.5-3.6-0.62-0.57 2.26-0.92 7.5-0.92 5.17 0 11.83 0.81 17 2.07 4.68 1.13 10.75 2.69 13.5 3.46 2.75 0.77 8.26 2.32 12.25 3.45 3.99 1.13 9.27 2.05 11.75 2.05 3.27 0 5.25-0.64 10-4.69l-4.5-1.08c-2.48-0.59-7.43-1.77-11-2.62-3.57-0.84-11.23-2.5-17-3.69-5.77-1.18-14.39-2.88-19.14-3.78-4.75-0.9-9.03-1.97-9.5-2.38-0.47-0.41-0.59-1.31-0.25-2 0.33-0.69 3.26-2.07 12.39-4.88l23.5 3.56c12.93 1.95 27.66 4.23 32.75 5.05 5.09 0.83 9.25 1.74 9.25 2.01 0 0.27-0.45 1.62-1 3-0.55 1.37-1.56 2.5-2.25 2.49-0.69-0.01-3.39 2.24-6 5-2.61 2.76-5.2 5.01-5.75 5.01-0.55 0-1.56 0.9-2.25 2-0.69 1.11-1.7 2-2.25 1.99-0.55 0-2.46 1.35-4.25 3-1.79 1.66-3.59 3.02-4 3.04-0.41 0.01-2.21 1.14-4 2.5-1.79 1.36-3.48 2.47-3.75 2.47-0.27 0-3.09 1.65-6.25 3.68-3.16 2.02-9.8 5.56-14.75 7.87-4.95 2.31-12.15 5.58-16 7.27-3.85 1.68-10.6 4.26-15 5.71-4.4 1.46-10.02 3.1-12.5 3.65-2.48 0.56-11.25 2.06-19.5 3.35-8.25 1.29-21.3 2.65-29 3.01-10.15 0.48-17.99 0.22-28.5-0.95-7.97-0.89-18.1-2.09-22.5-2.67-4.4-0.58-12.72-2.34-18.5-3.92-5.78-1.57-14.1-4.21-18.5-5.86-4.4-1.65-10.93-4.17-14.5-5.6-3.57-1.43-6.95-3.05-7.5-3.59-0.55-0.54-1.79-0.98-2.75-0.97-0.96 0.01-1.74-0.32-1.73-0.73 0.01-0.41-2.8-2.1-6.25-3.75-3.45-1.65-6.38-3.34-6.52-3.75-0.14-0.41-0.93-0.75-1.75-0.75-0.82 0-1.61-0.39-1.75-0.86-0.14-0.47-5.09-4.52-11-9-5.91-4.48-10.97-8.14-11.25-8.14-0.28 0-2.07-1.57-4-3.5-1.92-1.93-3.84-3.5-4.25-3.5-0.41 0-1.99-1.58-3.5-3.5-1.51-1.93-2.41-3.69-2-3.93 0.41-0.24 12.45-2.27 26.75-4.52 14.3-2.24 28.25-4.47 31-4.95 2.75-0.47 6.13-0.93 7.5-1zm-71.25 0.89c0.96 0 3.89 0.34 6.52 0.75 2.62 0.42 4.75 1.1 4.75 1.51-0.01 0.41-2.38 1-5.27 1.3-3.61 0.37-5.66 0.14-6.54-0.75-0.72-0.72-1.28-1.64-1.25-2.05 0.02-0.41 0.83-0.75 1.79-0.76z"/>
		<path id="Path 1" fill-rule="evenodd" class="s1" d="m270.5 76.74c3.85 0.19 9.7 0.19 13 0 3.3-0.2 0.15-0.35-7-0.35-7.15 0-9.85 0.16-6 0.35zm-158.02 67.51l-7.98 8.25c12.8-12.4 16.51-16.11 16.51-16.25-0.01-0.14-0.13-0.25-0.28-0.25-0.15 0-3.87 3.71-8.25 8.25zm146.1 78.25c-0.32 0.82-0.58 2.85-0.58 4.5 0 2.44-0.31 2.86-1.68 2.25-1.41-0.63-1.61-0.25-1.25 2.44l0.43 3.19c-5.04-3.01-6.5-3.66-6.5-3.38 0 0.28 0.45 1.4 1 2.5 0.87 1.73 0.67 2-1.5 2-1.91 0-2.38 0.41-1.97 1.75 0.29 0.96-0.05 2.08-0.75 2.48-0.74 0.43 0.09 0.75 1.97 0.75 1.99 0.01 3.44 0.6 3.75 1.52 0.28 0.82-0.06 2.64-0.75 4.04-1.11 2.26-1.75 2.5-5.75 2.19-2.47-0.2-5.17-0.7-6-1.12-0.82-0.42-0.6-0.04 0.5 0.83 1.1 0.88 2.45 1.58 3 1.56 0.63-0.02 0.72 1.64 0.25 4.48l-0.75 4.52c15.74-0.35 19.34 0.03 21.3 1.05 2.57 1.33 2.74 1.78 2.14 5.45-0.49 2.98-0.25 4.45 0.95 5.75 0.89 0.96 2.29 1.75 3.11 1.75 0.83 0 1.54 0.79 1.58 1.75 0.05 1.06 0.44 0.66 1-1 0.51-1.51 1.37-2.75 1.92-2.75 0.55 0 1.05 1.01 1.1 2.25 0.06 1.28 0.48 0.52 0.98-1.75 0.48-2.2 1.34-5.69 1.9-7.75 0.65-2.38 1.84-4.07 3.27-4.62 2.19-0.85 2.15-0.97-1.87-4.75-2.27-2.14-5.3-5.91-6.73-8.38-1.43-2.47-2.62-4.84-2.63-5.25-0.01-0.41 1.33 0.15 2.98 1.25 1.65 1.1 3.34 2 3.75 2 0.41 0 2.55 3.49 4.75 7.75l4 7.75c8.52 0.79 11.56 1.35 12.25 1.76 0.73 0.43 3.65-0.77 7-2.89 3.16-2 6.76-4.48 8-5.5 2.21-1.84 2.27-1.83 3.45 0.38 1.08 2.04 1.01 2.17-0.75 1.43-1.07-0.45-1.58-0.45-1.12 0 0.46 0.45 2.04 0.88 3.5 0.95 1.47 0.08 5.04 0.53 7.93 1 4.68 0.77 5.26 0.68 5.25-0.88-0.01-1.08-0.49-1.5-1.26-1.09-0.72 0.38-0.9 0.28-0.42-0.25 0.46-0.5 1.14-0.92 1.5-0.93 0.37 0 1.23-0.34 1.92-0.75 0.69-0.4 1.25-1.41 1.25-2.23 0-1.2-0.55-1.09-2.75 0.55-2.1 1.56-2.9 1.74-3.38 0.75-0.34-0.72-0.92-3.55-1.29-6.3-0.53-3.9-0.94-4.73-1.88-3.78-0.94 0.95-1.42 0.87-2.2-0.38-0.91-1.47-1.23-1.46-3.75 0.03-2.57 1.52-2.76 1.52-2.91-0.12-0.08-0.96-0.15-2.2-0.15-2.75 0-0.55-1.37-1.1-3.05-1.22-1.68-0.13-3.68 0.32-4.45 1-1.13 0.98-1.68 0.83-2.8-0.78-1.12-1.6-1.64-1.75-2.64-0.75-0.98 0.98-0.99 1.97-0.08 4.5 0.64 1.79 0.91 3.59 0.58 4-0.32 0.41-0.96 0.75-1.42 0.75-0.45 0-0.81-0.79-0.78-1.75 0.03-0.96-0.19-2.99-0.5-4.5-0.31-1.54-0.11-2.75 0.45-2.75 0.55 0 1-2.47 1-5.5 0-3.72-0.41-5.51-1.25-5.53-0.69-0.02-2.15 0.89-3.25 2.03-1.1 1.14-2.34 2.05-2.75 2.03-0.41-0.02-0.98-1.6-1.25-3.53l-0.5-3.5c-9.2 6.44-10.12 6.75-10.75 5.44-0.41-0.85-1.31-1.3-2-1-0.75 0.34-1.4-0.34-1.62-1.69l-0.38-2.25c-0.97 3.49-1.59 4.52-2 4.54-0.41 0.03-1.42-0.7-2.25-1.61-1.15-1.28-2.49-1.52-5.75-1.05-3.72 0.54-4.5 0.31-6.25-1.88-1.1-1.37-2.19-2.5-2.42-2.5-0.22 0-0.67 0.68-1 1.5zm-28.58 17.5c0 3.3 0.23 6.68 0.5 7.5q0.51 1.48 1.75 0.61c0.69-0.49 1.93-1.11 2.75-1.37 0.83-0.27 0.26-0.31-1.25-0.11-2.1 0.28-2.75-0.04-2.73-1.38 0.01-0.96 1.25-3.02 2.75-4.58l2.73-2.83c-3.87-3.04-5.34-3.91-5.75-3.88-0.41 0.02-0.75 2.74-0.75 6.04zm-21.42 4.53c-0.32 0.81-0.39 2.03-0.17 2.72 0.23 0.69 0.68 2.71 1 4.5 0.57 3.14 0.5 3.22-1.91 2.25-1.37-0.55-3.4-1-4.5-1-1.39 0-2.01 0.68-2.04 2.25-0.04 1.79 0.21 2.01 1.25 1.05 1-0.93 2.53-0.82 6.94 0.5 3.11 0.94 6.03 2.05 6.5 2.48 0.47 0.43 1.3 0.78 1.85 0.79 0.55 0.01-0.12-0.91-1.5-2.04l-2.5-2.06c5.76 1.36 5.94 1.24 5.25-0.78-0.58-1.7-0.41-2.08 0.75-1.69 0.83 0.28 1.83-0.06 2.24-0.75q0.73-1.24-0.5-0.5-1.24 0.74-1.74-1.75c-0.27-1.37-1.06-2.5-1.75-2.5-0.69 0.01-2.9-1.1-4.92-2.47-3.01-2.03-3.77-2.21-4.25-1zm16.35 3c0.05 1.75 0.87 2.77 2.82 3.48 1.51 0.56 2.86 0.79 3 0.5 0.14-0.28-1.13-1.84-2.82-3.48l-3.06-2.96zm111.31 10.5c-2.33 1.08-4.02 2.41-3.75 2.96 0.31 0.63 1.64 0.44 3.5-0.5 1.65-0.82 3.57-1.48 4.25-1.45 0.69 0.02 1.79-0.65 2.45-1.5 0.97-1.26 0.88-1.54-0.5-1.51-0.93 0.02-3.61 0.92-5.95 2zm-134.85 1.26c-0.81 0.89-0.67 1.52 0.5 2.42 1.34 1.02 0.86 1.24-2.9 1.37-2.47 0.08-5.17 0.06-6-0.05-1.24-0.17-1.27 0.03-0.18 1.13 0.72 0.73 3.56 1.56 6.31 1.83 2.75 0.28 5.53 0.19 6.18-0.19 0.85-0.5 0.58-1.36-0.93-3-1.17-1.27-1.97-2.87-1.78-3.56 0.18-0.68 0.24-1.22 0.12-1.2-0.12 0.03-0.71 0.59-1.32 1.25zm29.72-0.55c-0.09 0.93-1.41 1.06-5.13 0.5-4.12-0.61-5.01-0.48-5.02 0.75-0.01 1.17 0.65 1.34 3.01 0.75 2.15-0.53 3.88-0.24 6.01 1l2.99 1.75c-3.86 1.94-6.21 2.53-7.73 2.57-2.65 0.06-2.67 0.09-0.5 1 1.24 0.51 2.48 1.38 2.75 1.93 0.28 0.55-0.06 1.75-0.75 2.66-0.68 0.91-2.6 2.26-4.25 3.01-2.85 1.3-2.76 1.32 1.92 0.6 4.89-0.76 4.91-0.76 4.2 1.73-0.57 2.02-0.51 2.16 0.34 0.75 0.57-0.96 1.83-2.22 2.79-2.79 1.5-0.9 1.43-0.97-0.5-0.5-2.03 0.49-2.25 0.18-2.26-3.21l-0.02-3.75c9.9 1.48 10.03 1.44 10.03-1 0-1.37-0.33-2.48-0.75-2.47-0.41 0.02-1.31-1.11-2-2.5-0.68-1.39-1.81-2.52-2.5-2.51q-1.25 0.01 0.25 0.98c1.28 0.83 1.25 0.98-0.25 0.99-0.96 0.01-1.92-0.77-2.13-1.74-0.21-0.96-0.44-1.18-0.5-0.5zm110.36 1.75c-0.26 0.83-2.28 1.84-4.48 2.25-3.86 0.73-4.05 0.95-5.25 6.1-0.69 2.94-2.05 6.09-3.03 7-1.69 1.57-1.56 1.86 2.5 5.88l4.28 4.22c-4.65-0.19-7.46 0.5-9.25 1.4-1.78 0.91-3.25 2.1-3.25 2.65 0 0.55 0.57 1 1.25 0.99 0.69-0.01 3.84-0.69 7-1.5 5.29-1.37 5.99-1.34 8.72 0.26 2.46 1.45 3.89 1.6 8.25 0.84 3.28-0.57 6.61-0.56 8.78 0.03 2.98 0.82 3.51 1.4 3.55 3.92 0.02 1.63-0.7 3.86-1.61 4.96q-1.67 2-0.87 4c0.44 1.1 0.82 3.02 0.86 4.25 0.04 1.24-0.71 3.94-1.68 6-1.72 3.69-1.71 3.79 0.5 6 1.24 1.24 2.26 1.92 2.27 1.5 0.01-0.41-0.55-1.32-1.25-2.01-0.7-0.7-0.82-1.28-0.27-1.29 0.55 0 1.9 0.93 3 2.09 1.1 1.15 4.48 2.77 7.5 3.61 3.03 0.83 6.07 1.25 6.75 0.93 0.69-0.32 1.03-1.25 0.75-2.08-0.27-0.82 0.07-1.88 0.75-2.36 0.69-0.47 2.38-1.12 3.75-1.44 1.38-0.33 3.4-0.92 4.5-1.33 1.82-0.67 1.87-0.59 0.5 0.99-0.82 0.95-2.17 1.75-3 1.77-1.33 0.03-1.33 0.09 0 0.53 0.83 0.27 2.31-0.33 3.29-1.33 0.98-1 1.76-2.28 1.73-2.83-0.03-0.55-1.51-1.99-3.28-3.21-2.69-1.84-2.94-2.31-1.49-2.75 0.97-0.3 1.75-0.99 1.75-1.54 0-0.55-1.12-0.32-2.5 0.5-1.37 0.83-2.27 1.95-2 2.5 0.28 0.55-0.28 1.2-1.25 1.45-0.96 0.25-3.55 0.73-5.75 1.08-3.38 0.54-4.38 0.27-6.5-1.79-1.37-1.34-3.62-3.22-5-4.2l-2.5-1.76c3.88 1.07 5.9 1.6 7 1.87 1.1 0.27 4.03-0.43 6.5-1.56 2.48-1.12 3.72-2.05 2.75-2.06-0.96-0.02-1.97-0.48-2.25-1.03-0.27-0.55 0.52-1.88 1.75-2.96 1.24-1.08 1.69-1.98 1-2-0.68-0.02-1.26-0.6-1.29-1.29-0.02-0.68-0.8-1.83-1.75-2.55-0.94-0.72-4.41-2.63-7.71-4.25-3.3-1.62-7.01-2.95-8.25-2.95-1.23 0-2.25-0.45-2.25-1 0-0.55 1.02-1.11 2.25-1.25q2.25-0.25 2.25-2.25c0-1.36-0.79-2.11-2.5-2.36-2.07-0.31-2.28-0.14-1.23 1 1.01 1.1 1.01 1.58 0 2.49-0.7 0.62-2.39 1.49-3.77 1.93-2.11 0.67-2.38 0.53-1.75-0.88 0.42-0.92 0.75-2.13 0.75-2.68 0-0.55 0.79-1.21 1.75-1.46 0.97-0.26-0.61-0.26-3.5 0-4.77 0.42-5.38 0.24-6.75-2.04-0.82-1.37-1.95-2.27-2.5-2-0.57 0.29-0.78-0.35-0.5-1.5 0.33-1.29-0.36-2.79-1.96-4.25-1.44-1.31-2.48-3.39-2.5-5-0.03-2.13 0.35-2.64 1.71-2.29 0.97 0.25 4.9 0.99 8.75 1.63 3.85 0.65 8.02 1.57 9.25 2.05 1.43 0.55 2.11 1.5 1.87 2.61-0.22 0.97-0.68 2.43-1.04 3.25-0.5 1.16 0.44 1.7 4.14 2.37 2.63 0.48 5.55 1.38 6.48 2 1.35 0.9 1.45 1.43 0.5 2.56-0.66 0.78 0.14 0.56 1.77-0.5 2.8-1.82 2.85-1.94 0.75-2.18-2.02-0.22-2.15-0.6-1.47-4.26l0.75-4.01-10.5 1.02c0.8-7.16 0.6-9 0-9-0.55 0-0.77 0.45-0.5 1 0.31 0.62-0.36 0.73-1.75 0.29-1.36-0.43-2-0.33-1.62 0.25 0.36 0.54-0.3 0.82-1.5 0.63-1.58-0.25-2.06-0.96-1.88-2.75 0.23-2.24-0.09-2.42-4.27-2.42-3.15 0-4.67 0.46-5 1.5zm-261.48 7.83c-3.02 0.7-6.51 1.81-7.75 2.47-2.06 1.11-2.3 2.12-2.84 12.45-0.33 6.19-0.44 12.83-0.25 14.75 0.32 3.32 0.53 3.49 3.84 3.31 1.93-0.1 13.63-0.72 26-1.36 12.38-0.65 22.61-1.24 22.74-1.31 0.13-0.08 0.91-5.76 1.74-12.64 0.83-6.87 1.51-12.72 1.51-13 0.01-0.27-2.8-0.5-6.24-0.5-4.61 0-7.56-0.64-11.25-2.45-3.9-1.92-6.86-2.52-13.5-2.73-4.67-0.14-10.97 0.31-14 1.01zm232.62 0.92c-0.44 1.95-0.11 3.18 1.13 4.22 0.97 0.81 2.09 1.48 2.5 1.5 0.42 0.02-0.6 1.83-2.25 4.03-2.85 3.81-2.94 4.2-1.75 8.03 0.69 2.21 1.4 4.01 1.57 4 0.18-0.02 0.97-0.7 1.75-1.53 0.79-0.82 3.35-1.77 5.68-2.11 2.34-0.34 4.83-0.9 5.54-1.25 0.89-0.44-0.51-2.58-4.5-6.88-3.18-3.43-6.14-5.9-6.56-5.5-0.43 0.41-0.78-0.38-0.77-1.76 0.01-1.37-0.38-3.17-0.86-4-0.68-1.17-1-0.9-1.48 1.25zm131.13 0.28c-2.61 1.36-5.65 2.47-6.75 2.47-1.6 0-2.1 0.84-2.51 4.25-0.27 2.34-0.95 8.3-1.51 13.25-0.55 4.95-0.88 9.11-0.74 9.25 0.15 0.13 10.84 0.78 23.76 1.44 12.93 0.65 24.4 0.85 25.5 0.44 1.92-0.72 1.97-1.33 1.3-14.94-0.5-9.97-1.09-14.4-2-14.91-0.71-0.39-4.33-1.41-8.05-2.25-3.71-0.84-10.68-1.51-15.5-1.5-7.33 0.02-9.52 0.43-13.5 2.5zm-207.38 2.25c-1.28 1.18-1.78 2.82-1.59 5.22 0.15 1.94-0.41 4.51-1.25 5.75-1.52 2.25-1.51 2.25 3.72 2.22 3.62-0.02 6.03 0.55 7.75 1.84 1.38 1.03 3.97 2.4 5.75 3.03 2.93 1.05 3.2 0.99 2.7-0.59-0.31-0.96-0.81-2.87-1.12-4.25-0.51-2.24-0.43-2.33 0.8-0.79 1.28 1.58 1.57 1.53 4.12-0.75 1.54-1.38 2.53-3.12 2.25-3.96-0.31-0.93-1.15-1.26-2.25-0.87-0.96 0.34-3.77 0.1-6.25-0.55-2.47-0.65-6.18-1.61-8.25-2.13-2.88-0.73-3.83-1.52-4.13-3.42-0.36-2.36-0.46-2.4-2.25-0.75zm24.18 3.22c-0.3 0.55 0.11 2.02 0.91 3.25l1.45 2.25 0.59-5.7c4.68 3.57 5.5 5.11 5.5 7.2 0 2.34-0.44 3-2 3-1.24 0-2.21-0.85-2.56-2.25-0.31-1.23-0.76-1.91-1-1.5-0.24 0.42 0.07 1.77 0.7 3 0.62 1.24 1.3 2.37 1.5 2.5 0.2 0.14 1.26-0.2 2.36-0.75q2-1 2-4c0-2.11-0.89-3.74-3-5.5-1.65-1.37-3.65-2.5-4.45-2.5-0.8 0-1.7 0.45-2 1zm-71.16 9.7c0.09 1.43-1.62 1.94-10.39 3.1-5.77 0.77-10.72 1.59-11 1.82-0.27 0.23 1 1.87 2.84 3.65 2.88 2.8 3.18 3.54 2.25 5.48-0.6 1.24-0.97 2.48-0.84 2.76 0.14 0.28 0.82-0.85 1.5-2.5 1.16-2.77 1.04-3.21-1.5-5.57l-2.75-2.56c7.75 1.02 10.34 1.5 10.75 1.72 0.42 0.22 0.75 1.08 0.75 1.9 0 1.26 0.79 1.16 4.75-0.57 2.62-1.15 5.06-2.61 5.44-3.25 0.39-0.65 0.27-1.63-0.26-2.18-0.61-0.64-0.39-1.53 0.61-2.5 1.25-1.19 1.3-1.65 0.27-2.23-0.72-0.41-1.59-0.74-1.92-0.75-0.34-0.01-0.57 0.75-0.5 1.68zm313 10.3c0 6.88 0.16 9.58 0.35 6 0.2-3.57 0.2-9.2 0-12.5-0.19-3.3-0.35-0.37-0.35 6.5zm-168.39 9c-1.37 0.45-3.85 1.11-5.5 1.45-1.78 0.37-2.59 0.96-2 1.46 0.55 0.45 3.14 1.56 5.75 2.46l4.75 1.63c0-6.2-0.11-7.96-0.25-7.92-0.13 0.05-1.37 0.46-2.75 0.92zm-263.31 0.75c-0.35 0.42-0.43 1.09-0.16 1.5 0.26 0.42 4.86 0.79 10.22 0.84 5.37 0.04 12.38 0.38 15.59 0.75 3.21 0.36 6.02 0.33 6.25-0.09 0.23-0.41 2.33-1.06 4.66-1.45l4.25-0.7c-7.75-1.1-16.78-1.46-25.08-1.51-8.3-0.05-15.37 0.25-15.73 0.66zm101.78 0.5c-0.27 0.69-1.05 1.28-1.73 1.31-0.68 0.03-2.72 0.71-4.53 1.5-1.81 0.79-3.27 1.78-3.25 2.19 0.03 0.42 0.49 0.98 1.04 1.25 0.55 0.28 1.45 1.4 2 2.5 0.83 1.66 0.57 2.22-1.53 3.25-1.39 0.69-2.51 1.82-2.5 2.5 0.02 0.69 1.05 1.46 2.28 1.71 1.24 0.25 2.44 0.25 2.67 0 0.23-0.25-0.11-0.46-0.75-0.46-0.64 0-1.16-0.56-1.15-1.25 0-0.68 1.24-2.2 2.75-3.37l2.73-2.12c-6.88-3.44-6.93-3.55-5-4.93 1.1-0.78 2.68-1.23 3.5-1 0.83 0.23 2.18-0.09 3-0.71 0.83-0.62 1.57-1.68 1.65-2.37 0.09-0.69-0.04-1.25-0.27-1.25-0.24 0-0.65 0.57-0.91 1.25zm291.03-0.35c-1.87 0.72-1.84 0.81 0.5 1.41 1.38 0.35 5.88 0.35 10 0.01 4.78-0.4 6.78-0.88 5.5-1.33-1.1-0.38-4.7-0.74-8-0.79-3.3-0.04-6.9 0.27-8 0.7zm-392.33 7.25c0.28 1.82 2.12 2.66 11.83 5.46 6.33 1.82 13.42 3.56 15.75 3.85 2.34 0.3 4.26 0.21 4.28-0.21 0.01-0.41-4.15-1.78-9.25-3.04-7.25-1.79-9.52-2.77-10.37-4.5-0.72-1.44-2.45-2.46-5-2.95-2.15-0.4-4.73-0.74-5.74-0.75-1.31 0-1.73 0.6-1.5 2.14zm156.34 2.54c-1.09 0.25-1.87 0.54-1.72 0.64 0.14 0.09-1.32 3.66-3.26 7.92l-3.53 7.75c9.83-0.14 10.15-0.27 7.75-1.08-1.51-0.5-2.75-1.37-2.75-1.92 0-0.55 1.35-1.67 3-2.5 1.65-0.82 3.92-2.73 5.04-4.25 1.12-1.51 2.02-3.76 2-5-0.03-1.69-0.6-2.22-2.29-2.13-1.23 0.06-3.14 0.32-4.24 0.57zm118.46 5.06c-0.02 0.42 0.88 1.54 2 2.5 1.12 0.97 2.48 1.53 3.03 1.25 0.55-0.27 1-1.4 1-2.5 0-1.55-0.66-2-3-2-1.65 0-3.01 0.34-3.03 0.75zm-271.46 2.94c-1.09 0.25-1.89 0.99-1.76 1.64 0.13 0.64 0.57 2.72 0.99 4.61 0.73 3.28 1.49 3.78 17.01 11.25 8.94 4.3 16.48 8.26 16.75 8.81 0.28 0.55 1.29 0.98 2.25 0.96 0.97-0.03 2.43 0.7 3.25 1.6 0.83 0.91 3.7 2.62 6.38 3.8 2.69 1.18 5.28 2.93 5.75 3.89 0.48 0.97 2.79 2.57 5.12 3.57 2.34 1 5.72 3.25 7.5 5 1.79 1.75 3.93 3.18 4.75 3.18 0.83 0 3.75 2.48 6.5 5.5 2.75 3.03 5.34 5.51 5.75 5.52 0.42 0.01 3.69 2.82 7.27 6.25 3.59 3.43 7.19 7.23 8 8.46l1.48 2.22c15.5-2.3 24.28-3.64 29.5-4.46 5.23-0.82 9.73-1.71 10-1.98 0.28-0.27 0.17-1.17-0.25-2-0.41-0.83-3.78-3.49-7.5-5.91-3.71-2.42-7.87-5.61-9.25-7.09-1.37-1.48-3.73-3.33-5.25-4.1-1.51-0.77-3.87-2.53-5.25-3.91-1.37-1.37-3.06-2.48-3.75-2.46-0.68 0.01-2.15-0.9-3.25-2.04-1.1-1.13-2.9-2.05-4-2.05-1.1 0.01-3.12-1.01-4.5-2.27-1.37-1.26-5.2-3.88-8.5-5.82-3.3-1.94-7.57-4.12-9.5-4.85-1.92-0.73-4.4-2.15-5.5-3.15-1.1-1-2.9-1.81-4-1.8-1.1 0.01-3.12-0.84-4.5-1.88-1.37-1.04-5.42-3.27-9-4.95-3.57-1.68-7.62-3.37-9-3.75-1.37-0.39-3.85-1.26-5.5-1.95-1.65-0.68-4.23-1.76-5.75-2.39-1.51-0.62-3.53-1.13-4.5-1.12-0.96 0-3.55-0.85-5.75-1.91-2.2-1.05-6.7-2.63-10-3.49-3.3-0.87-6.9-1.54-8-1.48-1.1 0.05-2.89 0.3-3.99 0.55zm380.99 2.24c-3.3 0.99-7.35 2.37-9 3.09-1.65 0.71-3.45 1.36-4 1.45-0.55 0.08-1.9 0.51-3 0.96-1.1 0.45-4.02 1.74-6.5 2.88-2.47 1.13-4.72 2.36-5 2.73-0.27 0.37-3.42 2.09-7 3.82-3.57 1.73-7.31 3.15-8.3 3.15-0.98 0-2.56 0.91-3.5 2.03-0.93 1.11-2.48 2.01-3.45 2-0.96-0.02-3.55 1.09-5.75 2.46-2.2 1.38-4.33 2.52-4.75 2.53-0.41 0.02-3 1.53-5.75 3.37-2.75 1.84-5.67 4.09-6.5 5-0.82 0.92-2.62 1.87-4 2.12-1.37 0.26-3.62 1.6-5 3-1.37 1.39-2.95 2.51-3.5 2.47-0.55-0.03-3.07 1.87-5.6 4.23-4.3 4-4.62 4.64-4.82 9.78-0.11 3.03 0.06 7.08 0.4 9 0.58 3.36 0.87 3.57 7.31 5.24 3.69 0.95 7.61 1.72 8.71 1.71 1.25-0.02 3.69-2.24 6.5-5.92 2.48-3.24 5.39-6.03 6.47-6.21 1.08-0.17 3.02-1.89 4.31-3.82 1.29-1.92 3.18-3.72 4.21-4 1.02-0.27 3.5-1.85 5.5-3.5 2-1.65 6.08-5.13 9.07-7.75 2.99-2.61 6.68-5.37 8.19-6.14 1.52-0.77 3.65-2.36 4.75-3.53 1.1-1.18 2.9-2.15 4-2.15 1.1 0 3.58-1.34 5.5-2.98 1.93-1.63 4.29-2.96 5.25-2.96 0.97 0.01 1.75-0.44 1.75-0.99 0-0.55 1.47-1.63 3.25-2.41 1.79-0.77 4.38-2.28 5.75-3.35 1.38-1.07 4.75-2.93 7.5-4.12 2.75-1.19 5.57-2.15 6.25-2.14 0.69 0.01 1.25-0.43 1.25-0.98 0-0.55 1.47-1.53 3.25-2.19 1.79-0.65 4.6-1.44 6.25-1.75 1.71-0.32 3-1.19 3-2.01 0-0.95-2.64-2.27-7.5-3.75-4.12-1.26-7.95-2.26-8.5-2.22-0.55 0.04-3.7 0.87-7 1.85zm-216 5.65c-1.11 0.85-2.99 1.27-4.25 0.97-2.05-0.5-2.25-0.19-2.25 3.45 0 2.34 0.42 3.8 1 3.5 0.55-0.27 2.02 0.28 3.25 1.24 1.81 1.39 1.71 1.09-0.5-1.5-1.51-1.78-2.52-3.69-2.25-4.24 0.28-0.55 1.29-1.01 2.25-1.02 0.97-0.02 2.43-0.79 3.25-1.71 1.31-1.47 1.67-1.5 2.83-0.23 1.16 1.28 1.27 1.28 0.9-0.04-0.24-0.82-0.83-1.59-1.33-1.71-0.49-0.12-1.8 0.46-2.9 1.29zm128.02 1.96c0.27 0.8 0.93 1.24 1.48 0.96 0.55-0.27 1.88 0.07 2.96 0.75 1.07 0.69 2.31 0.91 2.75 0.49 0.43-0.42 0.34-1.15-0.21-1.62-0.55-0.47-2.45-1.12-4.23-1.45-2.56-0.47-3.13-0.29-2.75 0.87zm-157.45 5.27c-1.34 0.93-3.81 1.69-5.49 1.69-2.24 0-3.15 0.53-3.45 2-0.35 1.67-0.06 1.88 1.73 1.25 1.57-0.55 2.14-0.35 2.14 0.75 0 0.83-1.01 2.41-2.25 3.52-1.23 1.11-1.91 2.01-1.5 2 0.42-0.01 1.77-1.13 3-2.49l2.25-2.48c3.1 3.56 4.18 5.24 4.41 6.02 0.22 0.79 0.44 2.18 0.5 3.1 0.07 1.29 0.38 1.4 1.36 0.5 1.01-0.94 1.01-1.43 0-2.54-0.92-1-1.07-3.26-0.55-8.25 0.39-3.78 0.62-6.85 0.5-6.82-0.12 0.03-1.31 0.81-2.65 1.75zm-132.13 9.94c1.58 4.27 3.89 10.45 5.13 13.75 1.25 3.3 4.26 9.83 6.7 14.5 2.43 4.68 6.84 12.1 9.78 16.5 2.94 4.4 7.06 9.94 9.15 12.3 2.09 2.36 4.48 4.26 5.3 4.23 0.89-0.03 0.52-0.56-0.92-1.29-1.33-0.68-2.65-1.91-2.93-2.74-0.43-1.28 0.41-1.38 5.92-0.66 3.54 0.45 6.66 1.24 6.93 1.74 0.29 0.52 5.08 0.17 11.32-0.84 6-0.96 10.45-2.12 10-2.6-0.46-0.49 0.61-0.6 2.43-0.25 1.91 0.36 3.25 0.2 3.25-0.39 0-0.55-0.45-1-1-1-0.55 0-1.45-1.35-2-3-0.55-1.65-1.56-2.99-2.25-2.98-0.68 0-2.11-1.46-3.16-3.25-1.05-1.8-3.41-4.5-5.25-6.02-1.83-1.51-3.34-3.42-3.34-4.25 0-0.83-0.89-1.5-2-1.5-1.1 0-3.01-1.15-4.25-2.56-1.23-1.41-2.49-3.55-2.79-4.75-0.3-1.2-1.43-2.37-2.5-2.58-1.08-0.22-4.66-2.42-7.96-4.89-3.3-2.46-6.78-5.55-7.75-6.85-0.96-1.3-2.65-2.37-3.75-2.37-1.1 0-2.78-0.83-3.75-1.86-0.96-1.02-4.67-3.22-8.25-4.89-3.57-1.66-6.83-3.75-7.25-4.64-0.41-0.88-1.31-1.59-2-1.56-0.68 0.02-1.92-0.67-2.75-1.55-0.82-0.87-1.82-1.57-2.21-1.54-0.39 0.02 0.57 3.53 2.15 7.79zm395.47-5.86c-0.38 0.49-1.78 1.21-3.12 1.6-1.33 0.39-5.65 3.09-9.6 5.99-3.95 2.91-8.65 5.57-10.44 5.91-1.78 0.34-3.24 1.18-3.22 1.86 0.01 0.69-1 2.26-2.25 3.48-1.25 1.23-3.06 2.24-4.03 2.25-0.96 0.01-2.2 0.92-2.75 2.02-0.55 1.1-1.78 1.99-2.75 1.98-0.96-0.01-2.55 0.77-3.53 1.75-0.98 0.98-2.55 2.73-3.5 3.9-0.94 1.17-2.62 2.3-3.72 2.51-1.1 0.22-2.93 2.19-4.07 4.38-1.31 2.5-2.98 4.18-4.5 4.52-1.56 0.35-2.52 1.34-2.68 2.75-0.13 1.22-0.7 2.21-1.25 2.21-0.55 0-1.22 0.9-1.5 2-0.27 1.1-1.17 2-2 2-0.82 0-1.69-0.56-1.92-1.25-0.23-0.68-0.45-0.46-0.5 0.5-0.04 0.97-0.85 2.99-1.8 4.5-0.95 1.52-2.3 3.09-3 3.5-0.7 0.42-1.1 1.09-0.89 1.5 0.21 0.42 3.47 1.14 7.25 1.6 3.77 0.47 11.36 1.7 16.86 2.74 6.54 1.23 10.33 1.54 10.95 0.9 0.53-0.54 1.88-0.97 3-0.95 2.05 0.03 2.05 0.03 0.05 1.51-1.1 0.82-1.55 1.47-1 1.44 0.55-0.03 2.02-0.94 3.25-2.02 1.24-1.08 2.25-2.42 2.25-2.97 0-0.55 0.82-1.56 1.81-2.25 1-0.68 3.93-4.28 6.5-8 2.58-3.71 6.89-10.68 9.58-15.5 2.68-4.81 6.46-12.8 8.38-17.75 1.93-4.95 4.23-11.25 5.13-14 0.89-2.75 1.62-5.11 1.61-5.25 0-0.13-0.43-0.25-0.96-0.25-0.52 0-1.26 0.4-1.64 0.89zm-99.41 3.34c1.93 2.04 3.84 3.49 4.25 3.24 0.42-0.26 0.72-1.93 0.69-3.72-0.06-2.97-0.14-3.05-1-1-0.52 1.24-1.27 2.24-1.69 2.23-0.41-0.01-1.87-1.02-3.25-2.24-1.37-1.22-0.92-0.55 1 1.49zm-200.32 0.6c-1.73 0.64-1.72 0.78 0.25 2.67 1.15 1.1 2.26 1.78 2.48 1.5 0.22-0.27 0.48-1.35 0.56-2.39 0.09-1.03-0.2-2.01-0.65-2.17-0.45-0.16-1.64 0.02-2.64 0.39zm-97.7 25.42c0.01 0.42 1.37 3.45 3.02 6.75 1.65 3.3 3.23 6 3.5 6 0.28 0-0.9-2.81-2.62-6.25-1.71-3.43-3.3-6.47-3.52-6.75-0.23-0.27-0.4-0.16-0.38 0.25zm176.02 19.73c-2.47 0.98-18.11 3.86-34.75 6.4-16.63 2.54-31.48 4.65-33 4.69-2.08 0.05-1.53 0.43 2.25 1.54 2.75 0.81 8.94 1.9 13.75 2.43 4.82 0.53 9.09 1.15 9.5 1.37 0.42 0.22 4.92-0.23 10-1 5.5-0.84 9.96-1.06 11-0.55 0.97 0.48 1.3 1.12 0.75 1.43-0.55 0.3-4.37 1.27-8.5 2.13-4.12 0.87-9.52 1.59-12 1.6-4.27 0.02-4.39-0.06-2.5-1.55 1.91-1.5 1.84-1.55-1.5-1.17-1.92 0.21-7.32 1.16-12 2.11-4.67 0.94-16.82 3.66-27 6.04-10.17 2.39-21.32 4.95-24.77 5.7-3.45 0.74-6.27 1.58-6.27 1.85-0.01 0.28 1.02 1.45 2.27 2.6 1.25 1.16 2.95 2.37 3.77 2.69 0.83 0.32 1.95 0.18 2.5-0.32 0.55-0.5 4.83-2.05 9.5-3.46 4.68-1.41 15.25-3.92 23.5-5.58 11.72-2.36 17.3-2.99 25.5-2.86 10.35 0.16 10.8 0.07 31-6.32 11.28-3.57 23.99-7.56 28.26-8.87 4.27-1.31 7.75-2.71 7.75-3.13 0-0.41 1.01-0.51 2.24-0.23 2.07 0.48 2.09 0.45 0.25-0.43-1.1-0.52-4.25-0.92-7-0.88-4.63 0.05-4.74 0.11-1.5 0.75 2.25 0.45 2.97 0.92 2 1.32-0.82 0.33-4.2 1.29-7.5 2.11-3.3 0.83-8.92 2.04-12.5 2.68-4.36 0.79-7.15 0.85-8.5 0.19-1.62-0.8-0.23-1.34 7.26-2.87 5.1-1.04 9.26-2.22 9.25-2.64 0-0.41 0.67-0.52 1.49-0.25 0.83 0.28 1.28 0.05 1-0.5-0.27-0.55 0.18-1.22 1-1.5 0.83-0.27 1.52-0.83 1.53-1.25 0.02-0.41-1.1-1.42-2.48-2.25-1.85-1.1-2.23-1.82-1.46-2.75 0.58-0.68 0.91-1.2 0.73-1.14-0.17 0.05-2.34 0.9-4.82 1.87zm61.11 3.43c-0.06 0.33 2.59 2.17 5.89 4.09 3.3 1.93 5.89 3.73 5.75 4.01-0.13 0.29-4.3 0.05-9.25-0.53-4.95-0.57-10.57-1.3-12.5-1.62-3.3-0.55-3.38-0.49-1.5 0.95 1.83 1.39 1.53 1.43-3.5 0.53-3.02-0.54-5.95-1.41-6.5-1.93-0.64-0.61-0.29-0.96 1-0.99l2-0.06c-3.1-1.33-5.57-1.77-7.5-1.83-1.92-0.06-4.06 0.51-4.74 1.28-1.04 1.17-0.14 1.69 5.5 3.17 3.71 0.97 9.67 2.68 13.24 3.78 3.58 1.11 6.95 2.38 7.5 2.83 0.55 0.45 4.6 1.73 9 2.84 4.4 1.12 11.94 3.39 16.75 5.05 4.82 1.66 9.2 3.02 9.75 3.02 0.55 0 0.78-0.45 0.5-1-0.31-0.63 2.74-0.99 8.25-0.97 4.82 0.02 8.53-0.19 8.25-0.45-0.27-0.26-6.12-1.64-13-3.05-6.87-1.42-14.87-3.13-17.77-3.8-2.89-0.68-5.26-1.56-5.25-1.98 0.01-0.41 1.71-1.01 3.77-1.32 2.07-0.32 6.68 0.1 10.25 0.94 3.58 0.83 8.87 1.99 11.75 2.58 2.89 0.58 5.59 1.05 6 1.04 0.42-0.01 0.08-0.42-0.75-0.91-0.82-0.5-1.22-1.5-0.89-2.24 0.33-0.73 3.48-2.22 7-3.31l6.39-1.97c-12.4-1.98-20.95-3.24-27-4.08-6.05-0.83-12.57-1.92-14.5-2.41-1.92-0.5-5.81-1.21-8.64-1.58-2.83-0.37-5.19-0.41-5.25-0.08zm-37.24 5.16c-0.83 1.52-4.5 4.06-9.37 6.47-4.4 2.18-8.67 3.98-9.5 3.99-1.17 0.03-1.11 0.25 0.25 1 1.44 0.8 1.53 1.25 0.5 2.52-0.68 0.85-1.58 1.52-2 1.5-0.41-0.03-0.75-0.95-0.75-2.05 0-1.1-0.56-1.99-1.25-1.98-0.68 0-4.85 1.61-9.25 3.57-4.4 1.96-10.92 4.61-14.5 5.88-3.57 1.27-8.63 3.26-11.25 4.42-2.61 1.16-5.65 2.11-6.75 2.11-1.1 0-1.77 0.45-1.5 1 0.28 0.55-0.17 2.35-1 4-0.83 1.67-1.05 3-0.5 3 0.55 0 1.23 0.79 1.51 1.75 0.27 0.97-0.06 2.43-0.74 3.25-0.9 1.11-0.71 1.07 0.75-0.12 1.09-0.89 3.78-2.43 5.98-3.43 2.2-0.99 5.13-2.57 6.5-3.5 1.38-0.93 7.14-4.12 12.8-7.07 6.56-3.42 10.6-5.01 11.14-4.38 0.47 0.55 1.12 2.47 1.46 4.25 0.53 2.84 0.25 3.43-2.15 4.63-1.51 0.76-3.42 2.19-4.25 3.17-0.9 1.08 0.29 0.65 3-1.09 2.48-1.59 8.3-5.6 12.95-8.92 7.17-5.13 9.24-6.11 13.78-6.54 4.69-0.44 5.68-0.19 8.06 2 1.49 1.38 5.19 5.41 8.21 8.96 3.03 3.55 6.81 7.6 8.4 9 1.59 1.4 3.62 2.96 4.5 3.47 1.42 0.82 1.44 0.7 0.22-1-0.76-1.06 0.13-0.35 1.96 1.57 1.84 1.93 3.92 3.39 4.63 3.25 0.71-0.13 2.19 0.2 3.29 0.75q2 1 2 0c0-0.55 1.69-1.49 3.75-2.08 2.07-0.6 4.43-0.81 5.25-0.47 0.83 0.34 0.15-0.52-1.5-1.91-1.65-1.4-4.57-3.29-6.5-4.22-1.92-0.92-9.12-5.4-16-9.93-6.87-4.54-14.75-10.34-17.5-12.89-3.87-3.59-4.73-4.91-3.8-5.82 0.93-0.91 4.15 0.31 14 5.27 7.04 3.55 15.05 7.87 17.8 9.59 2.75 1.72 10.85 6.22 18 9.99 7.15 3.77 14.58 7.66 16.5 8.65 2.68 1.38 3.66 1.51 4.19 0.56 0.39-0.68 0.34-1.69-0.09-2.24-0.43-0.55-1.53-2.91-2.44-5.25-1.24-3.17-1.34-4.24-0.41-4.22 0.69 0.02 0.88-0.32 0.42-0.75-0.45-0.43-2.93-1.53-5.5-2.46-2.57-0.93-7.59-2.74-11.17-4.03-3.57-1.29-6.95-2.61-7.5-2.93-0.55-0.32-2.35-0.91-4-1.31-1.65-0.4-7.27-2.51-12.5-4.69-5.22-2.18-13.27-5.86-17.88-8.16-4.6-2.31-8.65-4.58-9-5.06-0.34-0.47 0.06-1.2 0.88-1.62q1.52-0.77 0.37-1.36c-0.62-0.32-1.74 0.54-2.5 1.91zm92.3 15.05c-0.07 1.04-0.59 2.33-1.15 2.88q-1.02 1 5.24 2.35c3.43 0.74 8.27 1.96 10.74 2.71 2.48 0.76 7.77 2.29 11.75 3.41 3.99 1.12 9.17 2.05 11.5 2.07 2.87 0.02 5.23-0.69 7.25-2.19l3-2.23c-3.87-1.33-8.15-2.4-12-3.24-3.85-0.84-12.17-2.62-18.5-3.97-6.32-1.34-12.89-2.72-14.59-3.06-2.56-0.5-3.12-0.28-3.24 1.27zm-172.22 16.38c0.79 1.5 0.74 2-0.2 1.98-0.68-0.02-0.91 0.21-0.5 0.5 0.42 0.29 3.12-0.57 6-1.92l5.25-2.44c-11.31-0.11-11.56-0.01-10.55 1.88zm79.3-0.52c0.42 0.29-0.29 1.54-1.55 2.77-1.27 1.24-4.87 5.52-8 9.5-3.14 3.99-6.03 7.24-6.45 7.22-0.41-0.02-3.67-0.87-7.25-1.89-4.39-1.25-6.38-2.3-6.15-3.22 0.2-0.74-1.62 0.44-4.04 2.64-2.42 2.2-7.63 6.03-11.59 8.5-3.96 2.48-7.2 5.07-7.21 5.75 0 0.69 1.68 1.66 3.74 2.17 2.07 0.5 6.07 1.29 8.9 1.75 3.48 0.56 5.75 0.47 7-0.31 1.02-0.62 9.95-2.13 19.85-3.35 9.9-1.21 19.58-2.31 21.5-2.44 1.93-0.12 4.18-0.58 5-1.02 0.83-0.44 3.64-0.51 6.25-0.17 2.92 0.38 4.75 0.24 4.75-0.38 0-0.55-0.33-0.98-0.75-0.97-0.41 0.02-3-2.08-5.75-4.66-2.75-2.58-7.19-7.66-9.86-11.28-2.67-3.62-5.37-7.61-6-8.87-0.63-1.25-1.59-2.27-2.14-2.27-0.55 0-0.66 0.24-0.25 0.53zm107.75 2.44c1.38 1.12 2.84 2.05 3.25 2.06 0.42 0.01 0.42 0.59 0.01 1.27-0.43 0.74-0.33 0.98 0.25 0.59 0.55-0.36 1.89-0.01 2.99 0.79 1.72 1.25 1.79 1.59 0.5 2.4q-1.49 0.94-0.25 0.96c0.69 0.01 1.7-0.89 2.25-1.99 0.55-1.1 1-2.33 1.01-2.75 0-0.41-1.69-1.48-3.75-2.37-2.07-0.89-4.88-1.93-6.26-2.31l-2.5-0.69zm-220.5 1.21c-2.75 1.11-5.45 2.39-6 2.85-0.6 0.51 0.77 1.85 3.5 3.41 2.48 1.41 4.95 2.57 5.5 2.56 0.55 0 0.22-0.44-0.75-0.98-1.65-0.91-1.64-1.19 0.25-4.97 1.1-2.2 2.57-4.19 3.25-4.42 0.69-0.23 0.8-0.43 0.25-0.44-0.55-0.02-3.25 0.88-6 1.99zm147.62 13.59c0.82 1.37 0.47 3.1-1.53 7.53-2.21 4.92-2.81 5.57-4.11 4.5-0.84-0.68-1.74-1.02-2-0.75-0.26 0.28 1.67 2.03 4.28 3.9 4.3 3.07 5.16 3.32 9.24 2.68 2.48-0.39 6.19-1.13 8.25-1.64 2.07-0.52 3.71-1.53 3.67-2.24-0.05-0.72-1.89-2.64-4.1-4.25-2.21-1.62-6.43-4.88-9.39-7.23-2.95-2.36-4.89-3.49-4.31-2.5zm-104.62 6.37c-4.29 2.65-5.35 2.93-7.5 1.98-1.37-0.62-2.61-0.99-2.75-0.84-0.14 0.15 0.98 0.86 2.5 1.59 2.52 1.2 3.19 1.03 8.04-2 2.91-1.83 5.27-3.43 5.25-3.57-0.02-0.13-0.15-0.25-0.29-0.25-0.14 0-2.5 1.39-5.25 3.09zm138.5-0.09c3.03 1.6 6.4 2.89 7.5 2.87 1.6-0.03 1.5-0.19-0.5-0.8-1.37-0.42-4.41-1.73-6.75-2.92-2.33-1.18-4.58-2.13-5-2.1-0.41 0.03 1.73 1.36 4.75 2.95z"/>
		<path id="Path 2" class="s2" d="m315 256.65c-2.02 1.29-2.45 2.29-2.24 5.22 0.15 2 0.81 5.21 1.49 7.13 0.67 1.93 2.24 4.51 3.48 5.75 1.53 1.51 3.5 2.26 6.02 2.28 2.35 0.02 4.36-0.63 5.39-1.75 0.91-0.98 2.21-4.25 2.89-7.28 1.07-4.74 1.03-5.85-0.32-8-1.1-1.76-2.86-2.72-5.89-3.24-2.38-0.4-5.22-0.95-6.32-1.22-1.1-0.27-3.12 0.23-4.5 1.11zm-74.02 4.66c-2 1.96-2.33 3.2-2.17 8 0.19 5.68 0.2 5.69 3.94 6.68 2.06 0.54 6.15 1.55 9.08 2.25 5.2 1.23 5.38 1.2 7.23-1.24 1.34-1.77 1.9-4.18 1.92-8.25 0.02-5.42-0.17-5.86-3.23-7.75-2.22-1.36-5.01-1.99-8.83-2-4.49 0-6.04 0.45-7.94 2.31zm96.55 38.32c-0.47 0.39-0.79 3.33-0.7 6.54 0.1 3.21 0.85 7.41 1.67 9.33l1.5 3.5c11.98 0.06 13.87-0.34 15.13-1.72 0.89-0.98 2.24-3.48 3-5.56 1.18-3.25 1.16-4.36-0.13-8l-1.5-4.22c-14.03-0.44-18.49-0.25-18.97 0.13zm22.67 31.37c-0.66 1.1-1.2 3.58-1.2 5.5 0 2.42 0.54 3.7 1.75 4.15 0.96 0.36 2.83 0.25 4.15-0.25 1.31-0.49 2.89-1.67 3.5-2.6 0.84-1.3 0.69-2.54-0.65-5.25-1.25-2.53-2.41-3.55-4.05-3.55-1.27 0-2.84 0.9-3.5 2zm-144.63 1.57c-2.65 1.35-2.91 1.94-2.79 6.21 0.11 3.72 0.73 5.31 2.93 7.51 2.47 2.47 3.51 2.78 9.04 2.75 5.57-0.04 6.25-0.26 6.25-2.04 0-1.1 0.45-2.23 1-2.5 0.55-0.27 1-3.42 1-7v-6.5c-11.63 0.06-15.66 0.67-17.43 1.57z"/>
		<path id="Path 3" fill-rule="evenodd" class="s3" d="m288.35 217.17c-0.64 0.73-1.88 3.69-2.75 6.58l-1.6 5.25c-5.18-5.92-5.85-6.23-6.59-5.01-0.66 1.07-0.56 1.28 0.34 0.75q1.25-0.73 1.25 1.26c0 1.23 0.48 1.79 1.25 1.44 0.69-0.3 1.59 0.15 2 1 0.63 1.31 1.55 1 5.75-1.94 2.75-1.92 4.99-4.06 4.98-4.75-0.01-0.69-0.8-2.3-1.75-3.58-1.41-1.89-1.94-2.08-2.88-1zm-37.77 10.33c-0.32 0.83-0.58 2.18-0.58 3 0 0.83 1.24 2.13 2.75 2.9 2.74 1.39 2.75 1.38 2.75-2.04 0-1.96-0.64-3.83-1.5-4.38-0.83-0.52-1.8-0.96-2.17-0.96-0.36-0.01-0.92 0.66-1.25 1.48zm54.61 5.53c-0.83 1.37-0.89 2.58-0.19 3.97 0.55 1.1 1.56 1.85 2.25 1.66 0.69-0.19 1.09-1.42 0.9-2.75-0.19-1.33-0.67-2.96-1.06-3.63-0.51-0.88-1.05-0.67-1.9 0.75zm8.08 0.22c-1.78 1.24-3.24 2.59-3.25 3-0.01 0.41 0.77 0.82 1.73 0.91 0.96 0.08 2.2 0.16 2.75 0.17 0.55 0.01 1.04 0.5 1.09 1.09 0.05 0.59 0.17 1.87 0.25 2.83 0.11 1.23 0.63 1.53 1.74 1 0.94-0.45 1.73-2.38 1.95-4.75 0.21-2.25-0.15-4.57-0.83-5.29-0.66-0.72-1.43-1.28-1.7-1.26-0.27 0.02-1.95 1.06-3.73 2.3zm-85.94 6.25c-1.5 3.48-1.88 5.53-1.25 6.75 0.51 0.96 1.59 1.53 2.42 1.25q1.5-0.5 1 1c-0.3 0.89 0.11 1.5 1 1.5 0.93 0 1.22-0.47 0.75-1.25-0.41-0.69-0.98-4.17-1.25-7.75l-0.5-6.5zm95.08 0.91c0.32 0.88 0.57 1.93 0.54 2.34-0.02 0.41 0.65 0.19 1.5-0.5 1.34-1.08 1.63-0.62 2.17 3.5 0.34 2.61 0.91 5.33 1.25 6.05 0.48 0.99 1.27 0.81 3.38-0.75 1.79-1.34 2.76-1.62 2.78-0.8 0.02 0.69 0.68 0.13 1.47-1.25 0.78-1.37 1.44-4.19 1.46-6.25 0.02-2.06-0.41-3.75-0.96-3.75-0.55 0-2.8 1.13-5 2.5l-4 2.5c-0.42-3.75-1.28-4.61-2.84-4.84-1.78-0.26-2.19 0.04-1.75 1.25zm15.59 10.55c-3.76 1.2-5.87 2.52-6.67 4.15-0.64 1.31-0.98 2.95-0.75 3.64 0.26 0.8 1.23 1 2.67 0.56 1.23-0.37 3.37-1.27 4.75-1.99 1.37-0.72 3.06-1.31 3.75-1.31 0.68-0.01 1.27-0.35 1.29-0.76 0.02-0.41-0.54-1.31-1.25-1.99-0.71-0.69-1.7-0.91-2.2-0.5-0.51 0.41-0.62 0.18-0.25-0.51 0.46-0.88 1.18-0.96 2.41-0.28 0.96 0.54 2.1 0.65 2.52 0.25 0.43-0.39 0.77-1.28 0.75-1.97-0.01-0.69-0.36-1.2-0.77-1.15-0.42 0.06-3.23 0.9-6.25 1.86zm-107.58 3.04c0.3 1.54-0.16 3.18-1.22 4.28-1.61 1.68-1.6 1.78 0.05 1.75 0.96-0.02 1.75-0.48 1.75-1.03 0-0.55 0.78-0.69 1.75-0.31 1.43 0.56 1.53 0.42 0.57-0.75-0.65-0.79-1.68-2.56-2.28-3.94l-1.1-2.5zm-10.38-0.34c-0.81 0.29-1.36 1.57-1.25 2.92 0.11 1.33 0.54 2.56 0.95 2.74 0.41 0.18 2.1 0.01 3.75-0.38 2.38-0.56 2.53-0.73 0.75-0.82-1.24-0.07-2.3-0.68-2.37-1.37-0.06-0.69-0.08-1.81-0.04-2.5 0.03-0.69-0.02-1.21-0.14-1.17-0.11 0.04-0.85 0.3-1.65 0.58zm-90.8 12.88c-1.79 0.8-3.45 2.25-3.69 3.21-0.25 0.96-0.93 6.25-1.53 11.75-0.59 5.5-1.32 11.57-1.6 13.5l-0.53 3.5c30.69 1.21 41.96 1.77 44.85 2.03 4.52 0.4 5.39 0.19 6.25-1.53 0.81-1.62 0.39-2.74-2.25-5.9-1.79-2.14-3.92-4.1-4.75-4.37-0.91-0.28-0.21-0.81 1.77-1.35 3.09-0.83 3.28-1.14 3.26-5.38 0-2.48 0.24-6.81 0.54-9.63l0.56-5.12c-9.79-1.73-18.7-2.22-26.13-2.2-9.63 0.02-14.43 0.45-16.75 1.49zm252.5-0.41c-5.58 0.84-5.77 0.98-6.5 4.49-0.41 2-1.09 3.8-1.5 4-0.41 0.21 0.76 2.29 2.61 4.63 1.85 2.34 3.65 5.71 4 7.5 0.46 2.33 0.22 3.53-0.86 4.25q-1.51 1.01-1.75-0.05c-0.14-0.57-0.81 0.33-1.5 2-0.7 1.72-0.81 2.83-0.25 2.55 0.55-0.27 2.91 0.92 5.25 2.66l4.25 3.17c35.65-1.99 46.08-2.63 46.18-2.7 0.1-0.07 0.66-4.18 1.25-9.13 0.58-4.95 1.28-10.91 1.56-13.25l0.51-4.25c-8.1 0-9.27-0.45-10.36-2.25-0.82-1.37-3.17-2.74-6-3.5-2.76-0.74-10.01-1.2-17.89-1.12-7.29 0.07-15.84 0.52-19 1zm-156.3 2.12c0.34 1.07-0.4 2.72-1.9 4.25-1.35 1.38-2.03 2.5-1.5 2.5 0.52 0 2.19-1.1 3.7-2.44 2.65-2.35 2.69-2.5 0.95-4.25-1.67-1.68-1.77-1.68-1.25-0.06zm47.02 5c-0.35 1.24-0.3 3.6 0.11 5.25 0.41 1.65 0.72 4.35 0.68 6-0.05 1.93 0.41 1.03 1.27-2.5 0.74-3.02 1.18-6.74 0.98-8.25-0.19-1.51-0.81-2.75-1.38-2.75-0.56 0-1.31 1.01-1.66 2.25zm-41.97 3.2c-1.32 1.35-2.43 3.38-2.45 4.5-0.03 1.13 0.85 2.5 1.95 3.05 1.61 0.81 2.29 0.56 3.51-1.25 0.83-1.24 1.5-3.71 1.5-5.5 0-1.79-0.48-3.25-1.05-3.25-0.58 0-2.13 1.1-3.46 2.45zm32.6 0.99c-0.05 1.41 0.46 3.7 1.15 5.09 0.69 1.39 2.04 2.51 3 2.5 1.23-0.02 1.76-0.85 1.78-2.78 0.02-1.51-0.77-3.47-1.75-4.35-0.98-0.88-2.3-1.92-2.93-2.31-0.74-0.46-1.18 0.19-1.25 1.85zm89.3 4.34c-1.03 0.2-1.77 0.78-1.64 1.29 0.13 0.51-0.1 1.68-0.51 2.6-0.63 1.42-0.36 1.56 1.75 0.9 1.38-0.43 3.09-1.3 3.8-1.93 1.06-0.93 1.04-1.33-0.1-2.18-0.78-0.58-2.26-0.88-3.3-0.68zm-171.37 1.91c-0.04 0.45 0.94 1.41 2.19 2.14 1.26 0.74 3.18 1.18 4.28 0.99 1.1-0.19 2-1.02 2-1.83 0-1.03-1.29-1.58-4.19-1.8-2.3-0.17-4.23 0.06-4.28 0.5zm239.47 22.37c-9.35 0.99-17.56 1.83-18.25 1.87-0.69 0.04-1.26 0.41-1.28 0.82-0.02 0.41 3.13 1.99 7 3.5 6.96 2.72 7.11 2.74 14.78 1.33 4.26-0.78 13.15-2.14 19.75-3.02 6.6-0.88 14.7-1.99 18-2.47 4.99-0.72 5.58-1 3.5-1.65-2.35-0.73-2.38-0.82-0.5-1.54 1.1-0.42-4.3-0.73-12-0.7-7.7 0.03-21.65 0.87-31 1.86zm-313.41 0.22c-2.42 0.67-4.57 1.67-4.76 2.22-0.2 0.58 5.05 1.76 12.41 2.8 7.02 0.98 16.14 2.41 20.26 3.18 4.13 0.76 9.08 1.57 11 1.8 1.93 0.23 5.08 0.03 7-0.44 2.79-0.69 3.27-0.61 2.36 0.4-0.88 0.98-0.61 1.21 1.25 1.01 1.32-0.14 2.39 0.2 2.39 0.75q0.01 0.99 3.25-0.02c1.79-0.56 3.61-1.35 4.06-1.75 0.44-0.4-0.29-2.08-1.62-3.73-2.16-2.67-3.22-3.08-9.81-3.72-4.06-0.4-10.98-1.18-15.38-1.73-4.4-0.56-12.5-1.23-18-1.5-6.31-0.31-11.62-0.04-14.41 0.73zm-20.09 1.77c2.48 0.44 6.75 0.77 9.5 0.74l5-0.07c-8.52-1.18-12.8-1.51-15-1.5l-4 0.03zm382 2.44c-4.67 0.66-13 1.78-18.5 2.49-9.87 1.27-10.3 1.44-34 13.55-13.2 6.74-25.69 12.87-27.76 13.61-2.07 0.75-3.76 1.81-3.75 2.36 0.01 0.55-1.13 1-2.53 1-1.4 0-2.3-0.34-2-0.75 0.3-0.41 0.2-0.93-0.21-1.16-0.41-0.22-0.75 0.91-0.75 2.5 0 1.6 0.11 2.91 0.25 2.91 0.14 0 4.41-1.84 9.5-4.09 5.09-2.25 10.6-4.7 12.25-5.45 1.65-0.75 5.7-2.45 9-3.78 3.3-1.34 8.33-3.05 11.18-3.8 2.85-0.76 5.04-1.61 4.86-1.88-0.19-0.28 1.53-0.59 3.81-0.69 2.29-0.1 6.07-0.78 8.41-1.5 2.34-0.72 4.25-1.65 4.25-2.06 0-0.41 1-0.43 2.24-0.04 1.63 0.52 2.05 0.38 1.5-0.5-0.52-0.85 0.08-1.16 2-1.05 1.51 0.09 5.45-0.56 8.75-1.43 3.3-0.88 9.92-2.41 14.71-3.41 7.05-1.48 8.79-2.2 9.17-3.82 0.26-1.1 0.28-2.56 0.05-3.25-0.24-0.69-1.22-1.19-2.18-1.11-0.96 0.08-5.57 0.69-10.25 1.35zm-385.56 2.85c0.92 2.22 2.34 2.89 10.35 4.87 6.45 1.59 9.12 2.67 8.75 3.54-0.36 0.84 0.85 1.46 3.71 1.89 2.34 0.36 8.08 1.96 12.75 3.56 4.68 1.6 9.85 3.28 11.5 3.73 1.65 0.44 5.93 1.8 9.5 3.01 3.58 1.22 7.51 2.85 8.75 3.63 1.24 0.79 2.93 1.43 3.75 1.43 0.83 0 3.19 1.07 5.25 2.39 2.06 1.31 4.99 2.66 6.5 3 2.36 0.52 2.79 0.27 3-1.75 0.18-1.67-0.14-2.18-1.12-1.75-0.88 0.39-1.24 0.07-1-0.89 0.21-0.83 1.05-1.81 1.87-2.18 1.03-0.47 0.72-0.7-1-0.76-1.37-0.04-6.1-1.42-10.5-3.05-4.4-1.64-20.15-7.22-35-12.4-14.85-5.18-29.5-9.74-32.56-10.14l-5.55-0.71zm271.11 6.91c0.4 1.24 1.46 3.25 2.34 4.47 0.88 1.22 1.94 2.23 2.35 2.25 0.42 0.02 0.76-0.98 0.76-2.22 0.01-1.24-0.67-3.26-1.5-4.5-0.83-1.24-2.22-2.25-3.1-2.25-1.2 0-1.41 0.55-0.85 2.25zm116.73 0.07c-4.52 1.2-8.12 2.28-8 2.4 0.12 0.12 3.7 1.36 7.96 2.75l7.75 2.53c1.55-5.81 2-8.06 2-8.75 0-0.69-0.33-1.22-0.75-1.18-0.41 0.03-4.44 1.05-8.96 2.25zm-399.13 1.07c-0.09 0.96 0.55 1.56 1.59 1.49 0.97-0.06 3.1-0.46 4.75-0.88l3-0.76c-5.03-0.19-7.1-0.51-7.84-0.85-0.8-0.36-1.41 0.05-1.5 1zm167.92 10.05c-0.64 0.79-2.12 1.58-3.29 1.75-1.17 0.17-2.36 0.99-2.64 1.81-0.43 1.26 0.2 1.37 3.92 0.7 2.44-0.44 4.78-1.12 5.21-1.5 0.42-0.38 0.53-1.49 0.25-2.45-0.29-0.96-0.93-1.75-1.41-1.75-0.49 0-1.41 0.65-2.04 1.44zm-37.68 11.35c-1.31 0.25-1.81 1.09-1.64 2.78 0.17 1.66 0.72 2.27 1.74 1.93 0.83-0.27 1.65-1.43 1.84-2.57 0.18-1.15 0.24-2.18 0.14-2.29-0.11-0.12-1.04-0.05-2.08 0.15zm-35.4 4.21c0 0.55 0.34 1.17 0.75 1.38 0.42 0.21 2.33 0.72 4.25 1.13l3.5 0.74c-3.1-3.34-5.01-4.3-6.25-4.28-1.23 0.02-2.25 0.48-2.25 1.03zm200.57 2.75c-0.35 2.06-0.5 3.86-0.35 4 0.16 0.14 2.31-0.76 4.78-2 2.48-1.24 4.73-2.35 5-2.48 0.28-0.12-0.17-0.93-1-1.79-0.82-0.86-2.92-1.55-4.65-1.52-2.86 0.04-3.22 0.4-3.78 3.79zm-8.57 1.61c2.13 2.34 2.28 2.89 1 3.68-0.82 0.51-2.28 0.94-3.25 0.95-0.96 0-2.08 0.92-2.5 2.04-0.41 1.11-2.1 2.58-3.76 3.25-1.66 0.67-11.03 6.62-20.83 13.22-16.99 11.44-17.68 12.04-14.99 12.84 2.39 0.7 3.29 0.38 5.68-2 1.57-1.56 3.66-3.29 4.64-3.84 0.98-0.55 3.97-2.33 6.65-3.96 2.67-1.63 7.9-5.56 11.61-8.75 3.72-3.18 7.54-5.8 8.5-5.82 0.97-0.01 3.33-1.22 5.25-2.68 1.93-1.47 5.08-3.09 7-3.62 2.15-0.58 2.92-1.15 2-1.46-0.82-0.27-3.3-1.87-5.5-3.55-3.9-2.98-3.94-2.99-1.5-0.3zm-162.45 7.64c-0.3 0.55 0.63 1.79 2.08 2.75 1.44 0.96 3.8 2.96 5.25 4.45 1.44 1.48 4.2 3.35 6.12 4.15 1.93 0.8 4.4 2.45 5.5 3.66 1.1 1.21 3.8 3.11 6 4.21 2.2 1.1 3.55 1.54 3 0.98-0.55-0.56-6.4-5.57-13-11.14-6.6-5.57-12.54-10.11-13.2-10.09-0.66 0.02-1.45 0.48-1.75 1.03zm161.18 17.76c-2.32 2.06-6.03 5.11-8.23 6.78-2.2 1.66-5.23 3.79-6.75 4.74-1.51 0.95-2.76 2.28-2.77 2.97-0.01 0.73 2.4 1.74 5.75 2.42 3.18 0.65 9.37 1.62 13.77 2.17 4.4 0.55 8.23 0.82 8.5 0.61 0.28-0.21-1.18-0.62-3.25-0.92-3.43-0.48-3.79-0.84-4.31-4.28-0.32-2.06-0.48-6-0.36-8.75 0.12-2.75 0.8-6.01 1.51-7.25 0.71-1.24 1.09-2.25 0.83-2.25-0.25 0-2.36 1.69-4.69 3.76zm-101.23 22.15c-1.1 0.43-6.05 1.59-11 2.58-7.25 1.46-8.61 1.99-7 2.78q2.01 0.97 8.5-0.21c3.58-0.65 9.43-1.9 13-2.78 3.58-0.88 6.93-1.97 7.45-2.44 0.53-0.47-1.24-0.81-4-0.78-2.72 0.04-5.85 0.42-6.95 0.85zm7.5 2.64c-4.12 1.32-16.95 5.35-28.5 8.95-11.55 3.61-22.8 7.05-25 7.65-2.2 0.6-5.8 1.75-8 2.56-2.2 0.81-8.61 3.01-14.25 4.88-5.63 1.88-10.7 3.41-11.25 3.41-0.55 0-3.09 1.01-5.64 2.25-3.26 1.58-5.19 3.36-6.5 6l-1.86 3.75c5.68 2.84 6.51 2.83 10.75 1.42 2.62-0.87 7.9-3.07 11.75-4.89 3.85-1.82 8.02-3.58 9.25-3.92 1.87-0.51 2.08-0.95 1.25-2.61-0.93-1.87-0.66-2 4-2 2.75 0 7.37-0.62 10.25-1.38 2.89-0.76 7.95-2.51 11.25-3.88 3.3-1.37 7.13-2.82 8.5-3.22 1.38-0.4 6.33-2.43 11-4.51 4.68-2.09 10.53-4.32 13-4.96 2.48-0.64 8.24-3.05 12.8-5.36 4.56-2.3 8.27-4.75 8.25-5.44-0.03-0.69-0.83-1.22-1.8-1.18-0.96 0.04-5.12 1.15-9.25 2.48zm13.22-1.3c0.25 0.69 3.34 2.75 6.87 4.58 3.53 1.83 10.69 5.12 15.91 7.31 5.23 2.18 11.53 4.66 14 5.5 2.48 0.84 5.18 1.78 6 2.09 0.83 0.31 4.2 1.57 7.5 2.8 3.3 1.23 8.03 2.97 10.5 3.86 2.48 0.9 5.29 2.07 6.25 2.62 0.97 0.54 2.54 1 3.5 1.02 0.97 0.01 8.5 2.88 16.75 6.37 8.25 3.49 15.68 6.6 16.5 6.91 0.83 0.31 3.3-0.36 5.5-1.49 2.2-1.13 4.23-2.23 4.5-2.45 0.28-0.21-0.4-1.02-1.5-1.79-1.1-0.77-2.45-1.15-3-0.83-0.55 0.31-0.66 0.16-0.25-0.34 0.41-0.5-0.71-1.84-2.5-2.97-1.78-1.14-4.6-2.58-6.25-3.2-1.65-0.63-6.37-2.11-10.5-3.29-4.12-1.19-8.62-2.78-10-3.54-1.37-0.76-7-2.7-12.5-4.31-5.5-1.62-12.02-3.67-14.5-4.56-2.47-0.89-8.1-2.52-12.5-3.63-4.4-1.1-8.45-2.38-9-2.84-0.55-0.45-4.15-1.76-8-2.92-3.85-1.15-10.15-3-14-4.11-3.85-1.1-7.61-2.02-8.36-2.02-0.75-0.01-1.17 0.54-0.92 1.23zm14.28-0.34c0.55 0.51 3.31 1.31 6.14 1.76 2.82 0.46 4.96 0.49 4.75 0.08-0.21-0.41-2.07-1.2-4.14-1.74-2.06-0.55-4.65-1.01-5.75-1.02-1.29-0.01-1.64 0.31-1 0.92zm-72.5 6.52c-4.12 0.63-8.52 1.92-9.78 2.86-2.27 1.7-2.26 1.71 2 1.71 2.36 0 7.66-0.71 11.78-1.58 4.13-0.87 7.95-1.82 8.5-2.12 0.58-0.32 0.37-0.91-0.5-1.41-0.82-0.47-2.17-0.8-3-0.73-0.82 0.06-4.87 0.64-9 1.27zm108.25 0.21c-1.23 0.2-2.25 0.7-2.27 1.11-0.01 0.41 2.36 1.3 5.25 1.98 2.9 0.67 10 2.16 15.77 3.31 5.78 1.16 12.64 2.74 15.25 3.53 2.62 0.79 5.2 1.21 5.75 0.93 0.55-0.27 1-1.4 1-2.5 0-1.62-0.98-2.18-5.25-2.97-2.88-0.53-8.85-1.65-13.25-2.49-4.4-0.83-9.8-1.96-12-2.51-2.2-0.54-4.9-0.93-6-0.87-1.1 0.06-3.01 0.28-4.25 0.48zm-50.7 1.36c-0.3 0.55 1.59 3.05 4.2 5.56 2.62 2.52 10.38 8.27 17.25 12.79 6.88 4.52 13.85 8.87 15.5 9.66 1.65 0.8 4.58 2.7 6.5 4.23 1.93 1.52 4.07 2.77 4.75 2.77 0.69-0.01 3.06 1 5.28 2.24 2.21 1.24 4.01 2.59 4 3-0.02 0.41 0.87 0.75 1.97 0.75 1.1 0 2.12 0.34 2.25 0.75 0.14 0.41 3.06 2.1 6.5 3.75 6.05 2.91 6.37 2.95 10.36 1.5 2.27-0.82 4.52-2.06 5.01-2.75 0.55-0.78 0.42-1.53-0.37-2-0.68-0.41-2.15-1.29-3.25-1.96-1.1-0.67-5.37-2.94-9.5-5.05-4.12-2.11-13.35-6.93-20.5-10.7-7.15-3.78-15.25-8.28-18-10-2.75-1.73-10.62-5.92-17.5-9.33-6.87-3.4-12.81-6.19-13.2-6.2-0.38 0-0.95 0.44-1.25 0.99zm-0.9 9.39c-0.36 0.89-1.21 1.61-1.9 1.62-0.68 0-6.42 5.34-12.75 11.87-6.32 6.53-12.62 12.41-14 13.08-1.46 0.7-2.08 1.52-1.5 1.95 0.55 0.42 3.82 1.5 7.25 2.42 3.44 0.92 6.48 1.67 6.75 1.67 0.28 0 3.08-3.26 6.22-7.25 3.15-3.99 6.54-8.15 7.52-9.25 0.99-1.1 1.79-2.34 1.78-2.75-0.01-0.41 0.32-0.76 0.73-0.78 0.42-0.01 1.27 1 1.89 2.25 0.63 1.26 3.33 5.24 6 8.85 2.68 3.62 6.73 8.34 9 10.5 2.28 2.16 5.09 4.72 6.25 5.68 1.16 0.96 2.68 1.74 3.36 1.73 0.69-0.01 1.81 0.56 2.49 1.25 0.98 1.02 1.74 0.12 3.75-4.48 1.38-3.16 2.51-6.2 2.51-6.75 0-0.55-1.46-2.11-3.25-3.47-1.78-1.36-3.58-2.49-4-2.5-0.41-0.02-1.55-0.82-2.52-1.78-0.98-0.96-3.12-2.89-4.75-4.29-1.64-1.4-5.45-5.44-8.48-8.98-3.02-3.54-6.19-7.12-7.04-7.96-0.85-0.84-2.25-2.13-3.1-2.88-1.33-1.16-1.66-1.12-2.21 0.25zm-38.15 7.7c-4.4 2.25-10.02 5.28-12.5 6.73-2.47 1.45-6.75 3.85-9.5 5.33-2.75 1.47-9.05 4.7-14 7.17-4.95 2.47-9.78 5.32-10.74 6.33-1.69 1.78-1.53 1.94 4.25 4.1 5.87 2.21 6.05 2.21 8.74 0.41 1.52-1.02 7.48-4.24 13.25-7.15 5.78-2.91 11.39-5.8 12.48-6.4 1.09-0.61 2.61-1.63 3.39-2.27 0.77-0.63 3.04-2.21 5.05-3.5 2.01-1.29 5.36-3.46 7.44-4.84 3.4-2.24 3.72-2.81 3.1-5.5-0.38-1.65-0.86-3.34-1.07-3.75-0.21-0.41-0.72-0.75-1.14-0.75-0.41 0-4.35 1.84-8.75 4.09z"/>
		<path id="Path 4" class="s4" d="m258.5 185.97c-1.1 0.49-3.91 0.92-6.25 0.96-2.34 0.04-4.44 0.52-4.66 1.07-0.23 0.55-1.58 1-3 1-1.43 0-2.76 0.45-2.98 1-0.21 0.55-1.34 1-2.5 1-1.16 0-6.05 1.9-10.86 4.21-4.81 2.32-10.55 5.43-12.75 6.9-2.2 1.48-4.9 3.65-6 4.82-1.1 1.18-2.35 2.12-2.77 2.1-0.43-0.02-3.13 2.36-6 5.27-2.88 2.92-6.79 7.31-8.69 9.75-1.91 2.45-3.82 4.56-4.25 4.7-0.44 0.14-0.77 0.81-0.75 1.5 0.03 0.69-0.68 1.93-1.58 2.75-0.9 0.82-2.19 2.63-2.86 4-0.68 1.38-1.73 3.4-2.33 4.5-0.61 1.1-2.04 4.14-3.19 6.75-1.14 2.61-2.1 5.76-2.12 7-0.03 1.24 0.53 2.79 1.25 3.46 0.75 0.7 5.78 1.43 12.04 1.75l10.75 0.54c0-10.39 0.33-11.28 3-13.5 1.65-1.37 3-3.4 3-4.5 0-1.56 0.67-2 3-2 1.65 0 3.22 0.45 3.5 1 0.28 0.55 1.4 1 2.5 1q2 0 2.5-2.5c0.3-1.5 1.2-2.52 2.25-2.54 0.96-0.03 2.31 0.65 3 1.5 0.69 0.84 1.7 1.32 2.25 1.04 0.55-0.28 1.01-2.19 1.02-4.25 0-2.06 0.34-4.36 0.75-5.11 0.44-0.82 1.71-1.16 3.23-0.85 1.38 0.28 3.94 1.12 5.7 1.86 2.99 1.26 3.38 1.18 5.78-1.15 1.88-1.82 2.56-3.51 2.55-6.25-0.03-3.67 0.05-3.75 3.72-3.76 2.61-0.01 4.21 0.6 5.25 2.01 0.82 1.11 2.06 2.02 2.75 2.01 0.69-0.01 1.93-1.58 2.75-3.51 0.82-1.93 2.06-3.49 2.75-3.47 0.69 0.01 2.05 0.8 3.02 1.75 1.53 1.49 2.07 1.54 4 0.37 1.69-1.03 2.77-1.09 4.48-0.25 1.64 0.8 2.86 0.8 4.5 0 1.71-0.84 2.83-0.78 4.66 0.25 1.49 0.83 2.55 0.96 2.77 0.35 0.19-0.55 0.92-2.12 1.61-3.5 0.81-1.61 2.23-2.59 3.98-2.75 2.11-0.19 3.04 0.38 4.1 2.5 0.75 1.51 1.66 4.55 2.03 6.75l0.67 4c3.43-3.45 5.22-4.47 6.18-4.48 0.96-0.01 1.98 0.88 2.25 1.98 0.27 1.1 1.18 2 2 2 0.82 0 2.06 1.14 2.75 2.53 0.69 1.39 1.48 2.53 1.75 2.52 0.27 0 1.62-1.16 3-2.58 1.65-1.7 3.35-2.48 5-2.27 2.11 0.25 2.58 0.94 3 4.38 0.27 2.25 1.18 4.88 2 5.85 1.14 1.35 2.33 1.62 5 1.13 1.93-0.35 5.07-0.88 7-1.18 3.45-0.53 3.53-0.46 5.25 4.54 1.34 3.9 2.27 5.14 4 5.33 1.75 0.19 2.47 1.19 3.25 4.49 0.82 3.49 1.61 4.49 4.5 5.7 1.93 0.8 7.1 1.76 11.5 2.12 4.4 0.37 9.13 0.36 10.5-0.02 1.98-0.55 2.24-0.94 1.23-1.87-0.69-0.64-1.26-2.18-1.25-3.42 0.01-1.24-0.43-2.47-0.98-2.75-0.55-0.28-1-1.4-1-2.5 0-1.1-1.14-3.91-2.54-6.25-1.4-2.34-2.75-5.04-3-6-0.25-0.96-0.91-1.75-1.46-1.75-0.55 0-1-0.56-1-1.25 0.01-0.69-2.32-4.18-5.18-7.75-2.85-3.57-7.46-8.75-10.25-11.5-2.79-2.76-6.98-6.47-9.32-8.25-2.34-1.79-4.59-3.24-5-3.23-0.41 0.01-1.65-0.78-2.75-1.76-1.1-0.98-6.05-3.74-11-6.14-4.95-2.4-9.9-4.72-11-5.16-1.1-0.45-3.35-1.1-5-1.45-1.65-0.35-5.25-1.1-8-1.68-2.75-0.57-12.2-1.2-21-1.4-8.8-0.2-16.9 0.04-18 0.54z"/>
		<path id="Path 5" fill-rule="evenodd" class="s5" d="m249.23 225.16c1.04 0.5 1.87 1.01 1.84 1.13-0.02 0.11-0.49 1.67-1.05 3.46-0.97 3.1-1.25 3.25-6.02 3.25-3.13 0-5.14 0.47-5.37 1.25-0.3 1-0.66 0.99-1.75-0.02-1.17-1.07-1.15-1.26 0.12-1.27 0.82 0 2.52-1.01 3.78-2.23 1.25-1.23 2.17-2.72 2.04-3.33-0.13-0.6 0.84-1.56 2.14-2.12 1.48-0.64 3.1-0.68 4.27-0.12zm-2.42 16.03c3.08 0.26 3.74 0.72 4.01 2.81 0.19 1.39-0.39 3.17-1.3 4-1.34 1.24-2.04 1.29-4.07 0.25-1.82-0.93-2.43-2.03-2.39-4.31 0.07-2.91 0.25-3.05 3.75-2.75zm-11.28 5.81c1.36 0 2.47 0.45 2.47 1 0 0.55 0.68 1 1.5 1 0.96 0 1.71 1.35 2.09 3.75 0.36 2.26 0.06 4.89-0.75 6.63-0.74 1.59-1.68 3.05-2.09 3.25-0.41 0.2-2.08-1.09-3.7-2.88-1.63-1.79-3.2-4.49-3.5-6-0.3-1.51-0.09-3.65 0.48-4.75 0.61-1.18 2.04-2 3.5-2zm-11.45 3c0.51 0 2.06 0.56 3.45 1.25 1.8 0.89 2.52 2.04 2.5 4-0.02 1.51-0.59 2.99-1.28 3.29-0.69 0.3-2.49 0.07-4-0.5-1.74-0.66-2.75-1.78-2.75-3.04 0-1.1 0.26-2.68 0.58-3.5 0.33-0.82 1-1.5 1.5-1.5zm-48.43 8.01c1 1.48 2.71 2.07 6.6 2.31 4.31 0.25 3.95 0.34-2 0.5-6.38 0.16-7.27-0.04-7.42-1.65-0.09-1.01 0.2-2.13 0.65-2.5 0.45-0.36 1.43 0.24 2.17 1.34zm185.69 1.25c3.94 0.41 7.39 0.99 7.66 1.27 0.27 0.29-2.42 0.53-6 0.54-4.08 0.01-6.93-0.46-7.66-1.28-0.94-1.05 0.18-1.15 6-0.53zm-141.59 6.76c1.24-0.01 3.15 0.43 4.25 0.98 1.1 0.55 2 1.45 2 2 0 0.55-1.1 2.13-2.45 3.5-1.44 1.46-3.62 2.51-5.25 2.53-1.98 0.02-3.24-0.74-4.3-2.58-1.41-2.46-1.35-2.72 1-4.51 1.38-1.04 3.51-1.91 4.75-1.92zm-45.13 0.98c1.8 0 2.77 0.92 3.98 3.75 0.88 2.06 2.34 4.55 3.25 5.52q1.64 1.78 0.65 2.75c-0.55 0.54-2.12 1.55-3.5 2.25-1.37 0.7-2.95 2.27-3.5 3.5-0.55 1.23-1.79 2.24-2.75 2.23-1.42 0-1.75-0.89-1.74-4.75 0-2.61 0.28-7.11 0.62-10 0.55-4.69 0.87-5.25 2.99-5.25zm198.58 0c2.62 0 2.76 0.21 2.19 3.25-0.33 1.79-0.98 3.7-1.45 4.25-0.49 0.59 0.38 2.44 5.11 8l-5.27 0.27c-2.91 0.15-5.73-0.19-6.28-0.76q-1.02-1.05 0.75-1.03c0.96 0.01 2.14-0.99 2.62-2.23 0.69-1.77 0.48-2.41-1-3-1.12-0.45-1.95-1.88-2.07-3.55-0.11-1.54 0.43-3.34 1.2-4 0.77-0.66 2.66-1.2 4.2-1.2zm4.15 28l3.42 2.62c1.88 1.44 3.38 2.79 3.32 3-0.05 0.21-1.55 0.38-3.34 0.38-2.93 0.01-3.26-0.29-3.33-3zm17.96 14c2.31 0 7.57 1.31 11.7 2.9 4.34 1.69 6.87 3.14 6 3.44-0.83 0.3-7.13 1.69-14 3.1-6.88 1.42-12.62 2.35-12.75 2.07-0.14-0.28 0.31-1.38 1-2.45 1.04-1.61 0.96-2.24-0.48-3.75-0.95-0.99-1.73-2.14-1.75-2.56-0.01-0.41 1.1-0.75 2.48-0.75 1.37 0 2.74-0.45 3.05-1 0.3-0.55 2.44-1 4.75-1zm-294.3 4.41c2.47 0.21 6.07 0.6 8 0.86 1.92 0.26 5.52 0.78 8 1.15 2.47 0.36 13.95 3.2 25.5 6.3 11.55 3.09 21.34 5.89 21.76 6.21 0.42 0.31 0.01 2.15-0.91 4.07-0.91 1.93-1.7 3.6-1.76 3.73-0.05 0.12-14.04-4.65-31.09-10.59-17.05-5.95-31.68-11.11-32.5-11.46-0.83-0.36 0.52-0.48 3-0.27zm54.82 1.74c0.17-0.08-0.09 0.47-0.58 1.22-0.68 1.04-0.35 1.27 1.43 1 1.28-0.2 2.33 0.08 2.33 0.63 0 0.55 0.67 0.78 1.5 0.5 0.89-0.29 1.5 0.11 1.5 1 0 0.98-0.62 1.31-1.75 0.95-0.97-0.31-3.67-0.98-6-1.5-2.34-0.52-4.25-1.4-4.25-1.95 0-0.55 1.23-1.15 2.75-1.35 1.51-0.19 2.89-0.42 3.07-0.5zm281.18-0.05c0.82-0.03-0.98 1.33-4 3.03-3.03 1.69-14.5 7.54-25.5 13-11 5.45-20.57 9.9-21.25 9.89-0.69-0.01-1.45-1.03-1.7-2.27-0.24-1.23-0.24-2.58 0-3 0.25-0.41 1.01-0.75 1.7-0.76 0.77 0 1.25-1.4 1.25-7.26l24-6.28c13.2-3.46 24.67-6.31 25.5-6.35zm-77.18 37.54c1.47 1.36 1.49 1.66 0.18 2.44-0.83 0.49-1.84 0.9-2.25 0.91-0.42 0.01-0.83-0.81-0.92-1.82-0.09-1.01 0.17-2.11 0.57-2.45 0.41-0.34 1.5 0.07 2.42 0.92zm-240.92 2.36c0.6 0 2.56 1.54 4.35 3.41 1.78 1.88 4.82 4.09 6.75 4.92 1.92 0.83 5.07 2.91 7 4.62 1.92 1.7 4.06 3.09 4.75 3.07 0.68-0.01 3.28 2.12 5.77 4.73 2.49 2.62 4.51 5.09 4.5 5.5-0.01 0.42 0.99 1.05 2.23 1.4 1.23 0.36 5.51 3.96 9.5 8 3.98 4.05 7.13 7.58 7 7.85-0.14 0.27-4.53 1.19-9.75 2.03-5.23 0.84-10.29 1.29-11.25 1-0.97-0.29-2.04-1.54-2.38-2.78-0.35-1.23-1.91-3.37-3.47-4.75-1.56-1.37-2.87-2.95-2.91-3.5-0.03-0.55-1.96-3.02-4.28-5.5-2.32-2.47-5.56-5.17-7.21-6-1.68-0.84-3.77-3.15-4.75-5.25-1.03-2.2-2.47-3.76-3.5-3.78-0.97-0.01-3.78-1.75-10.75-7.7l4.25-2.63c2.33-1.45 3.98-3.09 3.65-3.64-0.34-0.55-0.11-1 0.5-1zm92.65 0c1.89 0 5.58 0.93 8.2 2.07 2.61 1.14 5.65 2.89 6.75 3.9 1.1 1.02 4.25 3.07 7 4.56 2.75 1.5 6.12 3.7 7.5 4.9 1.37 1.2 4.18 3.4 6.25 4.88 3.26 2.34 3.75 3.22 3.75 6.69 0 3.64-0.3 4.09-3.25 5.02-1.79 0.56-5.28 1.27-7.75 1.58-3.91 0.48-4.97 0.18-8-2.27-1.93-1.55-4.85-4.21-6.5-5.91-1.65-1.69-7.95-7.28-14-12.42-6.05-5.13-11.12-9.71-11.25-10.17-0.14-0.45 1.32-0.83 3.25-0.83 1.92 0 3.74-0.45 4.05-1 0.3-0.55 2.1-1 4-1zm125.81-0.01c1.73 0 4.04 0.66 5.14 1.47 1.1 0.81 2.33 1.27 2.75 1.01 0.41-0.26 0.52-0.13 0.24 0.28-0.27 0.42 0.18 1.54 1 2.5 1.38 1.61 1.11 2.03-3.24 5.11-2.62 1.85-10.94 7.47-18.5 12.5-11.19 7.44-14.45 9.14-17.5 9.15-2.07 0-4.77-0.67-6-1.5-1.24-0.83-2.25-2.41-2.25-3.51 0-1.1 1.87-3.68 4.16-5.75 2.29-2.06 9.15-7.01 15.25-10.99 6.1-3.99 11.54-7.23 12.09-7.21 0.55 0.02 1.61-0.65 2.36-1.5 0.75-0.85 2.77-1.55 4.5-1.56z"/>
		<path id="Path 7" class="s0" d="m259.44 232.03c0.29 1.36 0.54 2.81 0.55 3.22 0 0.41 1.36 1.2 3.01 1.75q3 1 3.5 0c0.27-0.55-1.32-2.45-3.54-4.22-4.01-3.19-4.04-3.2-3.52-0.75zm0.22 9.72c-0.36 0.41 1.59 1.76 4.34 3 2.75 1.24 5.23 2.14 5.51 2 0.28-0.14-0.62-1.49-2-3-1.38-1.51-3.56-2.75-4.84-2.75-1.29 0-2.64 0.34-3.01 0.75zm110.75 58.52l-3.91 0.89c3.88 3.79 5.34 4.88 5.75 4.87 0.41-0.02 0.46-0.82 0.1-1.78-0.42-1.14 0.02-2.18 1.25-2.99 1.04-0.68 1.63-1.38 1.31-1.56-0.33-0.18-2.36 0.08-4.5 0.57z"/>
		<path id="Path 8" fill-rule="evenodd" class="s1" d="m295.27 263l-3.88 4.06c-2.14 2.24-5.35 4.94-7.14 6-1.79 1.07-3.92 1.71-4.75 1.44-0.85-0.28-1.53-1.75-1.56-3.41-0.04-2.09 0.83-3.64 3.08-5.5 2.55-2.1 4.2-2.59 14.25-2.59zm6.98 7.09c1.51-0.05 3.43 0.59 4.25 1.41 0.83 0.82 1.49 2.06 1.48 2.75-0.01 0.92-0.21 0.94-0.75 0.09-0.44-0.7-1.79-0.9-3.43-0.5-2.04 0.5-2.8 1.39-3.12 3.66-0.23 1.65-0.25 3.56-0.05 4.25 0.2 0.69 1.72 1.25 3.37 1.25 1.75 0 2.99-0.52 2.97-1.25-0.01-0.69 0.32-0.88 0.75-0.42 0.43 0.46-0.12 1.47-1.22 2.25-1.48 1.05-3.8 1.26-9 0.82-5.42-0.45-7.45-0.24-9 0.94-1.62 1.24-1.76 1.77-0.73 2.84 0.69 0.73 1.26 2.11 1.25 3.07-0.02 1.39-0.9 1.75-4.27 1.77-2.98 0.02-4.98 0.69-9.14 4.48l2.45-3.16c1.34-1.74 3.46-3.76 4.72-4.5 1.25-0.74 2.26-1.9 2.25-2.59-0.02-0.69 0.87-1.7 1.97-2.25 1.48-0.74 1.99-1.97 1.96-4.75-0.03-2.18 0.71-4.67 1.75-5.95 0.98-1.21 3.37-2.63 5.29-3.16 1.93-0.53 4.74-1 6.25-1.05zm-92.33 17.21c3.85 1.76 7.02 3.54 7.04 3.95 0.02 0.41-1.76 0.75-3.96 0.75-3.37 0-4.04-0.35-4.25-2.18-0.23-2.03-0.52-1.93-4.25 1.54-2.2 2.04-4.11 3.7-4.25 3.68-0.14-0.02 0.04-1.73 0.39-3.79 0.35-2.06 1.01-4.51 1.46-5.45 0.73-1.53 1.48-1.39 7.82 1.5zm29.94-0.32c0.9-0.01 2.21 0.56 2.91 1.25 0.69 0.7 1.26 3.18 1.25 5.52-0.02 3.04-0.52 4.5-1.77 5.11-0.96 0.48-3.77 1.16-6.25 1.53-2.47 0.36-5.96 0.2-7.75-0.37-2.72-0.85-3.25-1.51-3.25-4.02 0-1.65 0.23-3.68 0.5-4.5 0.35-1.06 1.89-1.49 5.25-1.46 3.07 0.03 5.23-0.5 6.11-1.5 0.75-0.84 2.1-1.55 3-1.56zm57.25 1.02c1.04 0 1.9 0.11 1.92 0.25 0.01 0.14-0.65 1.82-1.48 3.75-1.37 3.2-1.54 3.31-2.02 1.25-0.29-1.24-1.09-2.23-1.78-2.21-0.95 0.04-0.92-0.32 0.11-1.5 0.75-0.84 2.21-1.54 3.25-1.54zm72.52 5.03c0.48 0.02 1.88 0.92 3.12 2 1.24 1.08 2.25 2.42 2.25 2.97 0 0.55 0.56 0.98 1.25 0.96 0.89-0.04 0.82 0.41-0.25 1.54-0.82 0.87-1.95 1.53-2.5 1.47-0.55-0.07-0.44-0.32 0.25-0.55 0.69-0.23 1.25-0.87 1.25-1.42 0-0.55-0.79-0.73-1.75-0.41-1.48 0.51-1.52 0.43-0.25-0.51 1.28-0.95 1.08-1.48-1.37-3.6-1.57-1.36-2.47-2.47-2-2.45zm-154 8.26c4.45 2.14 4.51 2.23-0.85 3.21l2.11 1.75c1.9 1.58 2.33 1.6 4.36 0.24 1.24-0.83 3.49-1.5 5-1.5 1.77 0.01 2.75 0.54 2.75 1.51 0 0.82-0.79 2.23-1.75 3.13-0.96 0.9-2.99 2.25-4.5 3-1.93 0.96-4.09 4.05-7.25 10.37-2.47 4.95-4.95 9-5.5 9-0.55 0-1.26-1.01-2.14-4.5l-2.18 2.23c-1.2 1.22-2.97 2.24-3.93 2.25-1.41 0.02-1.75-0.85-1.75-8.98l5.75-2.24c3.16-1.23 6.99-3.26 8.5-4.5 1.51-1.24 2.75-2.94 2.75-3.76 0-0.82-0.22-1.5-0.5-1.5-0.27 0-2.52 0.9-5 2-4.15 1.85-4.47 1.86-4.06 0.25 0.24-0.96 0.94-3.77 1.56-6.25 0.62-2.48 1.33-5.27 1.58-6.21 0.42-1.57 0.84-1.53 5.05 0.5zm-27.13 2.75c0.55-0.04 0.1 0.55-1 1.31-1.93 1.33-1.89 1.41 1 2.12 2.67 0.66 2.78 0.83 1 1.5-1.31 0.5-2.61 2.72-3.75 6.4-1.58 5.09-2.01 5.62-4.5 5.56-1.51-0.04-3.65-0.46-4.75-0.93q-1.96-0.85-0.5-0.9c0.83-0.01 2.74-0.95 4.25-2.07 2.29-1.69 2.71-2.68 2.5-5.91-0.2-3.19 0.19-4.15 2.25-5.45 1.38-0.86 2.95-1.6 3.5-1.63zm58.61 0.87l12.39 0.59v5.5c0 4.96-0.22 5.52-2.25 5.75-1.41 0.16-3-0.69-6.25-4.75l-1.5 3c-0.82 1.65-2.51 3.39-3.75 3.87-1.24 0.47-3.26 1.15-4.5 1.5-2.11 0.59-2 0.13 1.81-7.42zm54.84 4.1c0.57 0 1.31 1.01 1.64 2.25 0.33 1.23 0.33 3.26 0 4.5-0.42 1.57-1.35 2.25-3.1 2.25-1.37 0-2.41-0.47-2.31-1.04 0.1-0.56 0.75-2.59 1.46-4.5 0.7-1.9 1.74-3.46 2.31-3.46zm21.29 0.01c1.24 0.01 2.75 0.35 3.35 0.75 0.61 0.41 1.62 1.75 2.25 2.99 0.64 1.23 1.15 2.58 1.15 3 0 0.41-0.99-0.83-4.4-6.25l-0.79 6c-0.48 3.58-0.4 7.31 0.2 9.25 0.55 1.78 1.44 3.47 1.99 3.75 0.55 0.27 1.41-0.97 1.91-2.75 0.58-2.07 0.95-2.53 1.02-1.25 0.06 1.1-0.53 2.9-1.3 4-1.36 1.93-1.47 1.88-3.42-1.5q-2.01-3.49-2.41-2c-0.3 1.16-0.89 0.93-2.61-1-1.23-1.38-2.19-3.18-2.14-4 0.05-0.89 0.46-0.59 1.02 0.75 0.51 1.23 1.38 2.47 1.93 2.75 0.62 0.31 0.8-0.92 0.48-3.25-0.29-2.07-0.63-4.28-0.75-4.93q-0.24-1.16-2.01 0.5c-1.69 1.59-1.78 1.51-1.75-1.57 0.03-2.58 0.45-3.25 2.03-3.25 1.1 0 2-0.45 2-1 0-0.55 1.02-1 2.25-0.99zm-21.46 17.99c0.31 0 1.27 0.93 2.13 2.08 1.46 1.92 1.45 2.03-0.17 1.5-0.96-0.32-1.75-1.03-1.75-1.58 0-0.55-0.45-0.78-1-0.5-0.55 0.27-1.07 2.18-1.32 8l-0.36-3.5c-0.19-1.93 0.15-4.07 0.78-4.75 0.62-0.69 1.38-1.25 1.69-1.25zm-27.37 1.41c1.14 0.32 3.66 0.87 9.08 1.85l-2.28 2.62c-1.26 1.44-2.32 3.52-2.37 4.62-0.06 1.62-0.15 1.66-0.46 0.25-0.21-0.97 0.06-2.65 0.61-3.75 0.97-1.93 0.89-1.95-2-0.5-1.65 0.82-3.15 2.28-3.35 3.25-0.19 0.96-0.3 0.63-0.25-0.73 0.07-1.73-0.51-2.61-1.9-2.9-1.67-0.35-1.87-0.06-1.25 1.73 0.47 1.33 0.37 1.96-0.25 1.65-0.55-0.28-1.04-1.3-1.09-2.28-0.06-0.98 0.69-2.82 1.66-4.09 1.23-1.61 2.39-2.13 3.85-1.72zm55.75-0.91l1.91 3c1.05 1.65 1.91 3.33 1.92 3.75 0 0.41-1.01 0.89-2.25 1.06-2.06 0.29-2.22-0.03-1.91-3.75zm-156.42 1.51c3.44 0.02 4.34 0.29 3.25 0.99-0.82 0.53-2.96 0.98-4.75 0.98-1.79 0.01-3.25-0.43-3.25-0.98 0-0.55 2.14-0.99 4.75-0.99zm79.16 3.47c0.87 0.39 2.8 1.67 4.29 2.86 1.48 1.19 2.71 2.5 2.75 2.91 0.03 0.41-0.96 0.24-2.2-0.38-1.89-0.95-2.53-0.79-4 1-1.38 1.67-1.52 2.61-0.69 4.38 1.02 2.19 1.01 2.2-0.52 0.25-1.01-1.29-1.51-3.73-1.4-6.86 0.14-4.03 0.44-4.74 1.77-4.16zm95.91 1.62c0.18-0.05 0.05 2.49-0.29 5.65-0.34 3.16-1.27 6.76-2.07 8-0.8 1.24-2.13 2.25-2.96 2.25-0.82 0-2.19-1.69-3.02-3.75-0.84-2.06-1.62-4.96-1.74-6.44-0.18-2.42 0.29-2.84 4.78-4.15 2.74-0.8 5.13-1.5 5.3-1.56zm-29.98 8.9c0.26 0-0.61 1.19-4.34 5.29l3.5-0.69c1.93-0.38 3.28-0.46 3-0.18-0.27 0.29-1.85 0.95-3.5 1.49-1.65 0.53-3.34 0.66-3.76 0.28-0.42-0.38 0.45-1.93 1.93-3.44 1.48-1.51 2.91-2.75 3.17-2.75zm11.41 1.04c1.21-0.03 1.75 0.73 1.75 2.46 0 1.5-0.8 2.9-2 3.5-1.1 0.55-3.01 1.01-4.25 1.03-1.24 0.01-2.59-0.32-3.01-0.75-0.41-0.43 0.71-2 2.5-3.49 1.8-1.49 4.05-2.73 5.01-2.75z"/>
		<path id="Path 9" class="s2" d="m197.5 273.67c-0.46 0.36-0.76 1.71-0.67 3 0.14 1.9 0.67 2.28 2.92 2.08 2.25-0.2 2.77-0.75 2.84-3 0.08-2.19-0.35-2.75-2.08-2.75-1.2 0-2.55 0.3-3.01 0.67zm80.69 21.58c-1.96 2.06-2.06 2.75-1.17 8.25 0.76 4.62 1.55 6.4 3.48 7.75 2.32 1.63 2.87 1.64 7.75 0.19 2.89-0.86 6.06-2.55 7.04-3.75 1.21-1.47 1.79-3.83 1.77-7.19-0.02-2.75-0.6-5.57-1.29-6.27-0.79-0.78-3.95-1.26-8.35-1.25-6.03 0.02-7.4 0.35-9.23 2.27zm-86.22 3.28c-1.77 1.95-3.17 4.42-3.1 5.5 0.07 1.09 0.69 2.98 1.38 4.22 0.69 1.24 2.15 3.27 3.25 4.53 1.65 1.88 3 2.27 7.75 2.25l5.75-0.03c1.47-5.81 2.43-9.75 3.08-12.5 1.09-4.55 1.02-5.12-0.69-6.27-1.04-0.69-4.66-1.26-8.04-1.25-5.76 0.02-6.36 0.25-9.38 3.55zm-8.29 32.28c-1.17 1.09-1.61 2.48-1.25 3.94 0.48 1.91 1.06 2.17 3.82 1.72 1.79-0.3 3.7-0.98 4.25-1.52q0.99-0.99-1.75-3.47c-1.51-1.36-2.86-2.45-3-2.42-0.14 0.03-1.07 0.82-2.07 1.75zm145.86 4.81c-0.48 0.39-0.8 1.31-0.71 2.05 0.09 0.73 1.74 2.23 3.67 3.33 1.92 1.1 4.17 2 5 2 1.11 0 1.44-0.97 1.25-3.75-0.24-3.62-0.39-3.76-4.29-4.05-2.22-0.16-4.43 0.03-4.92 0.42z"/>
		<path id="Path 10" class="s3" d="m295.67 249.49c-2.46 2.31-2.75 2.37-3.64 0.76-0.53-0.96-1-1.3-1.04-0.75-0.05 0.55 0.62 1.56 1.47 2.25 1.27 1.03 2.02 0.83 4.29-1.16 1.51-1.33 2.49-2.69 2.17-3.01-0.32-0.33-1.79 0.53-3.25 1.91zm0.18 8.15c0.08 0.75 0.6 1.59 1.15 1.86 0.55 0.27 1.92-0.29 3.04-1.25 2.02-1.73 2.01-1.75-1.15-1.86q-3.2-0.11-3.04 1.25zm11.3 20.11c-0.08 1.79-0.71 3.3-1.4 3.37-0.69 0.06-1.93 0.02-2.75-0.1-0.83-0.12-1.83-0.74-2.23-1.37-0.41-0.63-0.75-0.81-0.75-0.4-0.01 0.41 0.21 1.43 0.48 2.25 0.27 0.82 1.29 1.51 2.25 1.52 0.96 0.01 2.57-0.56 3.57-1.25 1.28-0.89 1.7-2.16 1.4-4.27l-0.42-3zm-23.85 6.5c-0.43 0.69-1.36 2.37-2.06 3.75-0.69 1.37-1.03 2.61-0.75 2.75 0.28 0.14 1.41-0.31 2.51-1 1.1-0.69 1.98-1.7 1.96-2.25-0.03-0.55 0.98-1.76 2.24-2.7l2.3-1.7c-4.19-0.08-5.76 0.46-6.2 1.15zm81.2 9.46c-1.1 0.27-2.45 0.86-3 1.32-0.6 0.5 0.69 1.65 3.25 2.9 2.34 1.14 4.7 2.07 5.25 2.07 0.55 0 1.22-1.01 1.48-2.25 0.31-1.42-0.15-2.72-1.25-3.52-0.95-0.69-2.18-1.2-2.73-1.13-0.55 0.07-1.9 0.35-3 0.61zm-39.87 22.29c-0.46 4.41-0.21 7 0.96 9.75 1.52 3.57 1.64 3.64 2.5 1.5 0.5-1.24 0.68-2.7 0.41-3.25-0.28-0.55-0.05-1 0.5-1 0.55 0 1-1.46 1-3.25-0.01-1.79-0.91-4.71-2-6.5-1.1-1.79-2.17-3.25-2.37-3.25-0.2 0-0.65 2.7-1 6zm-5.92-0.09c-0.39 0.6-0.49 2.1-0.22 3.34 0.26 1.24 1.05 2.77 1.75 3.41 0.99 0.92 1.26 0.46 1.26-2.19 0-1.85-0.47-3.87-1.04-4.5-0.74-0.82-1.24-0.83-1.75-0.06zm-18.33 12.82c-0.39 0.33-0.63 2.22-0.53 4.19 0.1 1.97 0.51 4.19 0.92 4.93 0.54 1 1.24 1.09 2.73 0.32 1.46-0.75 1.9-1.79 1.61-3.85-0.21-1.55-1.2-3.58-2.2-4.51-1-0.93-2.14-1.42-2.53-1.08zm-46.11 9.52c-0.53 0.69-1.25 1.81-1.61 2.5-0.5 0.94 0.7 1.19 4.83 1 3.02-0.14 5.5-0.36 5.5-0.5 0.01-0.14-1.45-1.15-3.24-2.25-1.79-1.09-3.54-1.99-3.89-2-0.35 0-1.07 0.56-1.59 1.25zm17.31 71.25c-0.35 0.9-1.88 1.51-3.83 1.52-1.79 0-3.93 0.45-4.75 1-1.33 0.87-1.33 1.09 0 1.96 0.82 0.55 1.95 1 2.5 1.02 0.55 0.02 2.91-1.33 5.25-2.98 2.34-1.66 4.25-3.25 4.25-3.52 0-0.27-0.64-0.5-1.42-0.5-0.77 0-1.67 0.68-2 1.5z"/>
		<path id="Path 11" class="s4" d="m271.89 105.25c-0.95 4.93-1.37 14.46-1.32 29.75 0.03 12.53 0.59 25.49 1.25 29.25 0.99 5.69 1.49 6.75 3.18 6.75 1.1 0 2.2-0.79 2.45-1.75 0.24-0.96 0.7-3.32 1.01-5.25 0.31-1.93 0.99-10.25 1.51-18.5 0.6-9.57 0.59-18.98-0.03-26-0.53-6.05-1.45-13.03-2.04-15.5-0.58-2.47-1.59-4.83-2.23-5.23-0.64-0.41-1.45-0.75-1.78-0.75-0.34-0.01-1.24 3.24-2 7.23zm-42.75 24.62c0.39 4.2 1.68 11 2.85 15.13 1.17 4.12 2.55 8.96 3.07 10.75 0.52 1.79 1.39 4.94 1.94 7 0.55 2.06 2.12 5.21 3.5 7 1.37 1.79 2.5 3.7 2.5 4.25 0 0.55 0.45 1 1 1 0.55 0 1-2.47 1-5.5 0-3.03-0.92-8.99-2.04-13.25-1.12-4.26-2.73-10-3.58-12.75-0.85-2.75-3.2-8.49-5.22-12.77-2.01-4.27-4.13-7.93-4.7-8.13-0.71-0.25-0.81 2.1-0.32 7.27zm87.38-0.62c-1.52 3.44-3.47 8.5-4.34 11.25-0.87 2.75-1.88 5.22-2.24 5.5-0.37 0.28-0.92 1.85-1.24 3.5-0.32 1.65-1.11 5.03-1.76 7.5-0.64 2.47-1.35 7.54-1.56 11.25-0.21 3.71-0.04 6.76 0.37 6.78 0.41 0.02 1.81-2.12 3.11-4.75 1.3-2.63 2.83-5.68 3.4-6.78 0.57-1.1 1.82-4.47 2.78-7.5 0.96-3.03 2.29-7.97 2.96-11 0.68-3.03 1.62-6.51 2.11-7.75 0.49-1.24 0.89-4.95 0.89-8.25 0-3.3-0.39-6-0.87-6-0.47 0-2.1 2.81-3.61 6.25zm-137.55-2c0.01 2.06 0.48 3.97 1.03 4.25 0.55 0.28 1 1.18 1 2 0 0.82 1.99 5.66 4.43 10.75 2.44 5.09 5.48 10.82 6.75 12.75 1.28 1.93 3.22 5.3 4.32 7.5 1.1 2.2 2.52 4.45 3.16 5 0.64 0.55 1.99 2.39 3 4.1 1.01 1.7 4.43 5.41 7.59 8.25 3.16 2.83 5.98 5.15 6.25 5.15 0.28 0 0.5-1.57 0.5-3.5 0-2.13-1.57-6.54-4.01-11.25-2.2-4.26-4-8.31-4-9 0.01-0.69-0.33-1.25-0.74-1.26-0.41 0-1.54-1.35-2.5-3-0.96-1.64-1.75-3.67-1.75-4.49 0-0.82-0.45-1.5-1-1.5-0.55 0-1.56-1.24-2.23-2.75-0.68-1.51-2.03-3.31-3-4-0.98-0.69-1.79-1.81-1.81-2.5-0.02-0.69-1.37-2.71-3-4.5-1.63-1.79-3.01-3.81-3.07-4.5-0.06-0.69-2.55-3.5-5.53-6.25l-5.43-5zm187.14 0.77c-2.25 2.19-4.1 4.2-4.1 4.48 0 0.28-0.44 1.06-0.97 1.75-0.53 0.69-2.31 2.82-3.96 4.75-1.64 1.93-3.01 4.06-3.03 4.75-0.02 0.69-0.95 1.81-2.05 2.5-1.1 0.69-2 2.04-2 3 0 0.96-0.9 2.31-2 3-1.1 0.69-2 2.04-2 3 0 0.96-0.44 1.75-0.99 1.75-0.55 0-1 0.68-1 1.5 0 0.82-1.13 3.3-2.5 5.5-1.38 2.2-2.5 4.68-2.5 5.5 0 0.82-0.34 1.61-0.75 1.75-0.42 0.14-1.77 2.39-3 5-1.24 2.61-2.25 6.1-2.25 7.75 0 1.65 0.33 3 0.75 2.99 0.41 0 3.32-2.59 6.47-5.75 3.14-3.16 7.21-7.77 9.03-10.24 1.82-2.47 4.08-6.19 5.03-8.25 0.94-2.06 2.05-3.86 2.47-4 0.41-0.14 3.29-5.43 6.4-11.75 3.11-6.32 6.17-13.07 6.8-15 0.63-1.93 0.95-4.51 0.71-5.73-0.42-2.12-0.65-2.04-4.56 1.75zm-219.08 33.96c-0.01 0.56 2.34 3.45 5.23 6.42 2.88 2.97 6.37 6.68 7.75 8.25 1.37 1.57 6.77 6.58 12 11.14 5.22 4.57 9.95 8.62 10.5 9.01 0.55 0.39 2.23 1.5 3.75 2.46 1.51 0.96 3.65 1.74 4.75 1.74 1.56 0 1.88-0.49 1.47-2.25-0.29-1.24-3.67-5.51-7.5-9.5-3.84-3.99-7.31-7.25-7.72-7.24-0.42 0.01-1.43-0.9-2.25-2.01-0.83-1.11-2.07-2.02-2.75-2.01-0.69 0.01-2.38-1.34-3.75-2.99-1.38-1.65-2.95-3-3.5-3-0.55 0-1-0.45-1-1 0-0.55-0.68-1-1.5-1-0.83 0-2.07-0.9-2.75-2-0.69-1.11-1.82-2.01-2.5-2-0.69 0-1.25-0.45-1.25-1 0-0.55-0.68-1-1.5-1-0.83 0-1.62-0.38-1.75-0.85-0.14-0.46-1.48-1.14-2.98-1.51-1.62-0.41-2.73-0.27-2.75 0.34zm250.83 1.38c-2.47 1.18-6.27 3.83-8.43 5.89-2.16 2.06-4.6 3.95-5.42 4.19-0.83 0.25-3.37 2.16-5.66 4.26-2.29 2.09-5.25 4.81-6.58 6.05-1.33 1.24-2.89 2.25-3.47 2.25-0.57 0-3.33 2.36-6.13 5.25-3.24 3.35-5.1 6.15-5.14 7.75-0.06 2.36 0.15 2.46 3.71 1.75 2.07-0.41 4.1-1.42 4.52-2.25 0.41-0.82 1.49-1.5 2.4-1.5 0.92 0 3.6-1.91 5.98-4.25 2.37-2.34 6.19-5.82 8.48-7.75 2.29-1.93 4.67-4.53 5.28-5.78 0.61-1.25 1.48-2.26 1.94-2.25 0.45 0.02 2.72-1.88 5.03-4.22 2.32-2.34 5.2-5.71 6.42-7.5 1.22-1.79 2.07-3.42 1.89-3.64-0.18-0.21-2.35 0.58-4.82 1.75zm-290.81 24.89c0.02 0.69 4.64 4.21 10.25 7.83 5.61 3.61 17.18 10.02 25.71 14.23 8.52 4.21 18.65 8.79 22.5 10.17 3.85 1.39 8.01 2.52 9.25 2.52 1.33 0 2.25-0.61 2.25-1.5 0-0.82-0.74-2.06-1.64-2.75-0.9-0.69-3.15-2.71-5-4.5-1.85-1.79-4.04-3.25-4.86-3.25-0.83 0-1.73-0.68-2-1.5-0.28-0.82-1.18-1.5-2-1.5-0.83 0-2.74-0.82-4.25-1.83-1.52-1-4.33-2.44-6.25-3.2-1.93-0.75-5.64-2.63-8.25-4.17-2.62-1.54-5.2-2.8-5.75-2.8-0.55 0-3.37-1.04-6.25-2.31-2.89-1.27-7.28-2.93-9.75-3.68-2.48-0.75-4.95-1.74-5.5-2.2-0.55-0.46-2.69-0.84-4.75-0.83-2.35 0.01-3.74 0.49-3.71 1.27zm327.21-0.59c-1.79 0.19-3.25 0.79-3.25 1.34 0 0.55-0.68 1-1.5 1-0.83 0-3.19 0.9-5.25 2-2.07 1.11-4.32 2.01-5 2-0.69 0-2.49 0.63-4 1.4-1.52 0.77-4.78 2.4-7.25 3.63-2.48 1.23-9.45 4.76-15.5 7.85-6.05 3.09-11.57 6.4-12.25 7.37-0.69 0.96-2.06 1.75-3.05 1.75-0.99 0-2.35 0.56-3.02 1.25-0.67 0.69-1.21 2.26-1.2 3.5 0.01 1.48 0.62 2.24 1.77 2.23 0.96-0.01 4.67-0.97 8.25-2.13 3.57-1.16 7.4-2.46 8.5-2.88 1.1-0.42 4.47-1.92 7.5-3.34 3.02-1.42 5.95-2.58 6.5-2.56 0.55 0.01 1.5-0.56 2.12-1.28 0.61-0.71 4.44-2.94 8.5-4.96 4.06-2.02 8.05-4.41 8.88-5.3 0.82-0.89 2.17-1.58 3-1.53 0.82 0.05 2.17-0.63 3-1.5 0.82-0.87 2.06-1.57 2.75-1.54 0.68 0.02 1.23-0.3 1.21-0.71-0.03-0.41 1.77-1.99 4-3.5 2.22-1.51 4.04-3.2 4.04-3.75 0-0.55-1.24-0.93-2.75-0.84-1.52 0.09-4.22 0.31-6 0.5zm-339.22 48.04c-0.03 0.44 1.63 1.1 3.7 1.47 2.07 0.38 7.59 1.37 12.27 2.21 4.67 0.84 13.45 2.02 19.5 2.64 6.05 0.61 16.13 0.97 22.41 0.79 8.08-0.22 11.52-0.68 11.75-1.56 0.19-0.69-0.45-1.66-1.41-2.16-0.97-0.51-5.8-1.48-10.75-2.16-4.95-0.68-19.89-1.42-33.2-1.63-13.31-0.22-24.23-0.04-24.27 0.4zm304.97 0.84c-5.23 0.72-10.74 1.79-12.25 2.38-1.52 0.6-2.6 1.64-2.42 2.33 0.24 0.9 4.06 1.33 13.75 1.53 8.02 0.17 18.24-0.33 25.42-1.26 6.6-0.85 16.16-2.1 21.26-2.78 6.1-0.82 9.26-1.67 9.25-2.49-0.01-0.97-5.17-1.22-22.76-1.13-12.52 0.06-27.03 0.7-32.25 1.42z"/>
		<path id="Path 12" class="s5" d="m287.1 236.24c-1.32 0.7-2.9 2.03-3.5 2.97-0.86 1.34-0.64 2.32 1 4.5 1.15 1.54 3.17 3.35 4.5 4.03 1.32 0.68 2.74 1.92 3.15 2.75 0.62 1.25 1.27 1.04 3.76-1.24 1.65-1.51 3-3.31 3-4-0.01-0.69-0.8-1.81-1.77-2.5-0.97-0.69-2.21-2.6-2.77-4.25-0.61-1.8-1.8-3.1-2.99-3.26-1.09-0.14-3.06 0.31-4.38 1zm-34.59 0.41c-1.1 0.28-1.88 1.14-1.75 1.92 0.13 0.79 0.91 1.65 1.74 1.93 0.82 0.27 2.51 0.52 3.75 0.54 1.24 0.03 2.92-0.66 3.75-1.52 0.82-0.86 1.27-1.76 1-2-0.27-0.24-1.85-0.64-3.5-0.89-1.65-0.26-3.9-0.25-4.99 0.02zm4.05 8.87c-0.94 0.89-1.67 2.04-1.63 2.55 0.04 0.51 0.52 1.15 1.07 1.43 0.55 0.27 2.35 0.27 4 0 2.4-0.4 2.95-0.95 2.75-2.75-0.16-1.43-1.03-2.36-2.37-2.55-1.16-0.17-2.88 0.42-3.82 1.32zm45.94 4.2c-1.1 0.26-3.02 1.45-4.28 2.63-1.25 1.18-2.26 2.49-2.25 2.9 0.02 0.41 0.82 0.98 1.78 1.25 0.96 0.28 4.45-0.54 7.75-1.81 3.71-1.43 6.1-2.96 6.25-4 0.2-1.35-0.51-1.67-3.5-1.57-2.06 0.06-4.65 0.33-5.75 0.6zm-1.5 27.78c0 2.54 0.48 3.59 1.75 3.84 0.96 0.18 2.31 0.18 3 0 0.7-0.19 1.25-1.89 1.25-3.84 0-3.22-0.24-3.5-3-3.5-2.76 0-3 0.28-3 3.5zm7 28.59c-2.21 0.88-2.43 1.42-1.93 4.7 0.32 2.04 1.56 5.17 2.75 6.96 1.25 1.86 3.04 3.25 4.18 3.25 1.44 0 2.32-1.05 3.16-3.75 0.92-3 0.86-4.55-0.29-7.75-0.96-2.65-2.11-4.07-3.41-4.21-1.08-0.11-3.09 0.25-4.46 0.8zm51.55 7.91c-0.3 0.55 0.46 2.14 1.7 3.53 1.24 1.38 3.04 2.51 4 2.5 0.96-0.02 1.75-0.48 1.75-1.03 0-0.55-0.45-2.13-1-3.5-0.69-1.71-1.77-2.5-3.45-2.5-1.35 0-2.7 0.45-3 1zm-78.55 19.2c-0.83 0.71-1.32 2.76-1.2 5 0.18 3.43 0.47 3.8 2.95 3.81 1.51 0 3.76-0.67 5-1.5 1.24-0.83 2.26-2.52 2.27-3.76 0.01-1.24-0.56-2.82-1.25-3.52-0.7-0.69-2.42-1.26-3.82-1.25-1.4 0.01-3.18 0.56-3.95 1.22z"/>
	</g>
</svg>